NotoMusic-Regular.ufo
<glyph name="uni2669" format="2">
  <advance width="282"/>
  <unicode hex="2669"/>
  <note>
uni2669
</note>
  <outline>
    <contour>
      <point x="194" y="563" type="line"/>
      <point x="194" y="148" type="line"/>
      <point x="179" y="154"/>
      <point x="164" y="157"/>
      <point x="150" y="157" type="curve" smooth="yes"/>
      <point x="99" y="157"/>
      <point x="51" y="114"/>
      <point x="51" y="63" type="curve" smooth="yes"/>
      <point x="51" y="34"/>
      <point x="70" y="14"/>
      <point x="107" y="14" type="curve" smooth="yes"/>
      <point x="177" y="14"/>
      <point x="231" y="68"/>
      <point x="231" y="148" type="curve" smooth="yes"/>
      <point x="231" y="563" type="line"/>
    </contour>
  </outline>
</glyph>
<glyph name="musicalnote" format="2">
  <advance width="410"/>
  <unicode hex="266A"/>
  <note>
musicalnote
</note>
  <outline>
    <contour>
      <point x="194" y="563" type="line"/>
      <point x="194" y="148" type="line"/>
      <point x="179" y="154"/>
      <point x="164" y="157"/>
      <point x="150" y="157" type="curve" smooth="yes"/>
      <point x="99" y="157"/>
      <point x="51" y="114"/>
      <point x="51" y="63" type="curve" smooth="yes"/>
      <point x="51" y="34"/>
      <point x="70" y="14"/>
      <point x="107" y="14" type="curve" smooth="yes"/>
      <point x="177" y="14"/>
      <point x="231" y="68"/>
      <point x="231" y="148" type="curve" smooth="yes"/>
      <point x="231" y="395" type="line"/>
      <point x="272" y="389"/>
      <point x="318" y="332"/>
      <point x="318" y="254" type="curve" smooth="yes"/>
      <point x="318" y="214"/>
      <point x="309" y="174"/>
      <point x="290" y="133" type="curve"/>
      <point x="313" y="133" type="line"/>
      <point x="344" y="172"/>
      <point x="359" y="216"/>
      <point x="359" y="265" type="curve" smooth="yes"/>
      <point x="359" y="320"/>
      <point x="342" y="374"/>
      <point x="305" y="420" type="curve" smooth="yes"/>
      <point x="231" y="514" type="line"/>
      <point x="231" y="563" type="line"/>
    </contour>
  </outline>
</glyph>
<glyph name="uni266C" format="2">
  <advance width="586"/>
  <unicode hex="266C"/>
  <note>
uni266C
</note>
  <outline>
    <contour>
      <point x="535" y="158" type="curve" smooth="yes"/>
      <point x="535" y="566" type="line"/>
      <point x="194" y="479" type="line"/>
      <point x="194" y="112" type="line"/>
      <point x="179" y="118"/>
      <point x="164" y="121"/>
      <point x="147" y="121" type="curve" smooth="yes"/>
      <point x="95" y="121"/>
      <point x="51" y="75"/>
      <point x="51" y="27" type="curve" smooth="yes"/>
      <point x="51" y="-2"/>
      <point x="70" y="-21"/>
      <point x="107" y="-21" type="curve" smooth="yes"/>
      <point x="182" y="-21"/>
      <point x="230" y="36"/>
      <point x="230" y="112" type="curve" smooth="yes"/>
      <point x="230" y="304" type="line"/>
      <point x="499" y="377" type="line"/>
      <point x="499" y="158" type="line"/>
      <point x="485" y="164"/>
      <point x="470" y="167"/>
      <point x="455" y="167" type="curve" smooth="yes"/>
      <point x="404" y="167"/>
      <point x="357" y="126"/>
      <point x="357" y="73" type="curve" smooth="yes"/>
      <point x="357" y="42"/>
      <point x="375" y="24"/>
      <point x="413" y="24" type="curve" smooth="yes"/>
      <point x="474" y="24"/>
      <point x="535" y="74"/>
    </contour>
    <contour>
      <point x="230" y="366" type="line"/>
      <point x="230" y="422" type="line"/>
      <point x="499" y="496" type="line"/>
      <point x="499" y="439" type="line"/>
    </contour>
  </outline>
</glyph>
<glyph name="uni266D" format="2">
  <advance width="347"/>
  <unicode hex="266D"/>
  <note>
uni266D
</note>
  <outline>
    <contour>
      <point x="51" y="524" type="line"/>
      <point x="51" y="-25" type="line"/>
      <point x="69" y="-25" type="line" smooth="yes"/>
      <point x="135" y="-25"/>
      <point x="219" y="10"/>
      <point x="263" y="70" type="curve" smooth="yes"/>
      <point x="285" y="100"/>
      <point x="296" y="134"/>
      <point x="296" y="173" type="curve" smooth="yes"/>
      <point x="296" y="232"/>
      <point x="264" y="267"/>
      <point x="209" y="267" type="curve" smooth="yes"/>
      <point x="169" y="267"/>
      <point x="126" y="234"/>
      <point x="88" y="179" type="curve"/>
      <point x="88" y="524" type="line"/>
    </contour>
    <contour>
      <point x="88" y="141" type="line"/>
      <point x="117" y="185"/>
      <point x="162" y="222"/>
      <point x="199" y="222" type="curve" smooth="yes"/>
      <point x="229" y="222"/>
      <point x="239" y="201"/>
      <point x="239" y="162" type="curve" smooth="yes"/>
      <point x="239" y="104"/>
      <point x="205" y="54"/>
      <point x="153" y="25" type="curve" smooth="yes"/>
      <point x="127" y="10"/>
      <point x="105" y="3"/>
      <point x="88" y="3" type="curve"/>
    </contour>
  </outline>
</glyph>
<glyph name="u1D000" format="2">
  <advance width="475"/>
  <unicode hex="1D000"/>
  <note>
u1D000
</note>
  <outline>
    <contour>
      <point x="274" y="639" type="curve" smooth="yes"/>
      <point x="274" y="614" type="line"/>
      <point x="124" y="604" type="line"/>
      <point x="103" y="569" type="line"/>
      <point x="276" y="574" type="line"/>
      <point x="278" y="528"/>
      <point x="280" y="500"/>
      <point x="284" y="492" type="curve" smooth="yes"/>
      <point x="289" y="482"/>
      <point x="292" y="478"/>
      <point x="301" y="478" type="curve" smooth="yes"/>
      <point x="313" y="478"/>
      <point x="344" y="490"/>
      <point x="354" y="498" type="curve"/>
      <point x="372" y="691" type="line"/>
      <point x="361" y="706"/>
      <point x="347" y="714"/>
      <point x="330" y="714" type="curve" smooth="yes"/>
      <point x="292" y="714"/>
      <point x="274" y="679"/>
    </contour>
  </outline>
</glyph>
<glyph name="u1D001" format="2">
  <advance width="475"/>
  <unicode hex="1D001"/>
  <note>
u1D001
</note>
  <outline>
    <contour>
      <point x="200" y="577" type="curve"/>
      <point x="352" y="589" type="line"/>
      <point x="372" y="624" type="line"/>
      <point x="199" y="619" type="line"/>
      <point x="197" y="665" type="line" smooth="yes"/>
      <point x="196" y="698"/>
      <point x="188" y="714"/>
      <point x="174" y="714" type="curve" smooth="yes"/>
      <point x="160" y="714"/>
      <point x="142" y="707"/>
      <point x="121" y="694" type="curve"/>
      <point x="103" y="502" type="line"/>
      <point x="115" y="486"/>
      <point x="129" y="478"/>
      <point x="145" y="478" type="curve" smooth="yes"/>
      <point x="183" y="478"/>
      <point x="201" y="514"/>
      <point x="201" y="551" type="curve" smooth="yes"/>
      <point x="201" y="560"/>
      <point x="201" y="568"/>
    </contour>
  </outline>
</glyph>
<glyph name="u1D002" format="2">
  <advance width="660"/>
  <unicode hex="1D002"/>
  <note>
u1D002
</note>
  <outline>
    <contour>
      <point x="158" y="485" type="curve"/>
      <point x="203" y="566"/>
      <point x="255" y="602"/>
      <point x="330" y="602" type="curve" smooth="yes"/>
      <point x="405" y="602"/>
      <point x="456" y="567"/>
      <point x="499" y="485" type="curve"/>
      <point x="526" y="494"/>
      <point x="545" y="505"/>
      <point x="556" y="518" type="curve"/>
      <point x="520" y="611"/>
      <point x="437" y="667"/>
      <point x="330" y="667" type="curve" smooth="yes"/>
      <point x="225" y="667"/>
      <point x="140" y="614"/>
      <point x="103" y="518" type="curve"/>
      <point x="116" y="504"/>
      <point x="134" y="493"/>
    </contour>
  </outline>
</glyph>
<glyph name="u1D003" format="2">
  <advance width="800"/>
  <unicode hex="1D003"/>
  <note>
u1D003
</note>
  <outline>
    <contour>
      <point x="588" y="509" type="line"/>
      <point x="604" y="446" type="line" smooth="yes"/>
      <point x="607" y="432"/>
      <point x="615" y="425"/>
      <point x="629" y="425" type="curve" smooth="yes"/>
      <point x="636" y="425"/>
      <point x="648" y="433"/>
      <point x="664" y="449" type="curve" smooth="yes"/>
      <point x="669" y="455"/>
      <point x="673" y="461"/>
      <point x="677" y="467" type="curve"/>
      <point x="697" y="620" type="line"/>
      <point x="612" y="620" type="line"/>
      <point x="103" y="142" type="line"/>
      <point x="166" y="144" type="line"/>
    </contour>
  </outline>
</glyph>
<glyph name="u1D004" format="2">
  <advance width="901"/>
  <unicode hex="1D004"/>
  <note>
u1D004
</note>
  <outline>
    <contour>
      <point x="274" y="152" type="line"/>
      <point x="689" y="527" type="line"/>
      <point x="718" y="500"/>
      <point x="734" y="486"/>
      <point x="738" y="484" type="curve" smooth="yes"/>
      <point x="741" y="482"/>
      <point x="746" y="481"/>
      <point x="750" y="481" type="curve" smooth="yes"/>
      <point x="758" y="481"/>
      <point x="765" y="487"/>
      <point x="772" y="495" type="curve" smooth="yes"/>
      <point x="779" y="504"/>
      <point x="788" y="522"/>
      <point x="798" y="550" type="curve"/>
      <point x="785" y="631" type="line"/>
      <point x="750" y="635" type="line" smooth="yes"/>
      <point x="738" y="636"/>
      <point x="723" y="631"/>
      <point x="712" y="625" type="curve"/>
      <point x="210" y="146" type="line"/>
    </contour>
    <contour>
      <point x="535" y="553" type="line"/>
      <point x="547" y="543" type="line" smooth="yes"/>
      <point x="561" y="532"/>
      <point x="573" y="528"/>
      <point x="578" y="528" type="curve" smooth="yes"/>
      <point x="593" y="528"/>
      <point x="603" y="550"/>
      <point x="607" y="559" type="curve" smooth="yes"/>
      <point x="620" y="589" type="line"/>
      <point x="620" y="647" type="line"/>
      <point x="612" y="650"/>
      <point x="600" y="652"/>
      <point x="585" y="652" type="curve" smooth="yes"/>
      <point x="569" y="652"/>
      <point x="554" y="648"/>
      <point x="541" y="642" type="curve"/>
      <point x="103" y="188" type="line"/>
      <point x="163" y="193" type="line"/>
    </contour>
  </outline>
</glyph>
<glyph name="u1D005" format="2">
  <advance width="671"/>
  <unicode hex="1D005"/>
  <note>
u1D005
</note>
  <outline>
    <contour>
      <point x="103" y="598" type="line"/>
      <point x="131" y="538" type="line"/>
      <point x="568" y="154" type="line"/>
      <point x="560" y="208" type="line"/>
      <point x="239" y="518" type="line" smooth="yes"/>
      <point x="229" y="528"/>
      <point x="218" y="546"/>
      <point x="208" y="570" type="curve" smooth="yes"/>
      <point x="199" y="593"/>
      <point x="181" y="607"/>
      <point x="161" y="607" type="curve" smooth="yes"/>
      <point x="159" y="607"/>
      <point x="152" y="606"/>
      <point x="148" y="605" type="curve" smooth="yes"/>
    </contour>
  </outline>
</glyph>
<glyph name="u1D006" format="2">
  <advance width="828"/>
  <unicode hex="1D006"/>
  <note>
u1D006
</note>
  <outline>
    <contour>
      <point x="260" y="598" type="line"/>
      <point x="288" y="538" type="line"/>
      <point x="725" y="154" type="line"/>
      <point x="718" y="208" type="line"/>
      <point x="396" y="518" type="line" smooth="yes"/>
      <point x="385" y="529"/>
      <point x="377" y="543"/>
      <point x="371" y="558" type="curve" smooth="yes"/>
      <point x="359" y="588"/>
      <point x="341" y="607"/>
      <point x="321" y="607" type="curve" smooth="yes"/>
      <point x="319" y="607"/>
      <point x="313" y="606"/>
      <point x="308" y="605" type="curve" smooth="yes"/>
    </contour>
    <contour>
      <point x="103" y="581" type="line"/>
      <point x="131" y="520" type="line"/>
      <point x="568" y="154" type="line"/>
      <point x="560" y="208" type="line"/>
      <point x="239" y="502" type="line" smooth="yes"/>
      <point x="228" y="512"/>
      <point x="218" y="531"/>
      <point x="208" y="554" type="curve" smooth="yes"/>
      <point x="199" y="575"/>
      <point x="182" y="590"/>
      <point x="163" y="590" type="curve" smooth="yes"/>
      <point x="161" y="590"/>
      <point x="154" y="589"/>
      <point x="149" y="588" type="curve" smooth="yes"/>
    </contour>
  </outline>
</glyph>
<glyph name="u1D007" format="2">
  <advance width="694"/>
  <unicode hex="1D007"/>
  <note>
u1D007
</note>
  <outline>
    <contour>
      <point x="208" y="444" type="line"/>
      <point x="136" y="476" type="line"/>
      <point x="114" y="445"/>
      <point x="103" y="410"/>
      <point x="103" y="375" type="curve" smooth="yes"/>
      <point x="103" y="343"/>
      <point x="145" y="322"/>
      <point x="211" y="322" type="curve" smooth="yes"/>
      <point x="220" y="322"/>
      <point x="230" y="322"/>
      <point x="241" y="323" type="curve" smooth="yes"/>
      <point x="428" y="337" type="line" smooth="yes"/>
      <point x="439" y="338"/>
      <point x="450" y="338"/>
      <point x="453" y="338" type="curve" smooth="yes"/>
      <point x="489" y="338"/>
      <point x="495" y="314"/>
      <point x="505" y="292" type="curve" smooth="yes"/>
      <point x="512" y="277"/>
      <point x="517" y="265"/>
      <point x="532" y="251" type="curve" smooth="yes"/>
      <point x="542" y="242"/>
      <point x="559" y="239"/>
      <point x="589" y="239" type="curve"/>
      <point x="589" y="247"/>
      <point x="590" y="254"/>
      <point x="590" y="262" type="curve" smooth="yes"/>
      <point x="589" y="312"/>
      <point x="583" y="349"/>
      <point x="573" y="375" type="curve" smooth="yes"/>
      <point x="563" y="402"/>
      <point x="549" y="415"/>
      <point x="533" y="415" type="curve" smooth="yes"/>
      <point x="522" y="415"/>
      <point x="483" y="406"/>
      <point x="426" y="392" type="curve" smooth="yes"/>
      <point x="359" y="376" type="line" smooth="yes"/>
      <point x="296" y="361"/>
      <point x="253" y="353"/>
      <point x="232" y="353" type="curve" smooth="yes"/>
      <point x="205" y="353"/>
      <point x="189" y="360"/>
      <point x="185" y="373" type="curve"/>
    </contour>
  </outline>
</glyph>
<glyph name="u1D008" format="2">
  <advance width="1080"/>
  <unicode hex="1D008"/>
  <note>
u1D008
</note>
  <outline>
    <contour>
      <point x="338" y="425" type="curve" smooth="yes"/>
      <point x="415" y="425"/>
      <point x="455" y="401"/>
      <point x="579" y="319" type="curve" smooth="yes"/>
      <point x="628" y="286"/>
      <point x="683" y="269"/>
      <point x="743" y="269" type="curve" smooth="yes"/>
      <point x="812" y="269"/>
      <point x="901" y="314"/>
      <point x="977" y="390" type="curve"/>
      <point x="960" y="413" type="line"/>
      <point x="915" y="366"/>
      <point x="831" y="323"/>
      <point x="780" y="323" type="curve" smooth="yes"/>
      <point x="724" y="323"/>
      <point x="684" y="344"/>
      <point x="595" y="401" type="curve" smooth="yes"/>
      <point x="505" y="458"/>
      <point x="451" y="474"/>
      <point x="373" y="474" type="curve" smooth="yes"/>
      <point x="299" y="474"/>
      <point x="243" y="450"/>
      <point x="197" y="420" type="curve" smooth="yes"/>
      <point x="174" y="405"/>
      <point x="143" y="376"/>
      <point x="103" y="334" type="curve"/>
      <point x="128" y="310" type="line"/>
      <point x="203" y="392"/>
      <point x="271" y="425"/>
    </contour>
  </outline>
</glyph>
<glyph name="u1D009" format="2">
  <advance width="1018"/>
  <unicode hex="1D009"/>
  <note>
u1D009
</note>
  <outline>
    <contour>
      <point x="228" y="502" type="curve"/>
      <point x="145" y="521" type="line"/>
      <point x="117" y="497"/>
      <point x="103" y="472"/>
      <point x="103" y="446" type="curve" smooth="yes"/>
      <point x="103" y="398"/>
      <point x="147" y="371"/>
      <point x="219" y="370" type="curve" smooth="yes"/>
      <point x="232" y="370"/>
      <point x="244" y="371"/>
      <point x="257" y="373" type="curve"/>
      <point x="224" y="335"/>
      <point x="208" y="303"/>
      <point x="208" y="276" type="curve" smooth="yes"/>
      <point x="208" y="240"/>
      <point x="230" y="210"/>
      <point x="274" y="210" type="curve" smooth="yes"/>
      <point x="313" y="210"/>
      <point x="373" y="229"/>
      <point x="455" y="269" type="curve" smooth="yes"/>
      <point x="536" y="309"/>
      <point x="689" y="394"/>
      <point x="914" y="526" type="curve"/>
      <point x="871" y="542" type="line"/>
      <point x="664" y="425"/>
      <point x="532" y="354"/>
      <point x="474" y="328" type="curve" smooth="yes"/>
      <point x="416" y="302"/>
      <point x="370" y="290"/>
      <point x="336" y="290" type="curve" smooth="yes"/>
      <point x="317" y="290"/>
      <point x="308" y="298"/>
      <point x="308" y="314" type="curve" smooth="yes"/>
      <point x="308" y="345"/>
      <point x="344" y="382"/>
      <point x="377" y="415" type="curve"/>
      <point x="374" y="434" type="line"/>
      <point x="312" y="421"/>
      <point x="263" y="415"/>
      <point x="226" y="415" type="curve" smooth="yes"/>
      <point x="199" y="415"/>
      <point x="185" y="426"/>
      <point x="185" y="448" type="curve" smooth="yes"/>
      <point x="185" y="465"/>
      <point x="199" y="483"/>
    </contour>
  </outline>
</glyph>
<glyph name="u1D00A" format="2">
  <advance width="388"/>
  <unicode hex="1D00A"/>
  <note>
u1D00A
</note>
  <outline>
    <contour>
      <point x="103" y="434" type="curve"/>
      <point x="128" y="408" type="line"/>
      <point x="210" y="408"/>
      <point x="283" y="458"/>
      <point x="283" y="518" type="curve" smooth="yes"/>
      <point x="283" y="562"/>
      <point x="252" y="578"/>
      <point x="222" y="578" type="curve" smooth="yes"/>
      <point x="193" y="578"/>
      <point x="164" y="563"/>
      <point x="164" y="539" type="curve" smooth="yes"/>
      <point x="164" y="524"/>
      <point x="169" y="514"/>
      <point x="181" y="508" type="curve" smooth="yes"/>
      <point x="192" y="503"/>
      <point x="197" y="497"/>
      <point x="197" y="491" type="curve" smooth="yes"/>
      <point x="197" y="468"/>
      <point x="151" y="443"/>
    </contour>
    <contour>
      <point x="103" y="236" type="curve"/>
      <point x="128" y="209" type="line"/>
      <point x="207" y="209"/>
      <point x="283" y="255"/>
      <point x="283" y="319" type="curve" smooth="yes"/>
      <point x="283" y="363"/>
      <point x="252" y="380"/>
      <point x="222" y="380" type="curve" smooth="yes"/>
      <point x="193" y="380"/>
      <point x="164" y="365"/>
      <point x="164" y="340" type="curve" smooth="yes"/>
      <point x="164" y="325"/>
      <point x="169" y="316"/>
      <point x="181" y="310" type="curve" smooth="yes"/>
      <point x="191" y="305"/>
      <point x="197" y="298"/>
      <point x="197" y="293" type="curve" smooth="yes"/>
      <point x="197" y="268"/>
      <point x="146" y="242"/>
    </contour>
  </outline>
</glyph>
<glyph name="u1D00B" format="2">
  <advance width="481"/>
  <unicode hex="1D00B"/>
  <note>
u1D00B
</note>
  <outline>
    <contour>
      <point x="145" y="636" type="curve"/>
      <point x="170" y="611" type="line"/>
      <point x="256" y="611"/>
      <point x="325" y="660"/>
      <point x="325" y="719" type="curve" smooth="yes"/>
      <point x="325" y="759"/>
      <point x="304" y="779"/>
      <point x="262" y="779" type="curve" smooth="yes"/>
      <point x="235" y="779"/>
      <point x="206" y="766"/>
      <point x="206" y="740" type="curve" smooth="yes"/>
      <point x="206" y="724"/>
      <point x="211" y="714"/>
      <point x="223" y="710" type="curve" smooth="yes"/>
      <point x="233" y="707"/>
      <point x="239" y="700"/>
      <point x="239" y="692" type="curve" smooth="yes"/>
      <point x="239" y="668"/>
      <point x="192" y="642"/>
    </contour>
    <contour>
      <point x="145" y="438" type="curve"/>
      <point x="170" y="412" type="line"/>
      <point x="256" y="412"/>
      <point x="325" y="461"/>
      <point x="325" y="520" type="curve" smooth="yes"/>
      <point x="325" y="561"/>
      <point x="304" y="581"/>
      <point x="262" y="581" type="curve" smooth="yes"/>
      <point x="235" y="581"/>
      <point x="206" y="568"/>
      <point x="206" y="541" type="curve" smooth="yes"/>
      <point x="206" y="527"/>
      <point x="211" y="517"/>
      <point x="223" y="511" type="curve" smooth="yes"/>
      <point x="233" y="506"/>
      <point x="239" y="500"/>
      <point x="239" y="494" type="curve" smooth="yes"/>
      <point x="239" y="470"/>
      <point x="192" y="443"/>
    </contour>
    <contour>
      <point x="103" y="175" type="curve"/>
      <point x="124" y="145" type="line"/>
      <point x="292" y="156"/>
      <point x="377" y="204"/>
      <point x="377" y="287" type="curve" smooth="yes"/>
      <point x="377" y="338"/>
      <point x="340" y="366"/>
      <point x="293" y="366" type="curve" smooth="yes"/>
      <point x="251" y="366"/>
      <point x="215" y="346"/>
      <point x="215" y="314" type="curve" smooth="yes"/>
      <point x="215" y="287"/>
      <point x="234" y="271"/>
      <point x="259" y="271" type="curve" smooth="yes"/>
      <point x="278" y="271"/>
      <point x="287" y="266"/>
      <point x="287" y="257" type="curve" smooth="yes"/>
      <point x="287" y="238"/>
      <point x="271" y="221"/>
      <point x="238" y="207" type="curve" smooth="yes"/>
      <point x="204" y="193"/>
      <point x="160" y="181"/>
    </contour>
  </outline>
</glyph>
<glyph name="u1D00C" format="2">
  <advance width="892"/>
  <unicode hex="1D00C"/>
  <note>
u1D00C
</note>
  <outline>
    <contour>
      <point x="200" y="288" type="curve"/>
      <point x="103" y="282" type="line"/>
      <point x="116" y="191"/>
      <point x="153" y="146"/>
      <point x="216" y="146" type="curve" smooth="yes"/>
      <point x="263" y="146"/>
      <point x="325" y="176"/>
      <point x="404" y="234" type="curve" smooth="yes"/>
      <point x="483" y="292"/>
      <point x="582" y="388"/>
      <point x="703" y="512" type="curve" smooth="yes"/>
      <point x="787" y="598" type="line"/>
      <point x="694" y="598" type="line"/>
      <point x="565" y="456"/>
      <point x="467" y="356"/>
      <point x="399" y="300" type="curve" smooth="yes"/>
      <point x="331" y="244"/>
      <point x="284" y="215"/>
      <point x="257" y="215" type="curve" smooth="yes"/>
      <point x="232" y="215"/>
      <point x="213" y="239"/>
    </contour>
  </outline>
</glyph>
<glyph name="u1D00D" format="2">
  <advance width="682"/>
  <unicode hex="1D00D"/>
  <note>
u1D00D
</note>
  <outline>
    <contour>
      <point x="103" y="174" type="curve"/>
      <point x="152" y="149" type="line"/>
      <point x="380" y="303"/>
      <point x="577" y="507"/>
      <point x="577" y="619" type="curve" smooth="yes"/>
      <point x="577" y="663"/>
      <point x="552" y="685"/>
      <point x="502" y="685" type="curve" smooth="yes"/>
      <point x="458" y="685"/>
      <point x="404" y="656"/>
      <point x="361" y="611" type="curve"/>
      <point x="397" y="563" type="line"/>
      <point x="420" y="583"/>
      <point x="439" y="593"/>
      <point x="456" y="593" type="curve" smooth="yes"/>
      <point x="479" y="593"/>
      <point x="490" y="582"/>
      <point x="490" y="560" type="curve" smooth="yes"/>
      <point x="490" y="471"/>
      <point x="299" y="291"/>
    </contour>
  </outline>
</glyph>
<glyph name="u1D00E" format="2">
  <advance width="674"/>
  <unicode hex="1D00E"/>
  <note>
u1D00E
</note>
  <outline>
    <contour>
      <point x="103" y="170" type="curve"/>
      <point x="136" y="127" type="line"/>
      <point x="246" y="333"/>
      <point x="395" y="490"/>
      <point x="467" y="490" type="curve" smooth="yes"/>
      <point x="483" y="490"/>
      <point x="491" y="480"/>
      <point x="491" y="460" type="curve" smooth="yes"/>
      <point x="491" y="445"/>
      <point x="483" y="427"/>
      <point x="468" y="406" type="curve"/>
      <point x="510" y="377" type="line"/>
      <point x="546" y="412"/>
      <point x="570" y="460"/>
      <point x="570" y="499" type="curve" smooth="yes"/>
      <point x="570" y="546"/>
      <point x="549" y="570"/>
      <point x="509" y="570" type="curve" smooth="yes"/>
      <point x="449" y="570"/>
      <point x="350" y="493"/>
      <point x="240" y="361" type="curve" smooth="yes"/>
      <point x="185" y="294"/>
      <point x="139" y="231"/>
    </contour>
  </outline>
</glyph>
<glyph name="u1D00F" format="2">
  <advance width="743"/>
  <unicode hex="1D00F"/>
  <note>
u1D00F
</note>
  <outline>
    <contour>
      <point x="348" y="352" type="line"/>
      <point x="216" y="354" type="line" smooth="yes"/>
      <point x="175" y="354"/>
      <point x="146" y="350"/>
      <point x="129" y="343" type="curve" smooth="yes"/>
      <point x="112" y="336"/>
      <point x="103" y="324"/>
      <point x="103" y="308" type="curve" smooth="yes"/>
      <point x="103" y="277"/>
      <point x="121" y="260"/>
      <point x="144" y="260" type="curve" smooth="yes"/>
      <point x="160" y="260"/>
      <point x="177" y="270"/>
      <point x="194" y="289" type="curve" smooth="yes"/>
      <point x="211" y="308"/>
      <point x="224" y="318"/>
      <point x="232" y="318" type="curve" smooth="yes"/>
      <point x="248" y="318"/>
      <point x="292" y="312"/>
      <point x="348" y="312" type="curve"/>
      <point x="350" y="287"/>
      <point x="351" y="272"/>
      <point x="355" y="209" type="curve"/>
      <point x="370" y="200"/>
      <point x="396" y="196"/>
      <point x="433" y="196" type="curve"/>
      <point x="439" y="221"/>
      <point x="442" y="260"/>
      <point x="442" y="312" type="curve"/>
      <point x="526" y="314" type="line" smooth="yes"/>
      <point x="544" y="314"/>
      <point x="560" y="308"/>
      <point x="571" y="296" type="curve" smooth="yes"/>
      <point x="582" y="284"/>
      <point x="590" y="278"/>
      <point x="595" y="278" type="curve" smooth="yes"/>
      <point x="615" y="278"/>
      <point x="640" y="315"/>
      <point x="640" y="343" type="curve" smooth="yes"/>
      <point x="640" y="363"/>
      <point x="628" y="373"/>
      <point x="604" y="373" type="curve" smooth="yes"/>
      <point x="598" y="373"/>
      <point x="589" y="372"/>
      <point x="581" y="370" type="curve" smooth="yes"/>
      <point x="526" y="359"/>
      <point x="479" y="354"/>
      <point x="439" y="352" type="curve"/>
      <point x="431" y="406"/>
      <point x="426" y="436"/>
      <point x="424" y="442" type="curve"/>
      <point x="409" y="454"/>
      <point x="383" y="465"/>
      <point x="348" y="475" type="curve"/>
      <point x="343" y="475"/>
      <point x="341" y="467"/>
      <point x="341" y="452" type="curve" smooth="yes"/>
      <point x="341" y="435"/>
      <point x="345" y="423"/>
      <point x="354" y="416" type="curve"/>
    </contour>
  </outline>
</glyph>
<glyph name="u1D010" format="2">
  <advance width="655"/>
  <unicode hex="1D010"/>
  <note>
u1D010
</note>
  <outline>
    <contour>
      <point x="329" y="481" type="curve" smooth="yes"/>
      <point x="296" y="481"/>
      <point x="269" y="455"/>
      <point x="269" y="424" type="curve" smooth="yes"/>
      <point x="269" y="391"/>
      <point x="296" y="365"/>
      <point x="329" y="365" type="curve" smooth="yes"/>
      <point x="360" y="365"/>
      <point x="386" y="391"/>
      <point x="386" y="424" type="curve" smooth="yes"/>
      <point x="386" y="455"/>
      <point x="360" y="481"/>
    </contour>
    <contour>
      <point x="163" y="403" type="curve" smooth="yes"/>
      <point x="131" y="403"/>
      <point x="103" y="375"/>
      <point x="103" y="344" type="curve" smooth="yes"/>
      <point x="103" y="312"/>
      <point x="131" y="287"/>
      <point x="163" y="287" type="curve" smooth="yes"/>
      <point x="194" y="287"/>
      <point x="218" y="312"/>
      <point x="218" y="344" type="curve" smooth="yes"/>
      <point x="218" y="375"/>
      <point x="194" y="403"/>
    </contour>
    <contour>
      <point x="494" y="403" type="curve" smooth="yes"/>
      <point x="463" y="403"/>
      <point x="434" y="374"/>
      <point x="434" y="344" type="curve" smooth="yes"/>
      <point x="434" y="312"/>
      <point x="463" y="287"/>
      <point x="494" y="287" type="curve" smooth="yes"/>
      <point x="527" y="287"/>
      <point x="552" y="313"/>
      <point x="552" y="344" type="curve" smooth="yes"/>
      <point x="552" y="375"/>
      <point x="526" y="403"/>
    </contour>
  </outline>
</glyph>
<glyph name="u1D011" format="2">
  <advance width="584"/>
  <unicode hex="1D011"/>
  <note>
u1D011
</note>
  <outline>
    <contour>
      <point x="103" y="174" type="curve"/>
      <point x="137" y="152" type="line"/>
      <point x="259" y="207"/>
      <point x="347" y="255"/>
      <point x="400" y="296" type="curve" smooth="yes"/>
      <point x="453" y="337"/>
      <point x="481" y="372"/>
      <point x="481" y="403" type="curve" smooth="yes"/>
      <point x="481" y="438"/>
      <point x="432" y="452"/>
      <point x="383" y="452" type="curve" smooth="yes"/>
      <point x="336" y="452"/>
      <point x="295" y="445"/>
      <point x="260" y="430" type="curve"/>
      <point x="282" y="383" type="line"/>
      <point x="294" y="385"/>
      <point x="306" y="386"/>
      <point x="318" y="386" type="curve" smooth="yes"/>
      <point x="361" y="386"/>
      <point x="383" y="376"/>
      <point x="383" y="355" type="curve" smooth="yes"/>
      <point x="383" y="340"/>
      <point x="360" y="317"/>
      <point x="315" y="286" type="curve" smooth="yes"/>
      <point x="270" y="255"/>
      <point x="199" y="218"/>
    </contour>
  </outline>
</glyph>
<glyph name="u1D012" format="2">
  <advance width="806"/>
  <unicode hex="1D012"/>
  <note>
u1D012
</note>
  <outline>
    <contour>
      <point x="301" y="173" type="curve"/>
      <point x="334" y="149" type="line"/>
      <point x="459" y="206"/>
      <point x="553" y="258"/>
      <point x="613" y="303" type="curve" smooth="yes"/>
      <point x="673" y="348"/>
      <point x="703" y="387"/>
      <point x="703" y="418" type="curve" smooth="yes"/>
      <point x="703" y="446"/>
      <point x="678" y="469"/>
      <point x="613" y="469" type="curve" smooth="yes"/>
      <point x="584" y="469"/>
      <point x="558" y="463"/>
      <point x="535" y="452" type="curve"/>
      <point x="539" y="406" type="line"/>
      <point x="546" y="407"/>
      <point x="554" y="408"/>
      <point x="561" y="408" type="curve" smooth="yes"/>
      <point x="584" y="408"/>
      <point x="598" y="398"/>
      <point x="598" y="383" type="curve" smooth="yes"/>
      <point x="598" y="366"/>
      <point x="569" y="336"/>
      <point x="511" y="295" type="curve" smooth="yes"/>
      <point x="453" y="254"/>
      <point x="383" y="213"/>
    </contour>
    <contour>
      <point x="103" y="193" type="curve"/>
      <point x="137" y="170" type="line"/>
      <point x="383" y="281"/>
      <point x="506" y="371"/>
      <point x="506" y="439" type="curve" smooth="yes"/>
      <point x="506" y="467"/>
      <point x="481" y="491"/>
      <point x="416" y="491" type="curve" smooth="yes"/>
      <point x="388" y="491"/>
      <point x="362" y="485"/>
      <point x="338" y="474" type="curve"/>
      <point x="343" y="426" type="line"/>
      <point x="356" y="428"/>
      <point x="358" y="428"/>
      <point x="366" y="428" type="curve" smooth="yes"/>
      <point x="389" y="428"/>
      <point x="401" y="420"/>
      <point x="401" y="404" type="curve" smooth="yes"/>
      <point x="401" y="386"/>
      <point x="372" y="357"/>
      <point x="313" y="315" type="curve" smooth="yes"/>
      <point x="255" y="274"/>
      <point x="185" y="233"/>
    </contour>
  </outline>
</glyph>
<glyph name="u1D013" format="2">
  <advance width="1044"/>
  <unicode hex="1D013"/>
  <note>
u1D013
</note>
  <outline>
    <contour>
      <point x="158" y="466" type="curve" smooth="yes"/>
      <point x="136" y="466" type="line" smooth="yes"/>
      <point x="115" y="466"/>
      <point x="104" y="459"/>
      <point x="104" y="446" type="curve" smooth="yes"/>
      <point x="104" y="403"/>
      <point x="221" y="298"/>
      <point x="340" y="251" type="curve" smooth="yes"/>
      <point x="399" y="228"/>
      <point x="466" y="217"/>
      <point x="541" y="217" type="curve" smooth="yes"/>
      <point x="677" y="217"/>
      <point x="855" y="301"/>
      <point x="941" y="418" type="curve"/>
      <point x="941" y="484" type="line"/>
      <point x="845" y="349"/>
      <point x="688" y="271"/>
      <point x="541" y="271" type="curve" smooth="yes"/>
      <point x="451" y="271"/>
      <point x="370" y="305"/>
      <point x="296" y="366" type="curve" smooth="yes"/>
      <point x="260" y="396"/>
      <point x="232" y="421"/>
      <point x="215" y="439" type="curve" smooth="yes"/>
      <point x="198" y="457"/>
      <point x="179" y="466"/>
    </contour>
  </outline>
</glyph>
<glyph name="u1D014" format="2">
  <advance width="604"/>
  <unicode hex="1D014"/>
  <note>
u1D014
</note>
  <outline>
    <contour>
      <point x="149" y="458" type="curve"/>
      <point x="158" y="458"/>
      <point x="172" y="465"/>
      <point x="175" y="475" type="curve"/>
      <point x="164" y="496" type="line"/>
      <point x="235" y="496" type="line"/>
      <point x="235" y="484" type="line" smooth="yes"/>
      <point x="235" y="381"/>
      <point x="263" y="330"/>
      <point x="318" y="330" type="curve" smooth="yes"/>
      <point x="373" y="330"/>
      <point x="401" y="381"/>
      <point x="401" y="484" type="curve" smooth="yes"/>
      <point x="401" y="496" type="line"/>
      <point x="494" y="496" type="line"/>
      <point x="499" y="521" type="line"/>
      <point x="397" y="521" type="line"/>
      <point x="389" y="607"/>
      <point x="354" y="672"/>
      <point x="318" y="672" type="curve" smooth="yes"/>
      <point x="282" y="672"/>
      <point x="244" y="601"/>
      <point x="236" y="521" type="curve"/>
      <point x="103" y="521" type="line"/>
      <point x="103" y="512"/>
      <point x="106" y="503"/>
      <point x="112" y="495" type="curve" smooth="yes"/>
      <point x="118" y="486"/>
      <point x="130" y="474"/>
    </contour>
    <contour>
      <point x="360" y="490" type="line" smooth="yes"/>
      <point x="360" y="427"/>
      <point x="346" y="395"/>
      <point x="318" y="395" type="curve" smooth="yes"/>
      <point x="290" y="395"/>
      <point x="276" y="427"/>
      <point x="276" y="490" type="curve" smooth="yes"/>
      <point x="276" y="496" type="line"/>
      <point x="360" y="496" type="line"/>
    </contour>
    <contour>
      <point x="276" y="521" type="line"/>
      <point x="279" y="549"/>
      <point x="285" y="573"/>
      <point x="293" y="592" type="curve" smooth="yes"/>
      <point x="301" y="611"/>
      <point x="310" y="620"/>
      <point x="318" y="620" type="curve" smooth="yes"/>
      <point x="326" y="620"/>
      <point x="334" y="611"/>
      <point x="342" y="592" type="curve" smooth="yes"/>
      <point x="350" y="573"/>
      <point x="354" y="549"/>
      <point x="355" y="521" type="curve"/>
    </contour>
  </outline>
</glyph>
<glyph name="u1D015" format="2">
  <advance width="619"/>
  <unicode hex="1D015"/>
  <note>
u1D015
</note>
  <outline>
    <contour>
      <point x="103" y="456" type="curve"/>
      <point x="141" y="475"/>
      <point x="175" y="484"/>
      <point x="208" y="484" type="curve" smooth="yes"/>
      <point x="259" y="484"/>
      <point x="292" y="464"/>
      <point x="318" y="396" type="curve" smooth="yes"/>
      <point x="354" y="301" type="line" smooth="yes"/>
      <point x="375" y="246"/>
      <point x="426" y="208"/>
      <point x="475" y="208" type="curve" smooth="yes"/>
      <point x="488" y="208"/>
      <point x="502" y="210"/>
      <point x="516" y="216" type="curve"/>
      <point x="463" y="230"/>
      <point x="422" y="266"/>
      <point x="403" y="320" type="curve" smooth="yes"/>
      <point x="373" y="404" type="line" smooth="yes"/>
      <point x="344" y="486"/>
      <point x="293" y="528"/>
      <point x="224" y="528" type="curve" smooth="yes"/>
      <point x="176" y="528"/>
      <point x="117" y="495"/>
    </contour>
    <contour>
      <point x="206" y="304" type="curve" smooth="yes"/>
      <point x="261" y="304"/>
      <point x="293" y="336"/>
      <point x="293" y="373" type="curve" smooth="yes"/>
      <point x="293" y="412"/>
      <point x="261" y="442"/>
      <point x="206" y="442" type="curve" smooth="yes"/>
      <point x="149" y="442"/>
      <point x="118" y="412"/>
      <point x="118" y="373" type="curve" smooth="yes"/>
      <point x="118" y="336"/>
      <point x="149" y="304"/>
    </contour>
    <contour>
      <point x="206" y="406" type="curve" smooth="yes"/>
      <point x="233" y="406"/>
      <point x="247" y="392"/>
      <point x="247" y="373" type="curve" smooth="yes"/>
      <point x="247" y="354"/>
      <point x="233" y="340"/>
      <point x="206" y="340" type="curve" smooth="yes"/>
      <point x="179" y="340"/>
      <point x="163" y="354"/>
      <point x="163" y="373" type="curve" smooth="yes"/>
      <point x="163" y="392"/>
      <point x="179" y="406"/>
    </contour>
  </outline>
</glyph>
<glyph name="u1D016" format="2">
  <advance width="517"/>
  <unicode hex="1D016"/>
  <note>
u1D016
</note>
  <outline>
    <contour>
      <point x="296" y="301" type="curve" smooth="yes"/>
      <point x="347" y="301"/>
      <point x="374" y="330"/>
      <point x="374" y="362" type="curve" smooth="yes"/>
      <point x="374" y="397"/>
      <point x="347" y="425"/>
      <point x="296" y="425" type="curve" smooth="yes"/>
      <point x="247" y="425"/>
      <point x="217" y="397"/>
      <point x="217" y="362" type="curve" smooth="yes"/>
      <point x="217" y="330"/>
      <point x="247" y="301"/>
    </contour>
    <contour>
      <point x="296" y="391" type="curve" smooth="yes"/>
      <point x="321" y="391"/>
      <point x="334" y="381"/>
      <point x="334" y="362" type="curve" smooth="yes"/>
      <point x="334" y="343"/>
      <point x="321" y="334"/>
      <point x="296" y="334" type="curve" smooth="yes"/>
      <point x="271" y="334"/>
      <point x="258" y="343"/>
      <point x="258" y="362" type="curve" smooth="yes"/>
      <point x="258" y="381"/>
      <point x="271" y="391"/>
    </contour>
    <contour>
      <point x="179" y="474" type="curve"/>
      <point x="390" y="469" type="line" smooth="yes"/>
      <point x="405" y="469"/>
      <point x="413" y="477"/>
      <point x="413" y="491" type="curve" smooth="yes"/>
      <point x="413" y="501"/>
      <point x="403" y="516"/>
      <point x="383" y="516" type="curve" smooth="yes"/>
      <point x="370" y="516"/>
      <point x="357" y="509"/>
      <point x="344" y="496" type="curve"/>
      <point x="103" y="516" type="line"/>
      <point x="109" y="469"/>
      <point x="109" y="415"/>
      <point x="109" y="391" type="curve" smooth="yes"/>
      <point x="107" y="294" type="line"/>
      <point x="114" y="287"/>
      <point x="127" y="283"/>
      <point x="146" y="283" type="curve" smooth="yes"/>
      <point x="173" y="283"/>
      <point x="187" y="292"/>
      <point x="187" y="311" type="curve" smooth="yes"/>
      <point x="187" y="317"/>
      <point x="185" y="327"/>
      <point x="180" y="342" type="curve" smooth="yes"/>
      <point x="175" y="357"/>
      <point x="173" y="375"/>
      <point x="173" y="396" type="curve" smooth="yes"/>
      <point x="173" y="432"/>
      <point x="175" y="458"/>
    </contour>
  </outline>
</glyph>
<glyph name="u1D017" format="2">
  <advance width="466"/>
  <unicode hex="1D017"/>
  <note>
u1D017
</note>
  <outline>
    <contour>
      <point x="128" y="467" type="curve"/>
      <point x="103" y="432" type="line"/>
      <point x="161" y="394"/>
      <point x="190" y="341"/>
      <point x="190" y="274" type="curve"/>
      <point x="235" y="268" type="line"/>
      <point x="251" y="325"/>
      <point x="304" y="377"/>
      <point x="361" y="408" type="curve"/>
      <point x="340" y="442" type="line"/>
      <point x="295" y="417"/>
      <point x="266" y="391"/>
      <point x="251" y="366" type="curve"/>
      <point x="272" y="455"/>
      <point x="282" y="551"/>
      <point x="282" y="654" type="curve"/>
      <point x="232" y="654" type="line"/>
      <point x="232" y="630" type="line" smooth="yes"/>
      <point x="232" y="549"/>
      <point x="224" y="465"/>
      <point x="208" y="377" type="curve"/>
      <point x="192" y="415"/>
      <point x="166" y="445"/>
    </contour>
  </outline>
</glyph>
<glyph name="u1D018" format="2">
  <advance width="511"/>
  <unicode hex="1D018"/>
  <note>
u1D018
</note>
  <outline>
    <contour>
      <point x="355" y="294" type="curve"/>
      <point x="408" y="294" type="line"/>
      <point x="395" y="310"/>
      <point x="379" y="328"/>
      <point x="362" y="347" type="curve" smooth="yes"/>
      <point x="344" y="367"/>
      <point x="325" y="385"/>
      <point x="302" y="404" type="curve"/>
      <point x="383" y="491" type="line"/>
      <point x="312" y="504" type="line"/>
      <point x="260" y="434" type="line"/>
      <point x="211" y="467"/>
      <point x="159" y="484"/>
      <point x="103" y="484" type="curve"/>
      <point x="103" y="425" type="line"/>
      <point x="145" y="425"/>
      <point x="187" y="414"/>
      <point x="228" y="391" type="curve"/>
      <point x="154" y="294" type="line"/>
      <point x="200" y="294" type="line"/>
      <point x="269" y="366" type="line"/>
      <point x="305" y="341"/>
      <point x="334" y="317"/>
    </contour>
  </outline>
</glyph>
<glyph name="u1D019" format="2">
  <advance width="664"/>
  <unicode hex="1D019"/>
  <note>
u1D019
</note>
  <outline>
    <contour>
      <point x="526" y="502" type="line"/>
      <point x="526" y="464"/>
      <point x="517" y="446"/>
      <point x="498" y="446" type="curve" smooth="yes"/>
      <point x="479" y="446"/>
      <point x="469" y="464"/>
      <point x="469" y="502" type="curve"/>
      <point x="434" y="502" type="line"/>
      <point x="434" y="489"/>
      <point x="437" y="474"/>
      <point x="442" y="456" type="curve"/>
      <point x="412" y="455" type="line"/>
      <point x="405" y="495"/>
      <point x="397" y="521"/>
      <point x="388" y="533" type="curve" smooth="yes"/>
      <point x="379" y="545"/>
      <point x="367" y="550"/>
      <point x="354" y="550" type="curve" smooth="yes"/>
      <point x="322" y="550"/>
      <point x="301" y="508"/>
      <point x="301" y="448" type="curve"/>
      <point x="218" y="442" type="line"/>
      <point x="230" y="456"/>
      <point x="236" y="473"/>
      <point x="236" y="494" type="curve" smooth="yes"/>
      <point x="236" y="540"/>
      <point x="219" y="562"/>
      <point x="185" y="562" type="curve" smooth="yes"/>
      <point x="167" y="562"/>
      <point x="152" y="554"/>
      <point x="142" y="539" type="curve" smooth="yes"/>
      <point x="132" y="524"/>
      <point x="129" y="500"/>
      <point x="127" y="456" type="curve" smooth="yes"/>
      <point x="125" y="409"/>
      <point x="117" y="326"/>
      <point x="103" y="262" type="curve"/>
      <point x="168" y="262"/>
      <point x="214" y="270"/>
      <point x="240" y="284" type="curve" smooth="yes"/>
      <point x="265" y="298"/>
      <point x="278" y="321"/>
      <point x="278" y="353" type="curve" smooth="yes"/>
      <point x="278" y="382"/>
      <point x="261" y="403"/>
      <point x="228" y="415" type="curve"/>
      <point x="301" y="422" type="line"/>
      <point x="301" y="370"/>
      <point x="322" y="336"/>
      <point x="354" y="336" type="curve" smooth="yes"/>
      <point x="387" y="336"/>
      <point x="412" y="381"/>
      <point x="412" y="432" type="curve"/>
      <point x="452" y="434" type="line"/>
      <point x="461" y="420"/>
      <point x="477" y="413"/>
      <point x="498" y="413" type="curve" smooth="yes"/>
      <point x="537" y="413"/>
      <point x="560" y="449"/>
      <point x="560" y="502" type="curve"/>
    </contour>
    <contour>
      <point x="152" y="302" type="curve"/>
      <point x="163" y="395" type="line"/>
      <point x="209" y="395"/>
      <point x="232" y="379"/>
      <point x="232" y="348" type="curve" smooth="yes"/>
      <point x="232" y="317"/>
      <point x="205" y="302"/>
    </contour>
    <contour>
      <point x="163" y="425" type="curve"/>
      <point x="166" y="485" type="line"/>
      <point x="166" y="502"/>
      <point x="172" y="511"/>
      <point x="185" y="511" type="curve" smooth="yes"/>
      <point x="198" y="511"/>
      <point x="204" y="501"/>
      <point x="204" y="481" type="curve" smooth="yes"/>
      <point x="204" y="458"/>
      <point x="180" y="433"/>
    </contour>
    <contour>
      <point x="382" y="430" type="line"/>
      <point x="378" y="396"/>
      <point x="369" y="380"/>
      <point x="354" y="380" type="curve" smooth="yes"/>
      <point x="338" y="380"/>
      <point x="330" y="395"/>
      <point x="330" y="425" type="curve"/>
    </contour>
    <contour>
      <point x="330" y="449" type="line"/>
      <point x="330" y="482"/>
      <point x="338" y="498"/>
      <point x="354" y="498" type="curve" smooth="yes"/>
      <point x="369" y="498"/>
      <point x="378" y="483"/>
      <point x="382" y="452" type="curve"/>
    </contour>
  </outline>
</glyph>
<glyph name="u1D01A" format="2">
  <advance width="646"/>
  <unicode hex="1D01A"/>
  <note>
u1D01A
</note>
  <outline>
    <contour>
      <point x="541" y="348" type="line"/>
      <point x="517" y="377" type="line"/>
      <point x="182" y="392" type="line" smooth="yes"/>
      <point x="165" y="393"/>
      <point x="154" y="393"/>
      <point x="151" y="393" type="curve" smooth="yes"/>
      <point x="122" y="393"/>
      <point x="103" y="385"/>
      <point x="103" y="372" type="curve" smooth="yes"/>
      <point x="103" y="353"/>
      <point x="131" y="330"/>
      <point x="166" y="330" type="curve" smooth="yes"/>
      <point x="176" y="330"/>
      <point x="187" y="332"/>
      <point x="200" y="337" type="curve" smooth="yes"/>
      <point x="212" y="342"/>
      <point x="229" y="344"/>
      <point x="252" y="344" type="curve" smooth="yes"/>
    </contour>
  </outline>
</glyph>
<glyph name="u1D01B" format="2">
  <advance width="323"/>
  <unicode hex="1D01B"/>
  <note>
u1D01B
</note>
  <outline>
    <contour>
      <point x="163" y="388" type="curve" smooth="yes"/>
      <point x="131" y="388"/>
      <point x="103" y="361"/>
      <point x="103" y="330" type="curve" smooth="yes"/>
      <point x="103" y="299"/>
      <point x="131" y="271"/>
      <point x="163" y="271" type="curve" smooth="yes"/>
      <point x="194" y="271"/>
      <point x="218" y="299"/>
      <point x="218" y="330" type="curve" smooth="yes"/>
      <point x="218" y="361"/>
      <point x="194" y="388"/>
    </contour>
  </outline>
</glyph>
<glyph name="u1D01C" format="2">
  <advance width="481"/>
  <unicode hex="1D01C"/>
  <note>
u1D01C
</note>
  <outline>
    <contour>
      <point x="163" y="388" type="curve" smooth="yes"/>
      <point x="131" y="388"/>
      <point x="103" y="361"/>
      <point x="103" y="330" type="curve" smooth="yes"/>
      <point x="103" y="299"/>
      <point x="131" y="271"/>
      <point x="163" y="271" type="curve" smooth="yes"/>
      <point x="194" y="271"/>
      <point x="218" y="299"/>
      <point x="218" y="330" type="curve" smooth="yes"/>
      <point x="218" y="361"/>
      <point x="194" y="388"/>
    </contour>
    <contour>
      <point x="319" y="469" type="curve" smooth="yes"/>
      <point x="288" y="469"/>
      <point x="260" y="444"/>
      <point x="260" y="413" type="curve" smooth="yes"/>
      <point x="260" y="382"/>
      <point x="288" y="354"/>
      <point x="319" y="354" type="curve" smooth="yes"/>
      <point x="353" y="354"/>
      <point x="377" y="382"/>
      <point x="377" y="413" type="curve" smooth="yes"/>
      <point x="377" y="444"/>
      <point x="353" y="469"/>
    </contour>
  </outline>
</glyph>
<glyph name="u1D01D" format="2">
  <advance width="571"/>
  <unicode hex="1D01D"/>
  <note>
u1D01D
</note>
  <outline>
    <contour>
      <point x="287" y="390" type="curve" smooth="yes"/>
      <point x="260" y="390"/>
      <point x="242" y="373"/>
      <point x="242" y="346" type="curve" smooth="yes"/>
      <point x="242" y="322"/>
      <point x="260" y="302"/>
      <point x="287" y="302" type="curve" smooth="yes"/>
      <point x="311" y="302"/>
      <point x="330" y="322"/>
      <point x="330" y="346" type="curve" smooth="yes"/>
      <point x="330" y="373"/>
      <point x="311" y="390"/>
    </contour>
    <contour>
      <point x="425" y="390" type="curve" smooth="yes"/>
      <point x="401" y="390"/>
      <point x="382" y="373"/>
      <point x="382" y="346" type="curve" smooth="yes"/>
      <point x="382" y="322"/>
      <point x="401" y="302"/>
      <point x="425" y="302" type="curve" smooth="yes"/>
      <point x="449" y="302"/>
      <point x="468" y="322"/>
      <point x="468" y="346" type="curve" smooth="yes"/>
      <point x="468" y="373"/>
      <point x="449" y="390"/>
    </contour>
    <contour>
      <point x="146" y="390" type="curve" smooth="yes"/>
      <point x="122" y="390"/>
      <point x="103" y="373"/>
      <point x="103" y="346" type="curve" smooth="yes"/>
      <point x="103" y="322"/>
      <point x="122" y="302"/>
      <point x="146" y="302" type="curve" smooth="yes"/>
      <point x="173" y="302"/>
      <point x="190" y="322"/>
      <point x="190" y="346" type="curve" smooth="yes"/>
      <point x="190" y="373"/>
      <point x="173" y="390"/>
    </contour>
  </outline>
</glyph>
<glyph name="u1D01E" format="2">
  <advance width="719"/>
  <unicode hex="1D01E"/>
  <note>
u1D01E
</note>
  <outline>
    <contour>
      <point x="276" y="416" type="line"/>
      <point x="314" y="460" type="line"/>
      <point x="334" y="448"/>
      <point x="351" y="434"/>
      <point x="365" y="418" type="curve"/>
      <point x="397" y="418" type="line"/>
      <point x="376" y="446"/>
      <point x="356" y="468"/>
      <point x="336" y="484" type="curve"/>
      <point x="380" y="530" type="line"/>
      <point x="344" y="539" type="line"/>
      <point x="308" y="504" type="line"/>
      <point x="281" y="519"/>
      <point x="248" y="530"/>
      <point x="209" y="535" type="curve"/>
      <point x="209" y="499" type="line"/>
      <point x="234" y="499"/>
      <point x="258" y="492"/>
      <point x="282" y="478" type="curve"/>
      <point x="228" y="426" type="line"/>
    </contour>
    <contour>
      <point x="240" y="236" type="line"/>
      <point x="266" y="226" type="line"/>
      <point x="297" y="284"/>
      <point x="334" y="318"/>
      <point x="388" y="329" type="curve" smooth="yes"/>
      <point x="415" y="334"/>
      <point x="463" y="339"/>
      <point x="522" y="343" type="curve" smooth="yes"/>
      <point x="585" y="347"/>
      <point x="614" y="375"/>
      <point x="614" y="425" type="curve" smooth="yes"/>
      <point x="614" y="469"/>
      <point x="597" y="491"/>
      <point x="562" y="491" type="curve" smooth="yes"/>
      <point x="542" y="491"/>
      <point x="521" y="478"/>
      <point x="521" y="455" type="curve" smooth="yes"/>
      <point x="521" y="431"/>
      <point x="544" y="425"/>
      <point x="551" y="425" type="curve" smooth="yes"/>
      <point x="558" y="425"/>
      <point x="562" y="419"/>
      <point x="562" y="412" type="curve" smooth="yes"/>
      <point x="562" y="396"/>
      <point x="542" y="388"/>
      <point x="503" y="388" type="curve" smooth="yes"/>
      <point x="474" y="388" type="line" smooth="yes"/>
      <point x="390" y="388"/>
      <point x="331" y="364"/>
      <point x="269" y="278" type="curve"/>
      <point x="268" y="366"/>
      <point x="250" y="401"/>
      <point x="188" y="401" type="curve" smooth="yes"/>
      <point x="139" y="401"/>
      <point x="103" y="371"/>
      <point x="103" y="343" type="curve" smooth="yes"/>
      <point x="103" y="322"/>
      <point x="112" y="312"/>
      <point x="131" y="312" type="curve" smooth="yes"/>
      <point x="140" y="312"/>
      <point x="152" y="318"/>
      <point x="165" y="333" type="curve" smooth="yes"/>
      <point x="178" y="348"/>
      <point x="188" y="355"/>
      <point x="197" y="355" type="curve" smooth="yes"/>
      <point x="224" y="355"/>
      <point x="240" y="307"/>
      <point x="240" y="248" type="curve" smooth="yes"/>
    </contour>
  </outline>
</glyph>
<glyph name="u1D01F" format="2">
  <advance width="613"/>
  <unicode hex="1D01F"/>
  <note>
u1D01F
</note>
  <outline>
    <contour>
      <point x="510" y="336" type="line"/>
      <point x="510" y="361" type="line"/>
      <point x="388" y="613" type="line"/>
      <point x="311" y="613" type="line"/>
      <point x="311" y="370" type="line"/>
      <point x="137" y="370" type="line"/>
      <point x="137" y="336" type="line"/>
      <point x="146" y="334" type="line" smooth="yes"/>
      <point x="165" y="330"/>
      <point x="174" y="316"/>
      <point x="174" y="294" type="curve" smooth="yes"/>
      <point x="174" y="262"/>
      <point x="150" y="229"/>
      <point x="103" y="193" type="curve"/>
      <point x="113" y="180" type="line"/>
      <point x="179" y="215"/>
      <point x="224" y="263"/>
      <point x="224" y="296" type="curve" smooth="yes"/>
      <point x="224" y="315"/>
      <point x="216" y="329"/>
      <point x="200" y="336" type="curve"/>
      <point x="311" y="336" type="line"/>
      <point x="311" y="193" type="line"/>
      <point x="366" y="193" type="line"/>
      <point x="366" y="336" type="line"/>
    </contour>
    <contour>
      <point x="366" y="568" type="line"/>
      <point x="463" y="370" type="line"/>
      <point x="366" y="370" type="line"/>
    </contour>
  </outline>
</glyph>
<glyph name="u1D020" format="2">
  <advance width="589"/>
  <unicode hex="1D020"/>
  <note>
u1D020
</note>
  <outline>
    <contour>
      <point x="190" y="301" type="line"/>
      <point x="198" y="293"/>
      <point x="207" y="289"/>
      <point x="216" y="289" type="curve" smooth="yes"/>
      <point x="229" y="289"/>
      <point x="243" y="295"/>
      <point x="257" y="310" type="curve" smooth="yes"/>
      <point x="485" y="547" type="line"/>
      <point x="478" y="554"/>
      <point x="469" y="558"/>
      <point x="458" y="558" type="curve" smooth="yes"/>
      <point x="443" y="558"/>
      <point x="430" y="551"/>
      <point x="418" y="538" type="curve" smooth="yes"/>
    </contour>
    <contour>
      <point x="103" y="319" type="line"/>
      <point x="111" y="311"/>
      <point x="120" y="307"/>
      <point x="129" y="307" type="curve" smooth="yes"/>
      <point x="142" y="307"/>
      <point x="153" y="315"/>
      <point x="167" y="329" type="curve" smooth="yes"/>
      <point x="397" y="568" type="line"/>
      <point x="391" y="573"/>
      <point x="382" y="576"/>
      <point x="369" y="576" type="curve" smooth="yes"/>
      <point x="358" y="576"/>
      <point x="344" y="570"/>
      <point x="331" y="556" type="curve" smooth="yes"/>
    </contour>
  </outline>
</glyph>
<glyph name="u1D021" format="2">
  <advance width="770"/>
  <unicode hex="1D021"/>
  <note>
u1D021
</note>
  <outline>
    <contour>
      <point x="388" y="491" type="line"/>
      <point x="397" y="452" type="line"/>
      <point x="446" y="448" type="line"/>
      <point x="454" y="429"/>
      <point x="458" y="404"/>
      <point x="458" y="373" type="curve" smooth="yes"/>
      <point x="458" y="351"/>
      <point x="455" y="320"/>
      <point x="448" y="280" type="curve"/>
      <point x="463" y="271" type="line"/>
      <point x="491" y="287"/>
      <point x="533" y="304"/>
      <point x="560" y="304" type="curve" smooth="yes"/>
      <point x="585" y="304"/>
      <point x="608" y="289"/>
      <point x="631" y="259" type="curve"/>
      <point x="667" y="288" type="line"/>
      <point x="658" y="312"/>
      <point x="617" y="343"/>
      <point x="582" y="343" type="curve" smooth="yes"/>
      <point x="560" y="343"/>
      <point x="532" y="334"/>
      <point x="499" y="318" type="curve"/>
      <point x="505" y="342"/>
      <point x="509" y="358"/>
      <point x="509" y="377" type="curve" smooth="yes"/>
      <point x="509" y="397"/>
      <point x="505" y="419"/>
      <point x="498" y="444" type="curve"/>
      <point x="510" y="444" type="line" smooth="yes"/>
      <point x="527" y="444"/>
      <point x="535" y="449"/>
      <point x="535" y="458" type="curve" smooth="yes"/>
      <point x="535" y="468"/>
      <point x="526" y="485"/>
      <point x="499" y="485" type="curve" smooth="yes"/>
      <point x="481" y="485" type="line"/>
      <point x="434" y="569"/>
      <point x="357" y="611"/>
      <point x="251" y="611" type="curve" smooth="yes"/>
      <point x="209" y="611"/>
      <point x="178" y="606"/>
      <point x="158" y="598" type="curve" smooth="yes"/>
      <point x="138" y="590"/>
      <point x="128" y="580"/>
      <point x="128" y="569" type="curve" smooth="yes"/>
      <point x="128" y="548"/>
      <point x="165" y="517"/>
      <point x="190" y="517" type="curve" smooth="yes"/>
      <point x="198" y="517"/>
      <point x="203" y="523"/>
      <point x="208" y="538" type="curve" smooth="yes"/>
      <point x="213" y="553"/>
      <point x="236" y="559"/>
      <point x="278" y="559" type="curve" smooth="yes"/>
      <point x="341" y="559"/>
      <point x="390" y="536"/>
      <point x="424" y="490" type="curve"/>
    </contour>
    <contour>
      <point x="425" y="208" type="line"/>
      <point x="418" y="252" type="line"/>
      <point x="188" y="469" type="line"/>
      <point x="179" y="490" type="line"/>
      <point x="161" y="500"/>
      <point x="142" y="506"/>
      <point x="121" y="506" type="curve" smooth="yes"/>
      <point x="109" y="506"/>
      <point x="103" y="502"/>
      <point x="103" y="494" type="curve" smooth="yes"/>
      <point x="103" y="480"/>
      <point x="122" y="454"/>
      <point x="136" y="442" type="curve" smooth="yes"/>
    </contour>
  </outline>
</glyph>
<glyph name="u1D022" format="2">
  <advance width="734"/>
  <unicode hex="1D022"/>
  <note>
u1D022
</note>
  <outline>
    <contour>
      <point x="591" y="344" type="curve" smooth="yes"/>
      <point x="611" y="344" type="line" smooth="yes"/>
      <point x="623" y="344"/>
      <point x="629" y="349"/>
      <point x="629" y="357" type="curve" smooth="yes"/>
      <point x="629" y="382"/>
      <point x="556" y="458"/>
      <point x="482" y="488" type="curve" smooth="yes"/>
      <point x="446" y="503"/>
      <point x="403" y="510"/>
      <point x="355" y="510" type="curve" smooth="yes"/>
      <point x="267" y="510"/>
      <point x="156" y="456"/>
      <point x="103" y="380" type="curve"/>
      <point x="103" y="336" type="line"/>
      <point x="156" y="418"/>
      <point x="252" y="474"/>
      <point x="355" y="474" type="curve" smooth="yes"/>
      <point x="412" y="474"/>
      <point x="459" y="448"/>
      <point x="512" y="406" type="curve" smooth="yes"/>
      <point x="527" y="394"/>
      <point x="540" y="381"/>
      <point x="549" y="371" type="curve" smooth="yes"/>
      <point x="564" y="354"/>
      <point x="576" y="344"/>
    </contour>
  </outline>
</glyph>
<glyph name="u1D023" format="2">
  <advance width="779"/>
  <unicode hex="1D023"/>
  <note>
u1D023
</note>
  <outline>
    <contour>
      <point x="149" y="446" type="curve" smooth="yes"/>
      <point x="124" y="446" type="line" smooth="yes"/>
      <point x="111" y="446"/>
      <point x="105" y="441"/>
      <point x="105" y="432" type="curve" smooth="yes"/>
      <point x="105" y="407"/>
      <point x="180" y="330"/>
      <point x="267" y="301" type="curve" smooth="yes"/>
      <point x="313" y="286"/>
      <point x="358" y="276"/>
      <point x="403" y="276" type="curve" smooth="yes"/>
      <point x="497" y="276"/>
      <point x="625" y="336"/>
      <point x="676" y="412" type="curve"/>
      <point x="676" y="455" type="line"/>
      <point x="631" y="383"/>
      <point x="547" y="336"/>
      <point x="463" y="319" type="curve"/>
      <point x="458" y="328"/>
      <point x="456" y="337"/>
      <point x="456" y="346" type="curve" smooth="yes"/>
      <point x="456" y="360"/>
      <point x="463" y="375"/>
      <point x="478" y="389" type="curve" smooth="yes"/>
      <point x="492" y="403"/>
      <point x="499" y="412"/>
      <point x="499" y="416" type="curve" smooth="yes"/>
      <point x="499" y="422"/>
      <point x="491" y="426"/>
      <point x="475" y="426" type="curve" smooth="yes"/>
      <point x="444" y="426"/>
      <point x="416" y="395"/>
      <point x="416" y="354" type="curve" smooth="yes"/>
      <point x="416" y="337"/>
      <point x="418" y="323"/>
      <point x="424" y="312" type="curve"/>
      <point x="377" y="312" type="line"/>
      <point x="384" y="331"/>
      <point x="388" y="348"/>
      <point x="388" y="362" type="curve" smooth="yes"/>
      <point x="388" y="403"/>
      <point x="361" y="434"/>
      <point x="330" y="434" type="curve" smooth="yes"/>
      <point x="313" y="434"/>
      <point x="304" y="431"/>
      <point x="304" y="425" type="curve" smooth="yes"/>
      <point x="304" y="421"/>
      <point x="307" y="417"/>
      <point x="311" y="413" type="curve" smooth="yes"/>
      <point x="336" y="388"/>
      <point x="348" y="368"/>
      <point x="348" y="354" type="curve" smooth="yes"/>
      <point x="348" y="344"/>
      <point x="345" y="333"/>
      <point x="340" y="323" type="curve"/>
      <point x="289" y="334"/>
      <point x="220" y="388"/>
      <point x="184" y="429" type="curve" smooth="yes"/>
      <point x="174" y="440"/>
      <point x="164" y="446"/>
    </contour>
  </outline>
</glyph>
<glyph name="u1D024" format="2">
  <advance width="467"/>
  <unicode hex="1D024"/>
  <note>
u1D024
</note>
  <outline>
    <contour>
      <point x="106" y="422" type="curve" smooth="yes"/>
      <point x="106" y="412" type="line"/>
      <point x="138" y="404"/>
      <point x="173" y="382"/>
      <point x="193" y="354" type="curve" smooth="yes"/>
      <point x="208" y="333"/>
      <point x="215" y="306"/>
      <point x="218" y="291" type="curve" smooth="yes"/>
      <point x="220" y="280"/>
      <point x="232" y="278"/>
      <point x="240" y="278" type="curve" smooth="yes"/>
      <point x="255" y="278"/>
      <point x="269" y="296"/>
      <point x="281" y="321" type="curve" smooth="yes"/>
      <point x="295" y="350"/>
      <point x="314" y="381"/>
      <point x="332" y="401" type="curve" smooth="yes"/>
      <point x="352" y="424"/>
      <point x="362" y="438"/>
      <point x="362" y="444" type="curve" smooth="yes"/>
      <point x="362" y="452"/>
      <point x="354" y="456"/>
      <point x="340" y="456" type="curve" smooth="yes"/>
      <point x="322" y="456"/>
      <point x="297" y="421"/>
      <point x="272" y="383" type="curve" smooth="yes"/>
      <point x="259" y="363"/>
      <point x="250" y="345"/>
      <point x="242" y="329" type="curve"/>
      <point x="240" y="401"/>
      <point x="160" y="466"/>
      <point x="135" y="466" type="curve" smooth="yes"/>
      <point x="130" y="466"/>
      <point x="126" y="465"/>
      <point x="124" y="462" type="curve" smooth="yes"/>
      <point x="111" y="452"/>
      <point x="106" y="440"/>
    </contour>
  </outline>
</glyph>
<glyph name="u1D025" format="2">
  <advance width="844"/>
  <unicode hex="1D025"/>
  <note>
u1D025
</note>
  <outline>
    <contour>
      <point x="200" y="552" type="line"/>
      <point x="132" y="546" type="line"/>
      <point x="119" y="490"/>
      <point x="103" y="397"/>
      <point x="103" y="374" type="curve" smooth="yes"/>
      <point x="103" y="299"/>
      <point x="131" y="271"/>
      <point x="179" y="271" type="curve" smooth="yes"/>
      <point x="210" y="271"/>
      <point x="238" y="293"/>
      <point x="261" y="333" type="curve" smooth="yes"/>
      <point x="274" y="355" type="line"/>
      <point x="274" y="348" type="line" smooth="yes"/>
      <point x="274" y="295"/>
      <point x="301" y="268"/>
      <point x="354" y="268" type="curve" smooth="yes"/>
      <point x="431" y="268"/>
      <point x="584" y="389"/>
      <point x="740" y="578" type="curve"/>
      <point x="733" y="578" type="line"/>
      <point x="659" y="498"/>
      <point x="457" y="301"/>
      <point x="372" y="301" type="curve" smooth="yes"/>
      <point x="348" y="301"/>
      <point x="330" y="323"/>
      <point x="330" y="355" type="curve" smooth="yes"/>
      <point x="330" y="373"/>
      <point x="332" y="392"/>
      <point x="336" y="412" type="curve"/>
      <point x="268" y="404" type="line"/>
      <point x="246" y="359"/>
      <point x="230" y="331"/>
      <point x="221" y="319" type="curve" smooth="yes"/>
      <point x="212" y="307"/>
      <point x="202" y="302"/>
      <point x="193" y="302" type="curve" smooth="yes"/>
      <point x="175" y="302"/>
      <point x="166" y="321"/>
      <point x="166" y="360" type="curve" smooth="yes"/>
      <point x="166" y="398"/>
      <point x="176" y="454"/>
      <point x="194" y="526" type="curve" smooth="yes"/>
    </contour>
  </outline>
</glyph>
<glyph name="u1D026" format="2">
  <advance width="581"/>
  <unicode hex="1D026"/>
  <note>
u1D026
</note>
  <outline>
    <contour>
      <point x="432" y="232" type="line"/>
      <point x="383" y="174" type="line"/>
      <point x="382" y="174" type="line"/>
      <point x="467" y="418" type="line"/>
      <point x="257" y="438" type="line"/>
      <point x="257" y="418" type="line"/>
      <point x="266" y="412"/>
      <point x="276" y="400"/>
      <point x="287" y="383" type="curve"/>
      <point x="270" y="375"/>
      <point x="250" y="370"/>
      <point x="228" y="370" type="curve" smooth="yes"/>
      <point x="200" y="370"/>
      <point x="173" y="412"/>
      <point x="173" y="448" type="curve" smooth="yes"/>
      <point x="173" y="522"/>
      <point x="250" y="568"/>
      <point x="383" y="571" type="curve"/>
      <point x="383" y="588" type="line"/>
      <point x="370" y="591"/>
      <point x="350" y="593"/>
      <point x="323" y="593" type="curve" smooth="yes"/>
      <point x="206" y="593"/>
      <point x="103" y="537"/>
      <point x="103" y="463" type="curve" smooth="yes"/>
      <point x="103" y="398"/>
      <point x="186" y="336"/>
      <point x="242" y="336" type="curve" smooth="yes"/>
      <point x="264" y="336"/>
      <point x="284" y="339"/>
      <point x="303" y="346" type="curve" smooth="yes"/>
      <point x="322" y="353"/>
      <point x="331" y="359"/>
      <point x="331" y="365" type="curve" smooth="yes"/>
      <point x="331" y="371"/>
      <point x="324" y="381"/>
      <point x="311" y="396" type="curve"/>
      <point x="396" y="380" type="line"/>
      <point x="360" y="251"/>
      <point x="341" y="179"/>
      <point x="339" y="170" type="curve" smooth="yes"/>
      <point x="337" y="159"/>
      <point x="336" y="150"/>
      <point x="336" y="146" type="curve" smooth="yes"/>
      <point x="336" y="137"/>
      <point x="352" y="131"/>
      <point x="361" y="131" type="curve" smooth="yes"/>
      <point x="367" y="131"/>
      <point x="381" y="139"/>
      <point x="401" y="156" type="curve" smooth="yes"/>
      <point x="476" y="222" type="line"/>
    </contour>
  </outline>
</glyph>
<glyph name="u1D027" format="2">
  <advance width="899"/>
  <unicode hex="1D027"/>
  <note>
u1D027
</note>
  <outline>
    <contour>
      <point x="217" y="481" type="curve" smooth="yes"/>
      <point x="162" y="481"/>
      <point x="103" y="448"/>
      <point x="103" y="416" type="curve" smooth="yes"/>
      <point x="103" y="388"/>
      <point x="129" y="366"/>
      <point x="149" y="366" type="curve" smooth="yes"/>
      <point x="166" y="366"/>
      <point x="174" y="374"/>
      <point x="174" y="388" type="curve" smooth="yes"/>
      <point x="174" y="395"/>
      <point x="170" y="401"/>
      <point x="164" y="408" type="curve"/>
      <point x="179" y="420"/>
      <point x="200" y="426"/>
      <point x="228" y="426" type="curve" smooth="yes"/>
      <point x="265" y="426"/>
      <point x="291" y="392"/>
      <point x="293" y="336" type="curve"/>
      <point x="270" y="322"/>
      <point x="250" y="289"/>
      <point x="250" y="269" type="curve" smooth="yes"/>
      <point x="250" y="247"/>
      <point x="257" y="236"/>
      <point x="271" y="236" type="curve" smooth="yes"/>
      <point x="304" y="236"/>
      <point x="332" y="270"/>
      <point x="332" y="313" type="curve" smooth="yes"/>
      <point x="332" y="317"/>
      <point x="332" y="321"/>
      <point x="331" y="325" type="curve"/>
      <point x="344" y="338"/>
      <point x="366" y="346"/>
      <point x="397" y="344" type="curve" smooth="yes"/>
      <point x="575" y="334" type="line" smooth="yes"/>
      <point x="692" y="327"/>
      <point x="787" y="399"/>
      <point x="794" y="491" type="curve"/>
      <point x="736" y="485" type="line"/>
      <point x="718" y="417"/>
      <point x="660" y="374"/>
      <point x="589" y="377" type="curve" smooth="yes"/>
      <point x="441" y="383" type="line" smooth="yes"/>
      <point x="401" y="385"/>
      <point x="361" y="375"/>
      <point x="329" y="360" type="curve"/>
      <point x="319" y="438"/>
      <point x="279" y="481"/>
    </contour>
  </outline>
</glyph>
<glyph name="u1D028" format="2">
  <advance width="1038"/>
  <unicode hex="1D028"/>
  <note>
u1D028
</note>
  <outline>
    <contour>
      <point x="496" y="511" type="curve"/>
      <point x="468" y="499" type="line"/>
      <point x="467" y="493"/>
      <point x="467" y="487"/>
      <point x="467" y="481" type="curve" smooth="yes"/>
      <point x="467" y="458"/>
      <point x="475" y="439"/>
      <point x="490" y="425" type="curve"/>
      <point x="490" y="377"/>
      <point x="455" y="346"/>
      <point x="404" y="346" type="curve" smooth="yes"/>
      <point x="373" y="346"/>
      <point x="353" y="353"/>
      <point x="343" y="365" type="curve"/>
      <point x="337" y="392"/>
      <point x="327" y="415"/>
      <point x="312" y="434" type="curve"/>
      <point x="287" y="424" type="line"/>
      <point x="285" y="418"/>
      <point x="283" y="412"/>
      <point x="283" y="404" type="curve" smooth="yes"/>
      <point x="283" y="380"/>
      <point x="292" y="361"/>
      <point x="308" y="348" type="curve"/>
      <point x="308" y="296"/>
      <point x="264" y="259"/>
      <point x="200" y="259" type="curve" smooth="yes"/>
      <point x="162" y="259"/>
      <point x="139" y="276"/>
      <point x="132" y="311" type="curve"/>
      <point x="114" y="301"/>
      <point x="103" y="276"/>
      <point x="103" y="260" type="curve" smooth="yes"/>
      <point x="103" y="224"/>
      <point x="146" y="209"/>
      <point x="199" y="209" type="curve" smooth="yes"/>
      <point x="271" y="209"/>
      <point x="330" y="249"/>
      <point x="340" y="310" type="curve"/>
      <point x="351" y="304"/>
      <point x="372" y="301"/>
      <point x="403" y="301" type="curve" smooth="yes"/>
      <point x="466" y="301"/>
      <point x="509" y="333"/>
      <point x="521" y="380" type="curve"/>
      <point x="535" y="375"/>
      <point x="555" y="372"/>
      <point x="581" y="372" type="curve" smooth="yes"/>
      <point x="649" y="372"/>
      <point x="697" y="409"/>
      <point x="703" y="468" type="curve"/>
      <point x="715" y="459"/>
      <point x="734" y="455"/>
      <point x="761" y="455" type="curve" smooth="yes"/>
      <point x="851" y="455"/>
      <point x="935" y="572"/>
      <point x="935" y="691" type="curve"/>
      <point x="923" y="691" type="line"/>
      <point x="888" y="587"/>
      <point x="818" y="509"/>
      <point x="763" y="509" type="curve" smooth="yes"/>
      <point x="708" y="509"/>
      <point x="687" y="540"/>
      <point x="674" y="582" type="curve"/>
      <point x="647" y="570" type="line"/>
      <point x="646" y="563"/>
      <point x="646" y="557"/>
      <point x="646" y="550" type="curve" smooth="yes"/>
      <point x="646" y="526"/>
      <point x="653" y="508"/>
      <point x="667" y="496" type="curve"/>
      <point x="667" y="451"/>
      <point x="634" y="416"/>
      <point x="582" y="416" type="curve" smooth="yes"/>
      <point x="565" y="416"/>
      <point x="547" y="419"/>
      <point x="527" y="426" type="curve"/>
      <point x="525" y="449"/>
      <point x="515" y="478"/>
    </contour>
  </outline>
</glyph>
<glyph name="u1D029" format="2">
  <advance width="934"/>
  <unicode hex="1D029"/>
  <note>
u1D029
</note>
  <outline>
    <contour>
      <point x="103" y="282" type="line"/>
      <point x="112" y="282" type="line" smooth="yes"/>
      <point x="227" y="282"/>
      <point x="318" y="330"/>
      <point x="318" y="404" type="curve" smooth="yes"/>
      <point x="318" y="438"/>
      <point x="293" y="460"/>
      <point x="252" y="460" type="curve" smooth="yes"/>
      <point x="218" y="460"/>
      <point x="187" y="444"/>
      <point x="187" y="416" type="curve" smooth="yes"/>
      <point x="187" y="396"/>
      <point x="210" y="386"/>
      <point x="224" y="386" type="curve" smooth="yes"/>
      <point x="230" y="386"/>
      <point x="236" y="388"/>
      <point x="242" y="390" type="curve"/>
      <point x="246" y="384"/>
      <point x="248" y="378"/>
      <point x="248" y="373" type="curve" smooth="yes"/>
      <point x="248" y="340"/>
      <point x="175" y="305"/>
      <point x="103" y="302" type="curve"/>
    </contour>
    <contour>
      <point x="809" y="697" type="line"/>
      <point x="562" y="487" type="line"/>
      <point x="518" y="521"/>
      <point x="489" y="539"/>
      <point x="474" y="539" type="curve" smooth="yes"/>
      <point x="458" y="539"/>
      <point x="443" y="527"/>
      <point x="443" y="510" type="curve" smooth="yes"/>
      <point x="443" y="501"/>
      <point x="447" y="495"/>
      <point x="455" y="490" type="curve" smooth="yes"/>
      <point x="518" y="449" type="line" smooth="yes"/>
      <point x="528" y="442"/>
      <point x="538" y="440"/>
      <point x="548" y="440" type="curve" smooth="yes"/>
      <point x="563" y="440"/>
      <point x="577" y="447"/>
      <point x="590" y="460" type="curve" smooth="yes"/>
      <point x="829" y="697" type="line"/>
    </contour>
    <contour>
      <point x="526" y="235" type="line"/>
      <point x="518" y="276" type="line"/>
      <point x="430" y="383" type="line"/>
      <point x="425" y="401" type="line"/>
      <point x="408" y="410"/>
      <point x="394" y="415"/>
      <point x="382" y="415" type="curve" smooth="yes"/>
      <point x="360" y="415"/>
      <point x="349" y="408"/>
      <point x="349" y="394" type="curve" smooth="yes"/>
      <point x="349" y="383"/>
      <point x="356" y="371"/>
      <point x="370" y="360" type="curve" smooth="yes"/>
    </contour>
    <contour>
      <point x="641" y="235" type="line"/>
      <point x="634" y="276" type="line"/>
      <point x="546" y="383" type="line"/>
      <point x="541" y="401" type="line"/>
      <point x="522" y="410"/>
      <point x="508" y="415"/>
      <point x="498" y="415" type="curve" smooth="yes"/>
      <point x="476" y="415"/>
      <point x="465" y="408"/>
      <point x="465" y="393" type="curve" smooth="yes"/>
      <point x="465" y="382"/>
      <point x="471" y="371"/>
      <point x="485" y="360" type="curve" smooth="yes"/>
    </contour>
  </outline>
</glyph>
<glyph name="u1D02A" format="2">
  <advance width="1002"/>
  <unicode hex="1D02A"/>
  <note>
u1D02A
</note>
  <outline>
    <contour>
      <point x="516" y="412" type="curve"/>
      <point x="516" y="416" type="line"/>
      <point x="531" y="431"/>
      <point x="559" y="439"/>
      <point x="598" y="439" type="curve" smooth="yes"/>
      <point x="654" y="439"/>
      <point x="698" y="402"/>
      <point x="698" y="370" type="curve" smooth="yes"/>
      <point x="698" y="312"/>
      <point x="633" y="280"/>
      <point x="535" y="280" type="curve" smooth="yes"/>
      <point x="511" y="280"/>
      <point x="477" y="283"/>
      <point x="434" y="288" type="curve" smooth="yes"/>
      <point x="390" y="293"/>
      <point x="350" y="296"/>
      <point x="311" y="296" type="curve" smooth="yes"/>
      <point x="238" y="296"/>
      <point x="169" y="285"/>
      <point x="103" y="262" type="curve"/>
      <point x="114" y="242" type="line"/>
      <point x="171" y="253"/>
      <point x="236" y="259"/>
      <point x="310" y="259" type="curve" smooth="yes"/>
      <point x="350" y="259"/>
      <point x="390" y="254"/>
      <point x="431" y="244" type="curve" smooth="yes"/>
      <point x="472" y="234"/>
      <point x="507" y="228"/>
      <point x="538" y="228" type="curve" smooth="yes"/>
      <point x="587" y="228"/>
      <point x="646" y="235"/>
      <point x="703" y="282" type="curve"/>
      <point x="703" y="265" type="line" smooth="yes"/>
      <point x="703" y="234"/>
      <point x="727" y="210"/>
      <point x="768" y="210" type="curve" smooth="yes"/>
      <point x="800" y="210"/>
      <point x="818" y="228"/>
      <point x="821" y="259" type="curve"/>
      <point x="827" y="259" type="line"/>
      <point x="829" y="224"/>
      <point x="846" y="206"/>
      <point x="878" y="206" type="curve" smooth="yes"/>
      <point x="887" y="206"/>
      <point x="895" y="209"/>
      <point x="899" y="216" type="curve"/>
      <point x="844" y="338" type="line"/>
      <point x="805" y="348" type="line"/>
      <point x="798" y="289"/>
      <point x="785" y="259"/>
      <point x="766" y="259" type="curve" smooth="yes"/>
      <point x="751" y="259"/>
      <point x="743" y="275"/>
      <point x="743" y="308" type="curve" smooth="yes"/>
      <point x="743" y="315"/>
      <point x="744" y="324"/>
      <point x="747" y="335" type="curve" smooth="yes"/>
      <point x="749" y="344"/>
      <point x="750" y="358"/>
      <point x="750" y="374" type="curve" smooth="yes"/>
      <point x="750" y="447"/>
      <point x="691" y="490"/>
      <point x="588" y="490" type="curve" smooth="yes"/>
      <point x="551" y="490"/>
      <point x="520" y="484"/>
      <point x="493" y="473" type="curve" smooth="yes"/>
      <point x="466" y="462"/>
      <point x="452" y="450"/>
      <point x="452" y="439" type="curve" smooth="yes"/>
      <point x="452" y="433"/>
      <point x="455" y="427"/>
      <point x="459" y="422" type="curve" smooth="yes"/>
      <point x="464" y="417"/>
      <point x="466" y="415"/>
      <point x="466" y="413" type="curve" smooth="yes"/>
      <point x="466" y="411"/>
      <point x="464" y="409"/>
      <point x="462" y="407" type="curve" smooth="yes"/>
      <point x="459" y="406"/>
      <point x="458" y="403"/>
      <point x="458" y="401" type="curve" smooth="yes"/>
      <point x="458" y="389"/>
      <point x="491" y="373"/>
      <point x="509" y="373" type="curve" smooth="yes"/>
      <point x="528" y="373"/>
      <point x="538" y="380"/>
      <point x="538" y="395" type="curve" smooth="yes"/>
      <point x="538" y="406"/>
      <point x="531" y="412"/>
    </contour>
  </outline>
</glyph>
<glyph name="u1D02B" format="2">
  <advance width="1207"/>
  <unicode hex="1D02B"/>
  <note>
u1D02B
</note>
  <outline>
    <contour>
      <point x="476" y="365" type="line"/>
      <point x="476" y="388" type="line"/>
      <point x="365" y="620" type="line"/>
      <point x="294" y="620" type="line"/>
      <point x="294" y="396" type="line"/>
      <point x="136" y="396" type="line"/>
      <point x="136" y="365" type="line"/>
      <point x="157" y="358"/>
      <point x="167" y="346"/>
      <point x="167" y="329" type="curve" smooth="yes"/>
      <point x="167" y="297"/>
      <point x="146" y="266"/>
      <point x="103" y="235" type="curve"/>
      <point x="113" y="222" type="line"/>
      <point x="177" y="255"/>
      <point x="215" y="300"/>
      <point x="215" y="329" type="curve" smooth="yes"/>
      <point x="215" y="341"/>
      <point x="208" y="353"/>
      <point x="193" y="365" type="curve"/>
      <point x="294" y="365" type="line"/>
      <point x="294" y="235" type="line"/>
      <point x="319" y="235" type="line"/>
      <point x="383" y="251"/>
      <point x="449" y="259"/>
      <point x="516" y="259" type="curve" smooth="yes"/>
      <point x="551" y="259"/>
      <point x="589" y="254"/>
      <point x="632" y="244" type="curve" smooth="yes"/>
      <point x="675" y="234"/>
      <point x="712" y="228"/>
      <point x="743" y="228" type="curve" smooth="yes"/>
      <point x="801" y="228"/>
      <point x="852" y="238"/>
      <point x="908" y="282" type="curve"/>
      <point x="908" y="265" type="line" smooth="yes"/>
      <point x="908" y="234"/>
      <point x="932" y="210"/>
      <point x="973" y="210" type="curve" smooth="yes"/>
      <point x="1004" y="210"/>
      <point x="1022" y="226"/>
      <point x="1027" y="259" type="curve"/>
      <point x="1030" y="259" type="line"/>
      <point x="1036" y="224"/>
      <point x="1053" y="206"/>
      <point x="1081" y="206" type="curve" smooth="yes"/>
      <point x="1091" y="206"/>
      <point x="1099" y="209"/>
      <point x="1103" y="216" type="curve"/>
      <point x="1049" y="338" type="line"/>
      <point x="1009" y="348" type="line"/>
      <point x="1007" y="321"/>
      <point x="1002" y="299"/>
      <point x="995" y="283" type="curve" smooth="yes"/>
      <point x="988" y="267"/>
      <point x="979" y="259"/>
      <point x="971" y="259" type="curve" smooth="yes"/>
      <point x="956" y="259"/>
      <point x="948" y="275"/>
      <point x="948" y="308" type="curve" smooth="yes"/>
      <point x="948" y="315"/>
      <point x="949" y="323"/>
      <point x="952" y="335" type="curve" smooth="yes"/>
      <point x="955" y="347"/>
      <point x="956" y="358"/>
      <point x="956" y="374" type="curve" smooth="yes"/>
      <point x="956" y="444"/>
      <point x="897" y="490"/>
      <point x="792" y="490" type="curve" smooth="yes"/>
      <point x="755" y="490"/>
      <point x="723" y="484"/>
      <point x="696" y="473" type="curve" smooth="yes"/>
      <point x="669" y="462"/>
      <point x="656" y="450"/>
      <point x="656" y="439" type="curve" smooth="yes"/>
      <point x="656" y="433"/>
      <point x="658" y="428"/>
      <point x="664" y="422" type="curve" smooth="yes"/>
      <point x="668" y="418"/>
      <point x="671" y="415"/>
      <point x="671" y="413" type="curve" smooth="yes"/>
      <point x="671" y="411"/>
      <point x="670" y="409"/>
      <point x="667" y="407" type="curve" smooth="yes"/>
      <point x="665" y="406"/>
      <point x="664" y="403"/>
      <point x="664" y="401" type="curve" smooth="yes"/>
      <point x="664" y="389"/>
      <point x="694" y="373"/>
      <point x="714" y="373" type="curve" smooth="yes"/>
      <point x="733" y="373"/>
      <point x="743" y="380"/>
      <point x="743" y="395" type="curve" smooth="yes"/>
      <point x="743" y="406"/>
      <point x="735" y="412"/>
      <point x="719" y="412" type="curve"/>
      <point x="719" y="416" type="line"/>
      <point x="729" y="426"/>
      <point x="758" y="439"/>
      <point x="802" y="439" type="curve" smooth="yes"/>
      <point x="860" y="439"/>
      <point x="905" y="401"/>
      <point x="905" y="370" type="curve" smooth="yes"/>
      <point x="905" y="314"/>
      <point x="840" y="280"/>
      <point x="740" y="280" type="curve" smooth="yes"/>
      <point x="714" y="280"/>
      <point x="680" y="283"/>
      <point x="638" y="288" type="curve" smooth="yes"/>
      <point x="595" y="293"/>
      <point x="555" y="296"/>
      <point x="517" y="296" type="curve" smooth="yes"/>
      <point x="457" y="296"/>
      <point x="400" y="287"/>
      <point x="346" y="269" type="curve"/>
      <point x="346" y="365" type="line"/>
    </contour>
    <contour>
      <point x="346" y="577" type="line"/>
      <point x="433" y="396" type="line"/>
      <point x="346" y="396" type="line"/>
    </contour>
  </outline>
</glyph>
<glyph name="u1D02C" format="2">
  <advance width="971"/>
  <unicode hex="1D02C"/>
  <note>
u1D02C
</note>
  <outline>
    <contour>
      <point x="850" y="629" type="line"/>
      <point x="502" y="348" type="line" smooth="yes"/>
      <point x="468" y="321"/>
      <point x="442" y="308"/>
      <point x="425" y="308" type="curve" smooth="yes"/>
      <point x="409" y="308"/>
      <point x="401" y="324"/>
      <point x="401" y="355" type="curve" smooth="yes"/>
      <point x="401" y="372" type="line" smooth="yes"/>
      <point x="401" y="383"/>
      <point x="391" y="388"/>
      <point x="370" y="388" type="curve" smooth="yes"/>
      <point x="339" y="388"/>
      <point x="330" y="375"/>
      <point x="330" y="352" type="curve" smooth="yes"/>
      <point x="330" y="343" type="line"/>
      <point x="319" y="292"/>
      <point x="298" y="261"/>
      <point x="268" y="250" type="curve"/>
      <point x="250" y="306"/>
      <point x="217" y="346"/>
      <point x="174" y="346" type="curve" smooth="yes"/>
      <point x="131" y="346"/>
      <point x="103" y="320"/>
      <point x="103" y="283" type="curve" smooth="yes"/>
      <point x="103" y="244"/>
      <point x="155" y="204"/>
      <point x="230" y="204" type="curve" smooth="yes"/>
      <point x="251" y="204" type="line"/>
      <point x="260" y="171"/>
      <point x="266" y="144"/>
      <point x="268" y="121" type="curve"/>
      <point x="282" y="144" type="line"/>
      <point x="282" y="171"/>
      <point x="280" y="193"/>
      <point x="276" y="209" type="curve"/>
      <point x="314" y="224"/>
      <point x="341" y="251"/>
      <point x="355" y="293" type="curve"/>
      <point x="378" y="271"/>
      <point x="402" y="260"/>
      <point x="425" y="260" type="curve" smooth="yes"/>
      <point x="448" y="260"/>
      <point x="475" y="271"/>
      <point x="502" y="296" type="curve" smooth="yes"/>
      <point x="866" y="629" type="line"/>
    </contour>
    <contour>
      <point x="156" y="282" type="curve" smooth="yes"/>
      <point x="156" y="297"/>
      <point x="164" y="304"/>
      <point x="180" y="304" type="curve" smooth="yes"/>
      <point x="202" y="304"/>
      <point x="222" y="283"/>
      <point x="239" y="240" type="curve"/>
      <point x="224" y="240" type="line" smooth="yes"/>
      <point x="179" y="240"/>
      <point x="156" y="266"/>
    </contour>
  </outline>
</glyph>
<glyph name="u1D02D" format="2">
  <advance width="958"/>
  <unicode hex="1D02D"/>
  <note>
u1D02D
</note>
  <outline>
    <contour>
      <point x="463" y="439" type="curve"/>
      <point x="372" y="439" type="line"/>
      <point x="364" y="498"/>
      <point x="338" y="577"/>
      <point x="300" y="577" type="curve" smooth="yes"/>
      <point x="267" y="577"/>
      <point x="232" y="518"/>
      <point x="224" y="439" type="curve"/>
      <point x="103" y="439" type="line"/>
      <point x="103" y="402"/>
      <point x="117" y="372"/>
      <point x="146" y="348" type="curve"/>
      <point x="155" y="348"/>
      <point x="164" y="355"/>
      <point x="173" y="370" type="curve"/>
      <point x="167" y="382"/>
      <point x="164" y="394"/>
      <point x="164" y="406" type="curve"/>
      <point x="222" y="406" type="line"/>
      <point x="222" y="311"/>
      <point x="244" y="266"/>
      <point x="300" y="266" type="curve" smooth="yes"/>
      <point x="349" y="266"/>
      <point x="373" y="313"/>
      <point x="373" y="406" type="curve"/>
      <point x="413" y="406" type="line"/>
      <point x="417" y="352"/>
      <point x="444" y="319"/>
      <point x="487" y="319" type="curve" smooth="yes"/>
      <point x="530" y="319"/>
      <point x="562" y="352"/>
      <point x="578" y="406" type="curve"/>
      <point x="578" y="401" type="line" smooth="yes"/>
      <point x="578" y="354"/>
      <point x="591" y="331"/>
      <point x="650" y="331" type="curve" smooth="yes"/>
      <point x="702" y="331"/>
      <point x="773" y="369"/>
      <point x="830" y="424" type="curve"/>
      <point x="829" y="426" type="line"/>
      <point x="769" y="382"/>
      <point x="711" y="360"/>
      <point x="655" y="360" type="curve" smooth="yes"/>
      <point x="622" y="360"/>
      <point x="614" y="377"/>
      <point x="614" y="412" type="curve" smooth="yes"/>
      <point x="614" y="423"/>
      <point x="617" y="437"/>
      <point x="624" y="455" type="curve"/>
      <point x="617" y="456"/>
      <point x="607" y="456"/>
      <point x="600" y="456" type="curve" smooth="yes"/>
      <point x="581" y="456"/>
      <point x="556" y="455"/>
      <point x="551" y="435" type="curve" smooth="yes"/>
      <point x="545" y="411" type="line" smooth="yes"/>
      <point x="536" y="374"/>
      <point x="521" y="355"/>
      <point x="502" y="355" type="curve" smooth="yes"/>
      <point x="475" y="355"/>
      <point x="460" y="382"/>
      <point x="460" y="413" type="curve" smooth="yes"/>
      <point x="460" y="419"/>
      <point x="461" y="428"/>
    </contour>
    <contour>
      <point x="467" y="546" type="curve"/>
      <point x="467" y="577"/>
      <point x="488" y="593"/>
      <point x="530" y="593" type="curve" smooth="yes"/>
      <point x="550" y="593"/>
      <point x="564" y="589"/>
      <point x="572" y="581" type="curve" smooth="yes"/>
      <point x="581" y="572"/>
      <point x="584" y="565"/>
      <point x="584" y="560" type="curve" smooth="yes"/>
      <point x="584" y="555"/>
      <point x="583" y="549"/>
      <point x="579" y="543" type="curve" smooth="yes"/>
      <point x="576" y="538"/>
      <point x="574" y="532"/>
      <point x="574" y="527" type="curve" smooth="yes"/>
      <point x="574" y="515"/>
      <point x="583" y="509"/>
      <point x="599" y="509" type="curve" smooth="yes"/>
      <point x="610" y="509"/>
      <point x="626" y="514"/>
      <point x="638" y="525" type="curve" smooth="yes"/>
      <point x="659" y="544"/>
      <point x="682" y="563"/>
      <point x="707" y="572" type="curve" smooth="yes"/>
      <point x="732" y="581"/>
      <point x="755" y="588"/>
      <point x="776" y="588" type="curve" smooth="yes"/>
      <point x="795" y="588"/>
      <point x="802" y="582"/>
      <point x="809" y="573" type="curve" smooth="yes"/>
      <point x="818" y="561"/>
      <point x="819" y="556"/>
      <point x="833" y="556" type="curve" smooth="yes"/>
      <point x="847" y="556"/>
      <point x="854" y="564"/>
      <point x="854" y="581" type="curve" smooth="yes"/>
      <point x="854" y="604"/>
      <point x="825" y="624"/>
      <point x="785" y="624" type="curve" smooth="yes"/>
      <point x="734" y="624"/>
      <point x="663" y="593"/>
      <point x="622" y="560" type="curve"/>
      <point x="623" y="565"/>
      <point x="623" y="570"/>
      <point x="623" y="575" type="curve" smooth="yes"/>
      <point x="622" y="611"/>
      <point x="591" y="629"/>
      <point x="528" y="629" type="curve" smooth="yes"/>
      <point x="471" y="629"/>
      <point x="415" y="597"/>
      <point x="415" y="569" type="curve" smooth="yes"/>
      <point x="415" y="554"/>
      <point x="432" y="546"/>
    </contour>
    <contour>
      <point x="336" y="406" type="line"/>
      <point x="334" y="351"/>
      <point x="322" y="323"/>
      <point x="300" y="323" type="curve" smooth="yes"/>
      <point x="273" y="323"/>
      <point x="260" y="351"/>
      <point x="260" y="406" type="curve"/>
    </contour>
    <contour>
      <point x="260" y="439" type="line"/>
      <point x="263" y="465"/>
      <point x="268" y="486"/>
      <point x="276" y="503" type="curve" smooth="yes"/>
      <point x="284" y="520"/>
      <point x="292" y="528"/>
      <point x="300" y="528" type="curve" smooth="yes"/>
      <point x="306" y="528"/>
      <point x="312" y="520"/>
      <point x="320" y="503" type="curve" smooth="yes"/>
      <point x="328" y="486"/>
      <point x="332" y="465"/>
      <point x="334" y="439" type="curve"/>
    </contour>
  </outline>
</glyph>
<glyph name="u1D02E" format="2">
  <advance width="1027"/>
  <unicode hex="1D02E"/>
  <note>
u1D02E
</note>
  <outline>
    <contour>
      <point x="923" y="397" type="curve" smooth="yes"/>
      <point x="923" y="434"/>
      <point x="900" y="458"/>
      <point x="863" y="458" type="curve" smooth="yes"/>
      <point x="815" y="458"/>
      <point x="755" y="398"/>
      <point x="682" y="280" type="curve"/>
      <point x="682" y="285" type="line" smooth="yes"/>
      <point x="682" y="357"/>
      <point x="624" y="449"/>
      <point x="584" y="467" type="curve"/>
      <point x="556" y="467"/>
      <point x="533" y="438"/>
      <point x="533" y="406" type="curve"/>
      <point x="600" y="381"/>
      <point x="642" y="324"/>
      <point x="642" y="257" type="curve" smooth="yes"/>
      <point x="642" y="235"/>
      <point x="650" y="224"/>
      <point x="667" y="224" type="curve" smooth="yes"/>
      <point x="694" y="224"/>
      <point x="720" y="260"/>
      <point x="756" y="311" type="curve" smooth="yes"/>
      <point x="775" y="337"/>
      <point x="793" y="355"/>
      <point x="811" y="366" type="curve"/>
      <point x="822" y="346"/>
      <point x="840" y="336"/>
      <point x="864" y="336" type="curve" smooth="yes"/>
      <point x="897" y="336"/>
      <point x="923" y="365"/>
    </contour>
    <contour>
      <point x="474" y="676" type="curve"/>
      <point x="500" y="666"/>
      <point x="517" y="660"/>
      <point x="521" y="660" type="curve" smooth="yes"/>
      <point x="542" y="660"/>
      <point x="556" y="688"/>
      <point x="556" y="714" type="curve" smooth="yes"/>
      <point x="556" y="728"/>
      <point x="551" y="741"/>
      <point x="542" y="754" type="curve"/>
      <point x="538" y="755"/>
      <point x="534" y="755"/>
      <point x="530" y="755" type="curve" smooth="yes"/>
      <point x="516" y="754"/>
      <point x="503" y="753"/>
      <point x="493" y="749" type="curve" smooth="yes"/>
      <point x="481" y="744"/>
      <point x="438" y="712"/>
      <point x="366" y="653" type="curve" smooth="yes"/>
      <point x="293" y="593"/>
      <point x="206" y="502"/>
      <point x="103" y="380" type="curve"/>
      <point x="149" y="383" type="line"/>
      <point x="256" y="510"/>
      <point x="379" y="620"/>
    </contour>
    <contour>
      <point x="215" y="344" type="curve"/>
      <point x="259" y="348" type="line"/>
      <point x="352" y="451"/>
      <point x="449" y="532"/>
      <point x="552" y="593" type="curve"/>
      <point x="560" y="590"/>
      <point x="568" y="587"/>
      <point x="578" y="583" type="curve" smooth="yes"/>
      <point x="587" y="579"/>
      <point x="595" y="577"/>
      <point x="602" y="577" type="curve" smooth="yes"/>
      <point x="622" y="577"/>
      <point x="634" y="604"/>
      <point x="634" y="631" type="curve" smooth="yes"/>
      <point x="634" y="647"/>
      <point x="630" y="661"/>
      <point x="622" y="671" type="curve"/>
      <point x="617" y="672"/>
      <point x="611" y="672"/>
      <point x="606" y="672" type="curve" smooth="yes"/>
      <point x="593" y="671"/>
      <point x="582" y="670"/>
      <point x="571" y="667" type="curve" smooth="yes"/>
      <point x="561" y="664"/>
      <point x="523" y="636"/>
      <point x="444" y="573" type="curve" smooth="yes"/>
      <point x="371" y="514"/>
      <point x="294" y="438"/>
    </contour>
  </outline>
</glyph>
<glyph name="u1D02F" format="2">
  <advance width="857"/>
  <unicode hex="1D02F"/>
  <note>
u1D02F
</note>
  <outline>
    <contour>
      <point x="370" y="401" type="line"/>
      <point x="422" y="404" type="line"/>
      <point x="694" y="660" type="line"/>
      <point x="710" y="658" type="line" smooth="yes"/>
      <point x="726" y="656"/>
      <point x="738" y="668"/>
      <point x="746" y="697" type="curve" smooth="yes"/>
      <point x="754" y="728" type="line"/>
      <point x="716" y="727"/>
      <point x="687" y="720"/>
      <point x="667" y="708" type="curve"/>
    </contour>
    <contour>
      <point x="498" y="360" type="line"/>
      <point x="426" y="354" type="line"/>
      <point x="259" y="199" type="line"/>
      <point x="262" y="188" type="line"/>
      <point x="334" y="208" type="line"/>
    </contour>
    <contour>
      <point x="343" y="360" type="line"/>
      <point x="271" y="354" type="line"/>
      <point x="103" y="199" type="line"/>
      <point x="107" y="188" type="line"/>
      <point x="179" y="208" type="line"/>
    </contour>
  </outline>
</glyph>
<glyph name="u1D030" format="2">
  <advance width="650"/>
  <unicode hex="1D030"/>
  <note>
u1D030
</note>
  <outline>
    <contour>
      <point x="218" y="340" type="line"/>
      <point x="187" y="476" type="line" smooth="yes"/>
      <point x="182" y="499"/>
      <point x="169" y="511"/>
      <point x="131" y="511" type="curve" smooth="yes"/>
      <point x="113" y="511"/>
      <point x="103" y="502"/>
      <point x="103" y="494" type="curve" smooth="yes"/>
      <point x="103" y="489"/>
      <point x="106" y="485"/>
      <point x="111" y="480" type="curve" smooth="yes"/>
      <point x="117" y="476"/>
      <point x="120" y="471"/>
      <point x="121" y="466" type="curve" smooth="yes"/>
      <point x="164" y="283" type="line"/>
      <point x="426" y="343" type="line"/>
      <point x="547" y="654" type="line"/>
      <point x="487" y="634" type="line"/>
      <point x="397" y="380" type="line"/>
    </contour>
  </outline>
</glyph>
<glyph name="u1D031" format="2">
  <advance width="870"/>
  <unicode hex="1D031"/>
  <note>
u1D031
</note>
  <outline>
    <contour>
      <point x="438" y="340" type="line"/>
      <point x="404" y="476" type="line"/>
      <point x="401" y="500"/>
      <point x="383" y="511"/>
      <point x="348" y="511" type="curve" smooth="yes"/>
      <point x="331" y="511"/>
      <point x="322" y="505"/>
      <point x="322" y="494" type="curve" smooth="yes"/>
      <point x="322" y="492"/>
      <point x="322" y="491"/>
      <point x="323" y="487" type="curve"/>
      <point x="103" y="274" type="line"/>
      <point x="146" y="247" type="line"/>
      <point x="340" y="452" type="line"/>
      <point x="382" y="283" type="line"/>
      <point x="646" y="343" type="line"/>
      <point x="766" y="654" type="line"/>
      <point x="706" y="634" type="line"/>
      <point x="614" y="380" type="line"/>
    </contour>
  </outline>
</glyph>
<glyph name="u1D032" format="2">
  <advance width="1226"/>
  <unicode hex="1D032"/>
  <note>
u1D032
</note>
  <outline>
    <contour>
      <point x="1100" y="978" type="line"/>
      <point x="758" y="682" type="line"/>
      <point x="726" y="708" type="line" smooth="yes"/>
      <point x="690" y="738"/>
      <point x="664" y="754"/>
      <point x="647" y="754" type="curve" smooth="yes"/>
      <point x="622" y="754"/>
      <point x="605" y="728"/>
      <point x="605" y="708" type="curve" smooth="yes"/>
      <point x="605" y="693"/>
      <point x="613" y="684"/>
      <point x="629" y="677" type="curve" smooth="yes"/>
      <point x="712" y="641" type="line" smooth="yes"/>
      <point x="725" y="635"/>
      <point x="737" y="631"/>
      <point x="750" y="631" type="curve" smooth="yes"/>
      <point x="767" y="631"/>
      <point x="788" y="639"/>
      <point x="806" y="657" type="curve" smooth="yes"/>
      <point x="1123" y="978" type="line"/>
    </contour>
    <contour>
      <point x="103" y="236" type="curve"/>
      <point x="103" y="216" type="line"/>
      <point x="231" y="216"/>
      <point x="318" y="265"/>
      <point x="318" y="338" type="curve" smooth="yes"/>
      <point x="318" y="370"/>
      <point x="293" y="395"/>
      <point x="252" y="395" type="curve" smooth="yes"/>
      <point x="217" y="395"/>
      <point x="187" y="377"/>
      <point x="187" y="352" type="curve" smooth="yes"/>
      <point x="187" y="329"/>
      <point x="210" y="320"/>
      <point x="225" y="319" type="curve" smooth="yes"/>
      <point x="231" y="319"/>
      <point x="234" y="320"/>
      <point x="242" y="323" type="curve"/>
      <point x="246" y="318"/>
      <point x="248" y="313"/>
      <point x="248" y="307" type="curve" smooth="yes"/>
      <point x="248" y="274"/>
      <point x="175" y="238"/>
    </contour>
    <contour>
      <point x="262" y="208" type="line"/>
      <point x="271" y="208" type="line" smooth="yes"/>
      <point x="388" y="208"/>
      <point x="476" y="256"/>
      <point x="476" y="330" type="curve" smooth="yes"/>
      <point x="476" y="365"/>
      <point x="452" y="386"/>
      <point x="413" y="386" type="curve" smooth="yes"/>
      <point x="377" y="386"/>
      <point x="346" y="370"/>
      <point x="346" y="343" type="curve" smooth="yes"/>
      <point x="346" y="322"/>
      <point x="368" y="312"/>
      <point x="385" y="311" type="curve" smooth="yes"/>
      <point x="391" y="311"/>
      <point x="395" y="312"/>
      <point x="403" y="314" type="curve"/>
      <point x="407" y="309"/>
      <point x="409" y="303"/>
      <point x="409" y="298" type="curve" smooth="yes"/>
      <point x="409" y="266"/>
      <point x="336" y="230"/>
      <point x="262" y="228" type="curve"/>
    </contour>
    <contour>
      <point x="642" y="577" type="line"/>
      <point x="506" y="455" type="line"/>
      <point x="562" y="452" type="line"/>
      <point x="685" y="562" type="line"/>
    </contour>
    <contour>
      <point x="569" y="619" type="line"/>
      <point x="432" y="496" type="line"/>
      <point x="487" y="494" type="line"/>
      <point x="612" y="604" type="line"/>
    </contour>
    <contour>
      <point x="884" y="418" type="line"/>
      <point x="636" y="196" type="line"/>
      <point x="706" y="204" type="line"/>
      <point x="941" y="418" type="line"/>
    </contour>
    <contour>
      <point x="779" y="448" type="line"/>
      <point x="530" y="224" type="line"/>
      <point x="599" y="232" type="line"/>
      <point x="833" y="448" type="line"/>
    </contour>
  </outline>
</glyph>
<glyph name="u1D033" format="2">
  <advance width="962"/>
  <unicode hex="1D033"/>
  <note>
u1D033
</note>
  <outline>
    <contour>
      <point x="103" y="304" type="curve"/>
      <point x="103" y="283" type="line"/>
      <point x="228" y="283"/>
      <point x="318" y="333"/>
      <point x="318" y="406" type="curve" smooth="yes"/>
      <point x="318" y="441"/>
      <point x="291" y="463"/>
      <point x="252" y="463" type="curve" smooth="yes"/>
      <point x="217" y="463"/>
      <point x="187" y="446"/>
      <point x="187" y="418" type="curve" smooth="yes"/>
      <point x="187" y="396"/>
      <point x="210" y="388"/>
      <point x="225" y="388" type="curve" smooth="yes"/>
      <point x="231" y="388"/>
      <point x="235" y="389"/>
      <point x="242" y="391" type="curve"/>
      <point x="246" y="386"/>
      <point x="248" y="380"/>
      <point x="248" y="375" type="curve" smooth="yes"/>
      <point x="248" y="343"/>
      <point x="171" y="307"/>
    </contour>
    <contour>
      <point x="262" y="276" type="line"/>
      <point x="271" y="276" type="line" smooth="yes"/>
      <point x="386" y="276"/>
      <point x="476" y="325"/>
      <point x="476" y="397" type="curve" smooth="yes"/>
      <point x="476" y="433"/>
      <point x="452" y="455"/>
      <point x="413" y="455" type="curve" smooth="yes"/>
      <point x="377" y="455"/>
      <point x="346" y="439"/>
      <point x="346" y="412" type="curve" smooth="yes"/>
      <point x="346" y="389"/>
      <point x="370" y="379"/>
      <point x="384" y="379" type="curve" smooth="yes"/>
      <point x="390" y="379"/>
      <point x="394" y="380"/>
      <point x="403" y="383" type="curve"/>
      <point x="407" y="377"/>
      <point x="409" y="373"/>
      <point x="409" y="367" type="curve" smooth="yes"/>
      <point x="409" y="334"/>
      <point x="333" y="298"/>
      <point x="262" y="296" type="curve"/>
    </contour>
    <contour>
      <point x="806" y="569" type="line"/>
      <point x="559" y="344" type="line"/>
      <point x="620" y="344" type="line"/>
      <point x="858" y="559" type="line"/>
    </contour>
  </outline>
</glyph>
<glyph name="u1D034" format="2">
  <advance width="1027"/>
  <unicode hex="1D034"/>
  <note>
u1D034
</note>
  <outline>
    <contour>
      <point x="722" y="412" type="curve"/>
      <point x="714" y="276" type="line" smooth="yes"/>
      <point x="712" y="251"/>
      <point x="717" y="233"/>
      <point x="723" y="224" type="curve" smooth="yes"/>
      <point x="729" y="214"/>
      <point x="737" y="209"/>
      <point x="749" y="209" type="curve" smooth="yes"/>
      <point x="775" y="209"/>
      <point x="792" y="225"/>
      <point x="802" y="258" type="curve"/>
      <point x="776" y="290" type="line"/>
      <point x="780" y="408" type="line"/>
      <point x="875" y="408"/>
      <point x="923" y="437"/>
      <point x="923" y="494" type="curve" smooth="yes"/>
      <point x="923" y="559"/>
      <point x="872" y="613"/>
      <point x="805" y="629" type="curve"/>
      <point x="820" y="718" type="line" smooth="yes"/>
      <point x="823" y="738"/>
      <point x="813" y="754"/>
      <point x="797" y="754" type="curve" smooth="yes"/>
      <point x="778" y="754"/>
      <point x="766" y="745"/>
      <point x="763" y="728" type="curve" smooth="yes"/>
      <point x="746" y="631" type="line"/>
      <point x="710" y="624"/>
      <point x="685" y="610"/>
      <point x="665" y="593" type="curve" smooth="yes"/>
      <point x="360" y="329" type="line"/>
      <point x="416" y="338" type="line"/>
      <point x="620" y="487" type="line"/>
      <point x="622" y="446"/>
      <point x="658" y="416"/>
    </contour>
    <contour>
      <point x="412" y="283" type="line"/>
      <point x="257" y="132" type="line"/>
      <point x="334" y="145" type="line"/>
      <point x="476" y="283" type="line"/>
    </contour>
    <contour>
      <point x="259" y="283" type="line"/>
      <point x="103" y="132" type="line"/>
      <point x="182" y="145" type="line"/>
      <point x="325" y="283" type="line"/>
    </contour>
    <contour>
      <point x="802" y="599" type="line"/>
      <point x="835" y="591"/>
      <point x="866" y="551"/>
      <point x="866" y="510" type="curve" smooth="yes"/>
      <point x="866" y="479"/>
      <point x="839" y="462"/>
      <point x="786" y="458" type="curve"/>
    </contour>
    <contour>
      <point x="727" y="463" type="line"/>
      <point x="697" y="469"/>
      <point x="682" y="485"/>
      <point x="682" y="510" type="curve" smooth="yes"/>
      <point x="682" y="547"/>
      <point x="703" y="583"/>
      <point x="743" y="598" type="curve"/>
    </contour>
  </outline>
</glyph>
<glyph name="u1D035" format="2">
  <advance width="922"/>
  <unicode hex="1D035"/>
  <note>
u1D035
</note>
  <outline>
    <contour>
      <point x="614" y="412" type="curve"/>
      <point x="607" y="276" type="line" smooth="yes"/>
      <point x="607" y="251"/>
      <point x="610" y="233"/>
      <point x="616" y="224" type="curve" smooth="yes"/>
      <point x="622" y="214"/>
      <point x="630" y="209"/>
      <point x="642" y="209" type="curve" smooth="yes"/>
      <point x="669" y="209"/>
      <point x="688" y="225"/>
      <point x="697" y="258" type="curve"/>
      <point x="671" y="290" type="line"/>
      <point x="676" y="408" type="line"/>
      <point x="771" y="408"/>
      <point x="818" y="437"/>
      <point x="818" y="494" type="curve" smooth="yes"/>
      <point x="818" y="557"/>
      <point x="770" y="613"/>
      <point x="698" y="629" type="curve"/>
      <point x="715" y="724" type="line" smooth="yes"/>
      <point x="715" y="744"/>
      <point x="707" y="754"/>
      <point x="691" y="754" type="curve" smooth="yes"/>
      <point x="672" y="754"/>
      <point x="659" y="744"/>
      <point x="656" y="726" type="curve" smooth="yes"/>
      <point x="641" y="631" type="line"/>
      <point x="581" y="622"/>
      <point x="535" y="581"/>
      <point x="518" y="528" type="curve"/>
      <point x="410" y="422"/>
      <point x="287" y="330"/>
      <point x="240" y="330" type="curve" smooth="yes"/>
      <point x="204" y="330"/>
      <point x="196" y="356"/>
      <point x="188" y="383" type="curve" smooth="yes"/>
      <point x="180" y="409"/>
      <point x="167" y="434"/>
      <point x="145" y="434" type="curve" smooth="yes"/>
      <point x="121" y="434"/>
      <point x="103" y="415"/>
      <point x="103" y="391" type="curve" smooth="yes"/>
      <point x="103" y="362"/>
      <point x="171" y="276"/>
      <point x="224" y="276" type="curve" smooth="yes"/>
      <point x="274" y="276"/>
      <point x="345" y="325"/>
      <point x="460" y="434" type="curve" smooth="yes"/>
      <point x="516" y="487" type="line"/>
      <point x="518" y="443"/>
      <point x="554" y="416"/>
    </contour>
    <contour>
      <point x="697" y="599" type="curve"/>
      <point x="730" y="591"/>
      <point x="761" y="551"/>
      <point x="761" y="510" type="curve" smooth="yes"/>
      <point x="761" y="479"/>
      <point x="735" y="462"/>
      <point x="682" y="458" type="curve"/>
      <point x="685" y="507"/>
      <point x="689" y="555"/>
    </contour>
    <contour>
      <point x="622" y="463" type="line"/>
      <point x="590" y="470"/>
      <point x="574" y="485"/>
      <point x="574" y="510" type="curve" smooth="yes"/>
      <point x="574" y="547"/>
      <point x="597" y="583"/>
      <point x="636" y="598" type="curve"/>
    </contour>
  </outline>
</glyph>
<glyph name="u1D036" format="2">
  <advance width="744"/>
  <unicode hex="1D036"/>
  <note>
u1D036
</note>
  <outline>
    <contour>
      <point x="455" y="355" type="curve"/>
      <point x="424" y="341"/>
      <point x="408" y="319"/>
      <point x="408" y="288" type="curve" smooth="yes"/>
      <point x="408" y="238"/>
      <point x="449" y="208"/>
      <point x="521" y="208" type="curve" smooth="yes"/>
      <point x="565" y="208"/>
      <point x="605" y="219"/>
      <point x="641" y="242" type="curve"/>
      <point x="636" y="260" type="line"/>
      <point x="598" y="244"/>
      <point x="562" y="236"/>
      <point x="530" y="236" type="curve" smooth="yes"/>
      <point x="490" y="236"/>
      <point x="463" y="257"/>
      <point x="463" y="288" type="curve" smooth="yes"/>
      <point x="463" y="312"/>
      <point x="472" y="328"/>
      <point x="490" y="336" type="curve"/>
      <point x="500" y="333"/>
      <point x="512" y="331"/>
      <point x="525" y="331" type="curve" smooth="yes"/>
      <point x="559" y="332"/>
      <point x="588" y="354"/>
      <point x="588" y="377" type="curve" smooth="yes"/>
      <point x="588" y="396"/>
      <point x="574" y="406"/>
      <point x="547" y="406" type="curve" smooth="yes"/>
      <point x="526" y="406"/>
      <point x="507" y="397"/>
      <point x="491" y="380" type="curve"/>
      <point x="472" y="389"/>
      <point x="463" y="404"/>
      <point x="463" y="425" type="curve" smooth="yes"/>
      <point x="463" y="448"/>
      <point x="472" y="464"/>
      <point x="490" y="474" type="curve"/>
      <point x="502" y="470"/>
      <point x="509" y="468"/>
      <point x="527" y="468" type="curve" smooth="yes"/>
      <point x="555" y="468"/>
      <point x="588" y="492"/>
      <point x="588" y="516" type="curve" smooth="yes"/>
      <point x="588" y="530"/>
      <point x="571" y="542"/>
      <point x="547" y="542" type="curve" smooth="yes"/>
      <point x="526" y="542"/>
      <point x="508" y="534"/>
      <point x="491" y="517" type="curve"/>
      <point x="472" y="527"/>
      <point x="463" y="542"/>
      <point x="463" y="562" type="curve" smooth="yes"/>
      <point x="463" y="583"/>
      <point x="472" y="600"/>
      <point x="490" y="611" type="curve"/>
      <point x="505" y="606"/>
      <point x="516" y="604"/>
      <point x="522" y="604" type="curve" smooth="yes"/>
      <point x="549" y="604"/>
      <point x="588" y="627"/>
      <point x="588" y="650" type="curve" smooth="yes"/>
      <point x="588" y="667"/>
      <point x="571" y="682"/>
      <point x="547" y="682" type="curve" smooth="yes"/>
      <point x="531" y="682"/>
      <point x="518" y="674"/>
      <point x="502" y="664" type="curve"/>
      <point x="488" y="667"/>
      <point x="474" y="679"/>
      <point x="473" y="698" type="curve" smooth="yes"/>
      <point x="473" y="703"/>
      <point x="474" y="708"/>
      <point x="475" y="712" type="curve"/>
      <point x="484" y="711"/>
      <point x="493" y="710"/>
      <point x="502" y="710" type="curve" smooth="yes"/>
      <point x="556" y="711"/>
      <point x="595" y="737"/>
      <point x="595" y="769" type="curve" smooth="yes"/>
      <point x="595" y="787"/>
      <point x="578" y="809"/>
      <point x="533" y="809" type="curve" smooth="yes"/>
      <point x="499" y="809"/>
      <point x="467" y="793"/>
      <point x="438" y="761" type="curve"/>
      <point x="394" y="775" type="line" smooth="yes"/>
      <point x="328" y="796"/>
      <point x="277" y="809"/>
      <point x="239" y="809" type="curve" smooth="yes"/>
      <point x="177" y="809"/>
      <point x="103" y="757"/>
      <point x="103" y="728" type="curve" smooth="yes"/>
      <point x="103" y="726"/>
      <point x="104" y="724"/>
      <point x="108" y="724" type="curve" smooth="yes"/>
      <point x="113" y="724"/>
      <point x="128" y="729"/>
      <point x="152" y="741" type="curve" smooth="yes"/>
      <point x="176" y="753"/>
      <point x="201" y="757"/>
      <point x="226" y="757" type="curve" smooth="yes"/>
      <point x="243" y="757"/>
      <point x="293" y="746"/>
      <point x="375" y="728" type="curve" smooth="yes"/>
      <point x="422" y="718" type="line"/>
      <point x="418" y="709"/>
      <point x="415" y="701"/>
      <point x="415" y="692" type="curve" smooth="yes"/>
      <point x="415" y="665"/>
      <point x="427" y="645"/>
      <point x="452" y="631" type="curve"/>
      <point x="423" y="615"/>
      <point x="408" y="592"/>
      <point x="408" y="562" type="curve" smooth="yes"/>
      <point x="408" y="529"/>
      <point x="424" y="507"/>
      <point x="455" y="494" type="curve"/>
      <point x="424" y="477"/>
      <point x="408" y="454"/>
      <point x="408" y="425" type="curve" smooth="yes"/>
      <point x="408" y="394"/>
      <point x="424" y="371"/>
    </contour>
  </outline>
</glyph>
<glyph name="u1D037" format="2">
  <advance width="948"/>
  <unicode hex="1D037"/>
  <note>
u1D037
</note>
  <outline>
    <contour>
      <point x="671" y="218" type="curve"/>
      <point x="677" y="200" type="line"/>
      <point x="774" y="200"/>
      <point x="844" y="240"/>
      <point x="844" y="304" type="curve" smooth="yes"/>
      <point x="844" y="342"/>
      <point x="825" y="361"/>
      <point x="787" y="361" type="curve" smooth="yes"/>
      <point x="758" y="361"/>
      <point x="736" y="344"/>
      <point x="736" y="323" type="curve" smooth="yes"/>
      <point x="736" y="307"/>
      <point x="751" y="298"/>
      <point x="766" y="296" type="curve" smooth="yes"/>
      <point x="780" y="294"/>
      <point x="792" y="291"/>
      <point x="792" y="280" type="curve" smooth="yes"/>
      <point x="792" y="250"/>
      <point x="735" y="226"/>
    </contour>
    <contour>
      <point x="671" y="403" type="curve"/>
      <point x="677" y="383" type="line"/>
      <point x="774" y="383"/>
      <point x="844" y="420"/>
      <point x="844" y="487" type="curve" smooth="yes"/>
      <point x="844" y="523"/>
      <point x="825" y="542"/>
      <point x="787" y="542" type="curve" smooth="yes"/>
      <point x="758" y="542"/>
      <point x="736" y="527"/>
      <point x="736" y="506" type="curve" smooth="yes"/>
      <point x="736" y="486"/>
      <point x="754" y="481"/>
      <point x="768" y="479" type="curve" smooth="yes"/>
      <point x="781" y="477"/>
      <point x="792" y="474"/>
      <point x="792" y="464" type="curve" smooth="yes"/>
      <point x="792" y="450"/>
      <point x="781" y="437"/>
      <point x="759" y="425" type="curve" smooth="yes"/>
      <point x="737" y="413"/>
      <point x="708" y="406"/>
    </contour>
    <contour>
      <point x="671" y="584" type="curve"/>
      <point x="677" y="568" type="line"/>
      <point x="780" y="568"/>
      <point x="844" y="607"/>
      <point x="844" y="671" type="curve" smooth="yes"/>
      <point x="844" y="708"/>
      <point x="820" y="726"/>
      <point x="787" y="726" type="curve" smooth="yes"/>
      <point x="758" y="726"/>
      <point x="736" y="708"/>
      <point x="736" y="689" type="curve" smooth="yes"/>
      <point x="736" y="668"/>
      <point x="753" y="662"/>
      <point x="767" y="660" type="curve" smooth="yes"/>
      <point x="781" y="658"/>
      <point x="792" y="655"/>
      <point x="792" y="645" type="curve" smooth="yes"/>
      <point x="792" y="612"/>
      <point x="733" y="589"/>
    </contour>
    <contour>
      <point x="455" y="355" type="curve"/>
      <point x="424" y="341"/>
      <point x="408" y="319"/>
      <point x="408" y="288" type="curve" smooth="yes"/>
      <point x="408" y="238"/>
      <point x="449" y="208"/>
      <point x="521" y="208" type="curve" smooth="yes"/>
      <point x="565" y="208"/>
      <point x="605" y="219"/>
      <point x="641" y="242" type="curve"/>
      <point x="636" y="260" type="line"/>
      <point x="598" y="244"/>
      <point x="562" y="236"/>
      <point x="530" y="236" type="curve" smooth="yes"/>
      <point x="490" y="236"/>
      <point x="463" y="257"/>
      <point x="463" y="288" type="curve" smooth="yes"/>
      <point x="463" y="312"/>
      <point x="472" y="328"/>
      <point x="490" y="336" type="curve"/>
      <point x="500" y="333"/>
      <point x="512" y="331"/>
      <point x="525" y="331" type="curve" smooth="yes"/>
      <point x="559" y="332"/>
      <point x="588" y="354"/>
      <point x="588" y="377" type="curve" smooth="yes"/>
      <point x="588" y="396"/>
      <point x="574" y="406"/>
      <point x="547" y="406" type="curve" smooth="yes"/>
      <point x="526" y="406"/>
      <point x="507" y="397"/>
      <point x="491" y="380" type="curve"/>
      <point x="472" y="389"/>
      <point x="463" y="404"/>
      <point x="463" y="425" type="curve" smooth="yes"/>
      <point x="463" y="448"/>
      <point x="472" y="464"/>
      <point x="490" y="474" type="curve"/>
      <point x="502" y="470"/>
      <point x="509" y="468"/>
      <point x="527" y="468" type="curve" smooth="yes"/>
      <point x="555" y="468"/>
      <point x="588" y="492"/>
      <point x="588" y="516" type="curve" smooth="yes"/>
      <point x="588" y="530"/>
      <point x="571" y="542"/>
      <point x="547" y="542" type="curve" smooth="yes"/>
      <point x="526" y="542"/>
      <point x="508" y="534"/>
      <point x="491" y="517" type="curve"/>
      <point x="472" y="527"/>
      <point x="463" y="542"/>
      <point x="463" y="562" type="curve" smooth="yes"/>
      <point x="463" y="583"/>
      <point x="472" y="600"/>
      <point x="490" y="611" type="curve"/>
      <point x="505" y="606"/>
      <point x="516" y="604"/>
      <point x="522" y="604" type="curve" smooth="yes"/>
      <point x="549" y="604"/>
      <point x="588" y="627"/>
      <point x="588" y="650" type="curve" smooth="yes"/>
      <point x="588" y="667"/>
      <point x="571" y="682"/>
      <point x="547" y="682" type="curve" smooth="yes"/>
      <point x="531" y="682"/>
      <point x="518" y="674"/>
      <point x="502" y="664" type="curve"/>
      <point x="488" y="667"/>
      <point x="474" y="679"/>
      <point x="473" y="698" type="curve" smooth="yes"/>
      <point x="473" y="703"/>
      <point x="474" y="708"/>
      <point x="475" y="712" type="curve"/>
      <point x="484" y="711"/>
      <point x="493" y="710"/>
      <point x="502" y="710" type="curve" smooth="yes"/>
      <point x="556" y="711"/>
      <point x="595" y="737"/>
      <point x="595" y="769" type="curve" smooth="yes"/>
      <point x="595" y="787"/>
      <point x="578" y="809"/>
      <point x="533" y="809" type="curve" smooth="yes"/>
      <point x="499" y="809"/>
      <point x="467" y="793"/>
      <point x="438" y="761" type="curve"/>
      <point x="394" y="775" type="line" smooth="yes"/>
      <point x="328" y="796"/>
      <point x="277" y="809"/>
      <point x="239" y="809" type="curve" smooth="yes"/>
      <point x="177" y="809"/>
      <point x="103" y="757"/>
      <point x="103" y="728" type="curve" smooth="yes"/>
      <point x="103" y="726"/>
      <point x="104" y="724"/>
      <point x="108" y="724" type="curve" smooth="yes"/>
      <point x="113" y="724"/>
      <point x="128" y="729"/>
      <point x="152" y="741" type="curve" smooth="yes"/>
      <point x="176" y="753"/>
      <point x="201" y="757"/>
      <point x="226" y="757" type="curve" smooth="yes"/>
      <point x="243" y="757"/>
      <point x="293" y="746"/>
      <point x="375" y="728" type="curve" smooth="yes"/>
      <point x="422" y="718" type="line"/>
      <point x="418" y="709"/>
      <point x="415" y="701"/>
      <point x="415" y="692" type="curve" smooth="yes"/>
      <point x="415" y="665"/>
      <point x="427" y="645"/>
      <point x="452" y="631" type="curve"/>
      <point x="423" y="615"/>
      <point x="408" y="592"/>
      <point x="408" y="562" type="curve" smooth="yes"/>
      <point x="408" y="529"/>
      <point x="424" y="507"/>
      <point x="455" y="494" type="curve"/>
      <point x="424" y="477"/>
      <point x="408" y="454"/>
      <point x="408" y="425" type="curve" smooth="yes"/>
      <point x="408" y="394"/>
      <point x="424" y="371"/>
    </contour>
  </outline>
</glyph>
<glyph name="u1D038" format="2">
  <advance width="624"/>
  <unicode hex="1D038"/>
  <note>
u1D038
</note>
  <outline>
    <contour>
      <point x="288" y="449" type="curve" smooth="yes"/>
      <point x="288" y="459"/>
      <point x="274" y="473"/>
      <point x="251" y="485" type="curve" smooth="yes"/>
      <point x="247" y="487"/>
      <point x="239" y="491"/>
      <point x="239" y="494" type="curve" smooth="yes"/>
      <point x="239" y="497"/>
      <point x="247" y="500"/>
      <point x="256" y="503" type="curve" smooth="yes"/>
      <point x="265" y="506"/>
      <point x="275" y="509"/>
      <point x="284" y="513" type="curve" smooth="yes"/>
      <point x="306" y="523"/>
      <point x="325" y="532"/>
      <point x="325" y="552" type="curve" smooth="yes"/>
      <point x="325" y="569"/>
      <point x="314" y="584"/>
      <point x="292" y="596" type="curve" smooth="yes"/>
      <point x="243" y="623"/>
      <point x="215" y="637"/>
      <point x="205" y="645" type="curve" smooth="yes"/>
      <point x="195" y="653"/>
      <point x="188" y="659"/>
      <point x="188" y="665" type="curve" smooth="yes"/>
      <point x="188" y="675"/>
      <point x="195" y="685"/>
      <point x="209" y="694" type="curve" smooth="yes"/>
      <point x="223" y="703"/>
      <point x="247" y="708"/>
      <point x="277" y="708" type="curve" smooth="yes"/>
      <point x="378" y="708"/>
      <point x="467" y="621"/>
      <point x="467" y="528" type="curve" smooth="yes"/>
      <point x="467" y="491"/>
      <point x="447" y="453"/>
      <point x="396" y="406" type="curve" smooth="yes"/>
      <point x="371" y="383"/>
      <point x="336" y="356"/>
      <point x="293" y="327" type="curve" smooth="yes"/>
      <point x="207" y="269"/>
      <point x="173" y="231"/>
      <point x="152" y="177" type="curve" smooth="yes"/>
      <point x="141" y="149"/>
      <point x="134" y="108"/>
      <point x="131" y="52" type="curve"/>
      <point x="209" y="113" type="line"/>
      <point x="211" y="178"/>
      <point x="256" y="243"/>
      <point x="343" y="307" type="curve" smooth="yes"/>
      <point x="433" y="374" type="line" smooth="yes"/>
      <point x="493" y="418"/>
      <point x="520" y="474"/>
      <point x="520" y="533" type="curve" smooth="yes"/>
      <point x="520" y="607"/>
      <point x="474" y="685"/>
      <point x="397" y="726" type="curve" smooth="yes"/>
      <point x="359" y="746"/>
      <point x="317" y="757"/>
      <point x="271" y="757" type="curve" smooth="yes"/>
      <point x="191" y="757"/>
      <point x="127" y="711"/>
      <point x="127" y="660" type="curve" smooth="yes"/>
      <point x="127" y="636"/>
      <point x="143" y="611"/>
      <point x="185" y="589" type="curve" smooth="yes"/>
      <point x="206" y="578"/>
      <point x="216" y="568"/>
      <point x="216" y="560" type="curve" smooth="yes"/>
      <point x="216" y="546"/>
      <point x="195" y="539"/>
      <point x="154" y="539" type="curve" smooth="yes"/>
      <point x="122" y="539"/>
      <point x="106" y="532"/>
      <point x="106" y="518" type="curve" smooth="yes"/>
      <point x="106" y="503"/>
      <point x="116" y="497"/>
      <point x="145" y="486" type="curve" smooth="yes"/>
      <point x="179" y="473"/>
      <point x="197" y="465"/>
      <point x="197" y="458" type="curve" smooth="yes"/>
      <point x="197" y="449"/>
      <point x="150" y="444"/>
      <point x="131" y="444" type="curve" smooth="yes"/>
      <point x="112" y="444"/>
      <point x="103" y="437"/>
      <point x="103" y="422" type="curve" smooth="yes"/>
      <point x="103" y="408"/>
      <point x="127" y="397"/>
      <point x="146" y="397" type="curve" smooth="yes"/>
      <point x="184" y="397"/>
      <point x="217" y="402"/>
      <point x="246" y="411" type="curve" smooth="yes"/>
      <point x="274" y="420"/>
      <point x="288" y="433"/>
    </contour>
  </outline>
</glyph>
<glyph name="u1D039" format="2">
  <advance width="416"/>
  <unicode hex="1D039"/>
  <note>
u1D039
</note>
  <outline>
    <contour>
      <point x="103" y="217" type="curve"/>
      <point x="114" y="197" type="line"/>
      <point x="235" y="197"/>
      <point x="312" y="245"/>
      <point x="312" y="318" type="curve" smooth="yes"/>
      <point x="312" y="362"/>
      <point x="284" y="382"/>
      <point x="245" y="382" type="curve" smooth="yes"/>
      <point x="210" y="382"/>
      <point x="182" y="362"/>
      <point x="182" y="338" type="curve" smooth="yes"/>
      <point x="182" y="315"/>
      <point x="199" y="310"/>
      <point x="216" y="306" type="curve" smooth="yes"/>
      <point x="240" y="301" type="line" smooth="yes"/>
      <point x="248" y="299"/>
      <point x="251" y="295"/>
      <point x="251" y="290" type="curve" smooth="yes"/>
      <point x="251" y="252"/>
      <point x="185" y="227"/>
    </contour>
    <contour>
      <point x="103" y="424" type="curve"/>
      <point x="114" y="403" type="line"/>
      <point x="237" y="403"/>
      <point x="312" y="450"/>
      <point x="312" y="521" type="curve" smooth="yes"/>
      <point x="312" y="565"/>
      <point x="290" y="588"/>
      <point x="245" y="588" type="curve" smooth="yes"/>
      <point x="210" y="588"/>
      <point x="182" y="569"/>
      <point x="182" y="542" type="curve" smooth="yes"/>
      <point x="182" y="521"/>
      <point x="199" y="516"/>
      <point x="216" y="512" type="curve" smooth="yes"/>
      <point x="240" y="506" type="line" smooth="yes"/>
      <point x="248" y="504"/>
      <point x="251" y="501"/>
      <point x="251" y="496" type="curve" smooth="yes"/>
      <point x="251" y="479"/>
      <point x="238" y="464"/>
      <point x="211" y="451" type="curve" smooth="yes"/>
      <point x="184" y="438"/>
      <point x="148" y="429"/>
    </contour>
    <contour>
      <point x="103" y="629" type="curve"/>
      <point x="114" y="607" type="line"/>
      <point x="234" y="607"/>
      <point x="312" y="656"/>
      <point x="312" y="727" type="curve" smooth="yes"/>
      <point x="312" y="771"/>
      <point x="290" y="792"/>
      <point x="245" y="792" type="curve" smooth="yes"/>
      <point x="210" y="792"/>
      <point x="182" y="776"/>
      <point x="182" y="749" type="curve" smooth="yes"/>
      <point x="182" y="728"/>
      <point x="202" y="721"/>
      <point x="219" y="717" type="curve" smooth="yes"/>
      <point x="236" y="713" type="line" smooth="yes"/>
      <point x="245" y="711"/>
      <point x="251" y="707"/>
      <point x="251" y="701" type="curve" smooth="yes"/>
      <point x="251" y="683"/>
      <point x="238" y="667"/>
      <point x="211" y="655" type="curve" smooth="yes"/>
      <point x="184" y="643"/>
      <point x="148" y="634"/>
    </contour>
  </outline>
</glyph>
<glyph name="u1D03A" format="2">
  <advance width="697"/>
  <unicode hex="1D03A"/>
  <note>
u1D03A
</note>
  <outline>
    <contour>
      <point x="487" y="650" type="line"/>
      <point x="510" y="482" type="line" smooth="yes"/>
      <point x="513" y="458"/>
      <point x="526" y="446"/>
      <point x="571" y="446" type="curve" smooth="yes"/>
      <point x="585" y="446"/>
      <point x="595" y="456"/>
      <point x="593" y="471" type="curve" smooth="yes"/>
      <point x="584" y="535" type="line" smooth="yes"/>
      <point x="578" y="577"/>
      <point x="574" y="611"/>
      <point x="574" y="625" type="curve" smooth="yes"/>
      <point x="574" y="679"/>
      <point x="578" y="722"/>
      <point x="584" y="754" type="curve"/>
      <point x="520" y="750" type="line"/>
      <point x="103" y="215" type="line"/>
      <point x="175" y="217" type="line"/>
    </contour>
  </outline>
</glyph>
<glyph name="u1D03B" format="2">
  <advance width="1210"/>
  <unicode hex="1D03B"/>
  <note>
u1D03B
</note>
  <outline>
    <contour>
      <point x="308" y="581" type="line"/>
      <point x="356" y="567"/>
      <point x="385" y="537"/>
      <point x="395" y="491" type="curve" smooth="yes"/>
      <point x="397" y="480"/>
      <point x="403" y="475"/>
      <point x="413" y="475" type="curve" smooth="yes"/>
      <point x="427" y="475"/>
      <point x="447" y="504"/>
      <point x="462" y="534" type="curve" smooth="yes"/>
      <point x="474" y="559"/>
      <point x="492" y="582"/>
      <point x="498" y="587" type="curve" smooth="yes"/>
      <point x="507" y="595"/>
      <point x="511" y="601"/>
      <point x="511" y="605" type="curve" smooth="yes"/>
      <point x="511" y="611"/>
      <point x="505" y="614"/>
      <point x="494" y="614" type="curve" smooth="yes"/>
      <point x="474" y="614"/>
      <point x="448" y="581"/>
      <point x="415" y="516" type="curve"/>
      <point x="414" y="567"/>
      <point x="354" y="625"/>
      <point x="330" y="625" type="curve" smooth="yes"/>
      <point x="318" y="625"/>
      <point x="306" y="612"/>
      <point x="306" y="597" type="curve" smooth="yes"/>
      <point x="306" y="596"/>
      <point x="306" y="593"/>
      <point x="307" y="588" type="curve" smooth="yes"/>
    </contour>
    <contour>
      <point x="322" y="266" type="curve"/>
      <point x="314" y="308" type="line"/>
      <point x="270" y="339"/>
      <point x="203" y="395"/>
      <point x="197" y="409" type="curve" smooth="yes"/>
      <point x="180" y="446" type="line"/>
      <point x="167" y="455"/>
      <point x="152" y="460"/>
      <point x="137" y="460" type="curve" smooth="yes"/>
      <point x="115" y="460"/>
      <point x="104" y="452"/>
      <point x="104" y="437" type="curve" smooth="yes"/>
      <point x="104" y="426"/>
      <point x="110" y="415"/>
      <point x="123" y="402" type="curve" smooth="yes"/>
      <point x="163" y="362"/>
      <point x="244" y="306"/>
    </contour>
    <contour>
      <point x="449" y="266" type="curve"/>
      <point x="444" y="308" type="line"/>
      <point x="397" y="340"/>
      <point x="329" y="398"/>
      <point x="325" y="408" type="curve" smooth="yes"/>
      <point x="310" y="446" type="line"/>
      <point x="295" y="455"/>
      <point x="281" y="460"/>
      <point x="266" y="460" type="curve" smooth="yes"/>
      <point x="243" y="460"/>
      <point x="232" y="452"/>
      <point x="232" y="436" type="curve" smooth="yes"/>
      <point x="232" y="402"/>
      <point x="350" y="318"/>
    </contour>
    <contour>
      <point x="650" y="158" type="curve"/>
      <point x="677" y="152" type="line"/>
      <point x="846" y="345"/>
      <point x="989" y="500"/>
      <point x="1106" y="620" type="curve"/>
      <point x="1100" y="629" type="line"/>
      <point x="991" y="547"/>
      <point x="941" y="501"/>
      <point x="744" y="278" type="curve"/>
      <point x="740" y="278" type="line"/>
      <point x="740" y="289" type="line" smooth="yes"/>
      <point x="740" y="398"/>
      <point x="693" y="456"/>
      <point x="613" y="456" type="curve" smooth="yes"/>
      <point x="561" y="456"/>
      <point x="516" y="419"/>
      <point x="476" y="346" type="curve"/>
      <point x="490" y="334" type="line"/>
      <point x="516" y="361"/>
      <point x="550" y="391"/>
      <point x="595" y="391" type="curve" smooth="yes"/>
      <point x="640" y="391"/>
      <point x="667" y="356"/>
      <point x="667" y="288" type="curve" smooth="yes"/>
      <point x="667" y="234"/>
      <point x="667" y="227"/>
    </contour>
  </outline>
</glyph>
<glyph name="u1D03C" format="2">
  <advance width="682"/>
  <unicode hex="1D03C"/>
  <note>
u1D03C
</note>
  <outline>
    <contour>
      <point x="539" y="403" type="curve" smooth="yes"/>
      <point x="528" y="403" type="line"/>
      <point x="520" y="398"/>
      <point x="516" y="388"/>
      <point x="516" y="373" type="curve" smooth="yes"/>
      <point x="516" y="331" type="line"/>
      <point x="502" y="322"/>
      <point x="488" y="318"/>
      <point x="475" y="318" type="curve" smooth="yes"/>
      <point x="448" y="318"/>
      <point x="430" y="338"/>
      <point x="430" y="362" type="curve" smooth="yes"/>
      <point x="430" y="382"/>
      <point x="437" y="403"/>
      <point x="449" y="424" type="curve"/>
      <point x="390" y="424" type="line"/>
      <point x="377" y="417"/>
      <point x="367" y="404"/>
      <point x="361" y="376" type="curve" smooth="yes"/>
      <point x="357" y="355"/>
      <point x="341" y="334"/>
      <point x="322" y="334" type="curve" smooth="yes"/>
      <point x="300" y="334"/>
      <point x="281" y="353"/>
      <point x="275" y="390" type="curve" smooth="yes"/>
      <point x="271" y="416"/>
      <point x="248" y="440"/>
      <point x="209" y="453" type="curve" smooth="yes"/>
      <point x="192" y="459"/>
      <point x="173" y="460"/>
      <point x="151" y="460" type="curve" smooth="yes"/>
      <point x="127" y="460"/>
      <point x="103" y="460"/>
      <point x="103" y="444" type="curve" smooth="yes"/>
      <point x="103" y="436"/>
      <point x="107" y="431"/>
      <point x="113" y="429" type="curve" smooth="yes"/>
      <point x="124" y="424"/>
      <point x="142" y="425"/>
      <point x="160" y="421" type="curve" smooth="yes"/>
      <point x="188" y="414"/>
      <point x="215" y="401"/>
      <point x="215" y="366" type="curve" smooth="yes"/>
      <point x="215" y="343"/>
      <point x="196" y="331"/>
      <point x="175" y="330" type="curve" smooth="yes"/>
      <point x="154" y="329"/>
      <point x="144" y="325"/>
      <point x="144" y="314" type="curve" smooth="yes"/>
      <point x="144" y="301"/>
      <point x="156" y="294"/>
      <point x="180" y="294" type="curve" smooth="yes"/>
      <point x="206" y="294"/>
      <point x="230" y="301"/>
      <point x="251" y="314" type="curve"/>
      <point x="265" y="298"/>
      <point x="283" y="290"/>
      <point x="304" y="290" type="curve" smooth="yes"/>
      <point x="338" y="290"/>
      <point x="367" y="312"/>
      <point x="391" y="354" type="curve"/>
      <point x="395" y="314"/>
      <point x="429" y="290"/>
      <point x="468" y="290" type="curve" smooth="yes"/>
      <point x="486" y="290"/>
      <point x="499" y="295"/>
      <point x="520" y="304" type="curve"/>
      <point x="521" y="297"/>
      <point x="527" y="292"/>
      <point x="538" y="293" type="curve" smooth="yes"/>
      <point x="550" y="294" type="line" smooth="yes"/>
      <point x="563" y="295"/>
      <point x="577" y="302"/>
      <point x="577" y="314" type="curve" smooth="yes"/>
      <point x="577" y="371" type="line" smooth="yes"/>
      <point x="577" y="394"/>
      <point x="561" y="403"/>
    </contour>
  </outline>
</glyph>
<glyph name="u1D03D" format="2">
  <advance width="1224"/>
  <unicode hex="1D03D"/>
  <note>
u1D03D
</note>
  <outline>
    <contour>
      <point x="455" y="72" type="line"/>
      <point x="790" y="390" type="line"/>
      <point x="796" y="362"/>
      <point x="823" y="338"/>
      <point x="852" y="338" type="curve" smooth="yes"/>
      <point x="875" y="338"/>
      <point x="899" y="353"/>
      <point x="926" y="382" type="curve"/>
      <point x="926" y="355"/>
      <point x="944" y="341"/>
      <point x="980" y="332" type="curve" smooth="yes"/>
      <point x="1034" y="319" type="line" smooth="yes"/>
      <point x="1059" y="313"/>
      <point x="1071" y="303"/>
      <point x="1071" y="288" type="curve" smooth="yes"/>
      <point x="1071" y="286"/>
      <point x="1071" y="285"/>
      <point x="1070" y="283" type="curve"/>
      <point x="1068" y="284"/>
      <point x="1066" y="284"/>
      <point x="1064" y="284" type="curve" smooth="yes"/>
      <point x="1051" y="284"/>
      <point x="1044" y="275"/>
      <point x="1044" y="258" type="curve" smooth="yes"/>
      <point x="1044" y="245"/>
      <point x="1060" y="230"/>
      <point x="1080" y="230" type="curve" smooth="yes"/>
      <point x="1107" y="230"/>
      <point x="1121" y="257"/>
      <point x="1121" y="290" type="curve" smooth="yes"/>
      <point x="1121" y="326"/>
      <point x="1105" y="343"/>
      <point x="1068" y="352" type="curve" smooth="yes"/>
      <point x="1036" y="360" type="line" smooth="yes"/>
      <point x="1007" y="367"/>
      <point x="992" y="378"/>
      <point x="993" y="395" type="curve" smooth="yes"/>
      <point x="996" y="442" type="line"/>
      <point x="924" y="456" type="line"/>
      <point x="912" y="405"/>
      <point x="897" y="380"/>
      <point x="881" y="380" type="curve" smooth="yes"/>
      <point x="868" y="380"/>
      <point x="850" y="401"/>
      <point x="845" y="425" type="curve" smooth="yes"/>
      <point x="839" y="454"/>
      <point x="832" y="476"/>
      <point x="818" y="476" type="curve" smooth="yes"/>
      <point x="803" y="476"/>
      <point x="784" y="462"/>
      <point x="759" y="436" type="curve" smooth="yes"/>
      <point x="496" y="164" type="line"/>
      <point x="516" y="219"/>
      <point x="526" y="270"/>
      <point x="526" y="314" type="curve" smooth="yes"/>
      <point x="526" y="394"/>
      <point x="484" y="446"/>
      <point x="418" y="446" type="curve" smooth="yes"/>
      <point x="399" y="446"/>
      <point x="379" y="444"/>
      <point x="360" y="440" type="curve" smooth="yes"/>
      <point x="341" y="436"/>
      <point x="319" y="434"/>
      <point x="294" y="434" type="curve" smooth="yes"/>
      <point x="220" y="434"/>
      <point x="179" y="461"/>
      <point x="179" y="509" type="curve" smooth="yes"/>
      <point x="179" y="568"/>
      <point x="229" y="604"/>
      <point x="319" y="611" type="curve"/>
      <point x="325" y="583"/>
      <point x="346" y="563"/>
      <point x="370" y="563" type="curve" smooth="yes"/>
      <point x="401" y="563"/>
      <point x="434" y="589"/>
      <point x="434" y="613" type="curve" smooth="yes"/>
      <point x="434" y="642"/>
      <point x="401" y="656"/>
      <point x="334" y="656" type="curve" smooth="yes"/>
      <point x="215" y="656"/>
      <point x="103" y="583"/>
      <point x="103" y="494" type="curve" smooth="yes"/>
      <point x="103" y="424"/>
      <point x="159" y="383"/>
      <point x="288" y="383" type="curve" smooth="yes"/>
      <point x="304" y="383"/>
      <point x="321" y="385"/>
      <point x="337" y="387" type="curve" smooth="yes"/>
      <point x="354" y="389"/>
      <point x="374" y="390"/>
      <point x="397" y="390" type="curve" smooth="yes"/>
      <point x="455" y="390"/>
      <point x="469" y="353"/>
      <point x="469" y="290" type="curve" smooth="yes"/>
      <point x="469" y="202"/>
      <point x="448" y="146"/>
      <point x="396" y="72" type="curve"/>
    </contour>
    <contour>
      <point x="481" y="707" type="line"/>
      <point x="599" y="590" type="line"/>
      <point x="667" y="589" type="line"/>
      <point x="547" y="707" type="line"/>
    </contour>
    <contour>
      <point x="588" y="719" type="line"/>
      <point x="706" y="604" type="line"/>
      <point x="775" y="602" type="line"/>
      <point x="654" y="719" type="line"/>
    </contour>
  </outline>
</glyph>
<glyph name="u1D03E" format="2">
  <advance width="890"/>
  <unicode hex="1D03E"/>
  <note>
u1D03E
</note>
  <outline>
    <contour>
      <point x="280" y="293" type="curve"/>
      <point x="297" y="245"/>
      <point x="319" y="232"/>
      <point x="354" y="232" type="curve" smooth="yes"/>
      <point x="406" y="232"/>
      <point x="441" y="282"/>
      <point x="462" y="304" type="curve" smooth="yes"/>
      <point x="718" y="577" type="line"/>
      <point x="716" y="564"/>
      <point x="715" y="549"/>
      <point x="716" y="539" type="curve" smooth="yes"/>
      <point x="718" y="511" type="line" smooth="yes"/>
      <point x="719" y="496"/>
      <point x="720" y="487"/>
      <point x="734" y="487" type="curve" smooth="yes"/>
      <point x="749" y="487"/>
      <point x="775" y="502"/>
      <point x="779" y="517" type="curve"/>
      <point x="778" y="535"/>
      <point x="778" y="552"/>
      <point x="778" y="569" type="curve" smooth="yes"/>
      <point x="778" y="587"/>
      <point x="778" y="604"/>
      <point x="779" y="622" type="curve"/>
      <point x="786" y="647" type="line"/>
      <point x="786" y="657"/>
      <point x="780" y="662"/>
      <point x="769" y="662" type="curve" smooth="yes"/>
      <point x="757" y="662"/>
      <point x="729" y="633"/>
      <point x="721" y="624" type="curve" smooth="yes"/>
      <point x="439" y="340" type="line" smooth="yes"/>
      <point x="409" y="309"/>
      <point x="383" y="293"/>
      <point x="361" y="293" type="curve" smooth="yes"/>
      <point x="338" y="293"/>
      <point x="326" y="315"/>
      <point x="317" y="340" type="curve" smooth="yes"/>
      <point x="306" y="372"/>
      <point x="304" y="408"/>
      <point x="278" y="408" type="curve" smooth="yes"/>
      <point x="265" y="408"/>
      <point x="254" y="404"/>
      <point x="252" y="396" type="curve" smooth="yes"/>
      <point x="239" y="352" type="line" smooth="yes"/>
      <point x="226" y="309"/>
      <point x="208" y="287"/>
      <point x="185" y="287" type="curve" smooth="yes"/>
      <point x="164" y="287"/>
      <point x="154" y="306"/>
      <point x="154" y="344" type="curve" smooth="yes"/>
      <point x="154" y="390" type="line" smooth="yes"/>
      <point x="154" y="402"/>
      <point x="145" y="408"/>
      <point x="128" y="408" type="curve" smooth="yes"/>
      <point x="111" y="408"/>
      <point x="103" y="401"/>
      <point x="103" y="388" type="curve" smooth="yes"/>
      <point x="103" y="348" type="line" smooth="yes"/>
      <point x="103" y="271"/>
      <point x="131" y="218"/>
      <point x="187" y="218" type="curve" smooth="yes"/>
      <point x="227" y="218"/>
      <point x="258" y="243"/>
    </contour>
  </outline>
</glyph>
<glyph name="u1D03F" format="2">
  <advance width="965"/>
  <unicode hex="1D03F"/>
  <note>
u1D03F
</note>
  <outline>
    <contour>
      <point x="170" y="541" type="line"/>
      <point x="168" y="549"/>
      <point x="167" y="554"/>
      <point x="167" y="560" type="curve" smooth="yes"/>
      <point x="168" y="606"/>
      <point x="209" y="646"/>
      <point x="257" y="646" type="curve" smooth="yes"/>
      <point x="301" y="646"/>
      <point x="330" y="628"/>
      <point x="344" y="593" type="curve"/>
      <point x="337" y="581"/>
      <point x="334" y="565"/>
      <point x="334" y="546" type="curve" smooth="yes"/>
      <point x="334" y="520"/>
      <point x="346" y="496"/>
      <point x="366" y="496" type="curve" smooth="yes"/>
      <point x="390" y="496"/>
      <point x="401" y="518"/>
      <point x="401" y="541" type="curve" smooth="yes"/>
      <point x="401" y="550"/>
      <point x="399" y="562"/>
      <point x="395" y="578" type="curve"/>
      <point x="406" y="584"/>
      <point x="416" y="588"/>
      <point x="422" y="588" type="curve" smooth="yes"/>
      <point x="435" y="588"/>
      <point x="444" y="581"/>
      <point x="449" y="568" type="curve"/>
      <point x="442" y="553"/>
      <point x="439" y="540"/>
      <point x="439" y="528" type="curve" smooth="yes"/>
      <point x="439" y="503"/>
      <point x="449" y="491"/>
      <point x="468" y="491" type="curve" smooth="yes"/>
      <point x="489" y="491"/>
      <point x="499" y="503"/>
      <point x="499" y="528" type="curve" smooth="yes"/>
      <point x="499" y="538"/>
      <point x="498" y="549"/>
      <point x="496" y="559" type="curve"/>
      <point x="505" y="572"/>
      <point x="520" y="578"/>
      <point x="541" y="578" type="curve" smooth="yes"/>
      <point x="577" y="578"/>
      <point x="593" y="553"/>
      <point x="593" y="526" type="curve" smooth="yes"/>
      <point x="593" y="520" type="line"/>
      <point x="590" y="517"/>
      <point x="586" y="511"/>
      <point x="583" y="506" type="curve" smooth="yes"/>
      <point x="580" y="501"/>
      <point x="578" y="494"/>
      <point x="578" y="487" type="curve" smooth="yes"/>
      <point x="578" y="468"/>
      <point x="589" y="458"/>
      <point x="611" y="458" type="curve" smooth="yes"/>
      <point x="637" y="458"/>
      <point x="652" y="493"/>
      <point x="650" y="518" type="curve" smooth="yes"/>
      <point x="650" y="526" type="line"/>
      <point x="691" y="589"/>
      <point x="780" y="686"/>
      <point x="829" y="726" type="curve"/>
      <point x="822" y="733" type="line"/>
      <point x="738" y="669"/>
      <point x="677" y="612"/>
      <point x="640" y="562" type="curve"/>
      <point x="621" y="606"/>
      <point x="591" y="629"/>
      <point x="552" y="629" type="curve" smooth="yes"/>
      <point x="524" y="629"/>
      <point x="499" y="621"/>
      <point x="478" y="604" type="curve"/>
      <point x="465" y="624"/>
      <point x="447" y="634"/>
      <point x="426" y="634" type="curve" smooth="yes"/>
      <point x="409" y="634"/>
      <point x="394" y="629"/>
      <point x="382" y="620" type="curve"/>
      <point x="359" y="666"/>
      <point x="316" y="689"/>
      <point x="252" y="689" type="curve" smooth="yes"/>
      <point x="163" y="689"/>
      <point x="103" y="642"/>
      <point x="103" y="590" type="curve" smooth="yes"/>
      <point x="103" y="574"/>
      <point x="108" y="558"/>
      <point x="118" y="541" type="curve"/>
    </contour>
    <contour>
      <point x="173" y="447" type="curve" smooth="yes"/>
      <point x="164" y="447"/>
      <point x="155" y="447"/>
      <point x="146" y="446" type="curve" smooth="yes"/>
      <point x="139" y="445"/>
      <point x="135" y="434"/>
      <point x="135" y="416" type="curve" smooth="yes"/>
      <point x="135" y="409"/>
      <point x="138" y="380"/>
      <point x="138" y="372" type="curve" smooth="yes"/>
      <point x="136" y="277" type="line" smooth="yes"/>
      <point x="135" y="230"/>
      <point x="156" y="193"/>
      <point x="199" y="193" type="curve" smooth="yes"/>
      <point x="225" y="193"/>
      <point x="250" y="217"/>
      <point x="274" y="266" type="curve"/>
      <point x="276" y="223"/>
      <point x="315" y="182"/>
      <point x="355" y="182" type="curve" smooth="yes"/>
      <point x="385" y="182"/>
      <point x="414" y="194"/>
      <point x="442" y="217" type="curve"/>
      <point x="446" y="204"/>
      <point x="467" y="188"/>
      <point x="496" y="188" type="curve" smooth="yes"/>
      <point x="581" y="188"/>
      <point x="703" y="284"/>
      <point x="862" y="475" type="curve"/>
      <point x="852" y="478" type="line"/>
      <point x="810" y="438" type="line" smooth="yes"/>
      <point x="692" y="324"/>
      <point x="578" y="235"/>
      <point x="516" y="235" type="curve" smooth="yes"/>
      <point x="501" y="235"/>
      <point x="484" y="236"/>
      <point x="476" y="249" type="curve" smooth="yes"/>
      <point x="468" y="262"/>
      <point x="468" y="285"/>
      <point x="468" y="301" type="curve" smooth="yes"/>
      <point x="468" y="320"/>
      <point x="464" y="329"/>
      <point x="456" y="329" type="curve" smooth="yes"/>
      <point x="434" y="329" type="line" smooth="yes"/>
      <point x="421" y="329"/>
      <point x="415" y="322"/>
      <point x="415" y="308" type="curve" smooth="yes"/>
      <point x="415" y="280" type="line" smooth="yes"/>
      <point x="415" y="245"/>
      <point x="396" y="222"/>
      <point x="365" y="222" type="curve" smooth="yes"/>
      <point x="337" y="222"/>
      <point x="323" y="241"/>
      <point x="323" y="278" type="curve" smooth="yes"/>
      <point x="323" y="286"/>
      <point x="324" y="292"/>
      <point x="327" y="297" type="curve" smooth="yes"/>
      <point x="329" y="302"/>
      <point x="330" y="307"/>
      <point x="330" y="311" type="curve" smooth="yes"/>
      <point x="330" y="319"/>
      <point x="319" y="329"/>
      <point x="311" y="329" type="curve" smooth="yes"/>
      <point x="282" y="329" type="line" smooth="yes"/>
      <point x="270" y="329"/>
      <point x="259" y="320"/>
      <point x="250" y="302" type="curve" smooth="yes"/>
      <point x="238" y="277" type="line" smooth="yes"/>
      <point x="227" y="254"/>
      <point x="215" y="242"/>
      <point x="206" y="242" type="curve" smooth="yes"/>
      <point x="194" y="242"/>
      <point x="190" y="253"/>
      <point x="190" y="266" type="curve" smooth="yes"/>
      <point x="190" y="271"/>
      <point x="190" y="282"/>
      <point x="191" y="287" type="curve" smooth="yes"/>
      <point x="200" y="339" type="line" smooth="yes"/>
      <point x="206" y="373"/>
      <point x="210" y="396"/>
      <point x="210" y="408" type="curve" smooth="yes"/>
      <point x="210" y="423"/>
      <point x="208" y="432"/>
      <point x="201" y="438" type="curve" smooth="yes"/>
      <point x="192" y="446"/>
      <point x="190" y="447"/>
    </contour>
  </outline>
</glyph>
<glyph name="u1D040" format="2">
  <advance width="749"/>
  <unicode hex="1D040"/>
  <note>
u1D040
</note>
  <outline>
    <contour>
      <point x="228" y="348" type="curve"/>
      <point x="270" y="378" type="line" smooth="yes"/>
      <point x="277" y="383"/>
      <point x="315" y="404"/>
      <point x="336" y="417" type="curve" smooth="yes"/>
      <point x="355" y="429"/>
      <point x="370" y="440"/>
      <point x="370" y="449" type="curve" smooth="yes"/>
      <point x="370" y="460"/>
      <point x="363" y="466"/>
      <point x="348" y="466" type="curve" smooth="yes"/>
      <point x="345" y="466"/>
      <point x="330" y="465"/>
      <point x="313" y="463" type="curve" smooth="yes"/>
      <point x="295" y="461"/>
      <point x="275" y="460"/>
      <point x="266" y="460" type="curve" smooth="yes"/>
      <point x="241" y="460"/>
      <point x="215" y="464"/>
      <point x="189" y="474" type="curve" smooth="yes"/>
      <point x="162" y="484"/>
      <point x="142" y="487"/>
      <point x="128" y="487" type="curve" smooth="yes"/>
      <point x="114" y="487"/>
      <point x="103" y="477"/>
      <point x="103" y="463" type="curve" smooth="yes"/>
      <point x="103" y="432"/>
      <point x="139" y="416"/>
      <point x="210" y="416" type="curve" smooth="yes"/>
      <point x="230" y="416"/>
      <point x="250" y="418"/>
      <point x="271" y="422" type="curve"/>
      <point x="241" y="404"/>
      <point x="166" y="350"/>
      <point x="166" y="331" type="curve" smooth="yes"/>
      <point x="166" y="322"/>
      <point x="174" y="318"/>
      <point x="190" y="318" type="curve"/>
      <point x="251" y="311" type="line" smooth="yes"/>
      <point x="272" y="309"/>
      <point x="300" y="300"/>
      <point x="317" y="293" type="curve" smooth="yes"/>
      <point x="334" y="286"/>
      <point x="346" y="283"/>
      <point x="352" y="283" type="curve" smooth="yes"/>
      <point x="361" y="283"/>
      <point x="365" y="290"/>
      <point x="365" y="304" type="curve" smooth="yes"/>
      <point x="365" y="324"/>
      <point x="354" y="337"/>
      <point x="331" y="343" type="curve"/>
      <point x="281" y="345" type="line" smooth="yes"/>
      <point x="255" y="346"/>
      <point x="237" y="347"/>
    </contour>
    <contour>
      <point x="504" y="365" type="curve"/>
      <point x="510" y="371"/>
      <point x="528" y="385"/>
      <point x="570" y="408" type="curve" smooth="yes"/>
      <point x="619" y="435"/>
      <point x="646" y="456"/>
      <point x="646" y="467" type="curve" smooth="yes"/>
      <point x="646" y="476"/>
      <point x="639" y="481"/>
      <point x="624" y="481" type="curve" smooth="yes"/>
      <point x="611" y="481"/>
      <point x="598" y="480"/>
      <point x="585" y="479" type="curve" smooth="yes"/>
      <point x="571" y="478"/>
      <point x="555" y="476"/>
      <point x="541" y="476" type="curve" smooth="yes"/>
      <point x="516" y="476"/>
      <point x="483" y="485"/>
      <point x="439" y="500" type="curve" smooth="yes"/>
      <point x="430" y="503"/>
      <point x="421" y="504"/>
      <point x="412" y="504" type="curve" smooth="yes"/>
      <point x="395" y="504"/>
      <point x="386" y="495"/>
      <point x="386" y="478" type="curve" smooth="yes"/>
      <point x="386" y="448"/>
      <point x="420" y="433"/>
      <point x="487" y="433" type="curve" smooth="yes"/>
      <point x="510" y="433"/>
      <point x="530" y="435"/>
      <point x="547" y="438" type="curve"/>
      <point x="531" y="431"/>
      <point x="442" y="367"/>
      <point x="442" y="348" type="curve" smooth="yes"/>
      <point x="442" y="339"/>
      <point x="450" y="334"/>
      <point x="467" y="334" type="curve" smooth="yes"/>
      <point x="482" y="334"/>
      <point x="518" y="328"/>
      <point x="553" y="322" type="curve" smooth="yes"/>
      <point x="587" y="316"/>
      <point x="612" y="301"/>
      <point x="625" y="301" type="curve" smooth="yes"/>
      <point x="636" y="301"/>
      <point x="641" y="308"/>
      <point x="641" y="322" type="curve" smooth="yes"/>
      <point x="641" y="334"/>
      <point x="632" y="354"/>
      <point x="607" y="360" type="curve"/>
      <point x="577" y="360" type="line" smooth="yes"/>
      <point x="533" y="360"/>
      <point x="516" y="362"/>
    </contour>
  </outline>
</glyph>
<glyph name="u1D041" format="2">
  <advance width="828"/>
  <unicode hex="1D041"/>
  <note>
u1D041
</note>
  <outline>
    <contour>
      <point x="697" y="620" type="line"/>
      <point x="288" y="262" type="line"/>
      <point x="249" y="294" type="line" smooth="yes"/>
      <point x="203" y="332"/>
      <point x="172" y="352"/>
      <point x="154" y="352" type="curve" smooth="yes"/>
      <point x="123" y="352"/>
      <point x="103" y="323"/>
      <point x="103" y="296" type="curve" smooth="yes"/>
      <point x="103" y="281"/>
      <point x="112" y="268"/>
      <point x="131" y="260" type="curve" smooth="yes"/>
      <point x="230" y="216" type="line" smooth="yes"/>
      <point x="247" y="208"/>
      <point x="263" y="204"/>
      <point x="278" y="204" type="curve" smooth="yes"/>
      <point x="297" y="204"/>
      <point x="321" y="214"/>
      <point x="343" y="236" type="curve" smooth="yes"/>
      <point x="725" y="620" type="line"/>
    </contour>
  </outline>
</glyph>
<glyph name="u1D042" format="2">
  <advance width="636"/>
  <unicode hex="1D042"/>
  <note>
u1D042
</note>
  <outline>
    <contour>
      <point x="504" y="650" type="curve"/>
      <point x="462" y="619"/>
      <point x="406" y="549"/>
      <point x="336" y="442" type="curve"/>
      <point x="190" y="708" type="line"/>
      <point x="103" y="676" type="line"/>
      <point x="137" y="607" type="line" smooth="yes"/>
      <point x="146" y="588"/>
      <point x="160" y="578"/>
      <point x="176" y="578" type="curve" smooth="yes"/>
      <point x="184" y="578"/>
      <point x="192" y="580"/>
      <point x="199" y="584" type="curve"/>
      <point x="302" y="391" type="line"/>
      <point x="245" y="305"/>
      <point x="217" y="254"/>
      <point x="217" y="240" type="curve" smooth="yes"/>
      <point x="217" y="228"/>
      <point x="229" y="218"/>
      <point x="240" y="218" type="curve" smooth="yes"/>
      <point x="250" y="218"/>
      <point x="261" y="231"/>
      <point x="275" y="257" type="curve" smooth="yes"/>
      <point x="289" y="284"/>
      <point x="306" y="316"/>
      <point x="325" y="354" type="curve"/>
      <point x="361" y="285" type="line" smooth="yes"/>
      <point x="376" y="256"/>
      <point x="393" y="236"/>
      <point x="404" y="226" type="curve" smooth="yes"/>
      <point x="416" y="216"/>
      <point x="428" y="210"/>
      <point x="442" y="210" type="curve" smooth="yes"/>
      <point x="463" y="210"/>
      <point x="475" y="226"/>
      <point x="475" y="242" type="curve" smooth="yes"/>
      <point x="475" y="251"/>
      <point x="471" y="260"/>
      <point x="463" y="269" type="curve" smooth="yes"/>
      <point x="455" y="277"/>
      <point x="438" y="286"/>
      <point x="415" y="296" type="curve"/>
      <point x="354" y="406" type="line"/>
      <point x="385" y="459"/>
      <point x="420" y="508"/>
      <point x="460" y="552" type="curve"/>
      <point x="491" y="555"/>
      <point x="533" y="583"/>
      <point x="533" y="612" type="curve" smooth="yes"/>
      <point x="533" y="635"/>
      <point x="523" y="648"/>
    </contour>
  </outline>
</glyph>
<glyph name="u1D043" format="2">
  <advance width="1222"/>
  <unicode hex="1D043"/>
  <note>
u1D043
</note>
  <outline>
    <contour>
      <point x="707" y="487" type="curve"/>
      <point x="677" y="475" type="line"/>
      <point x="674" y="462"/>
      <point x="673" y="457"/>
      <point x="672" y="447" type="curve" smooth="yes"/>
      <point x="671" y="428"/>
      <point x="676" y="413"/>
      <point x="684" y="404" type="curve"/>
      <point x="675" y="382"/>
      <point x="661" y="362"/>
      <point x="624" y="362" type="curve" smooth="yes"/>
      <point x="597" y="362"/>
      <point x="579" y="368"/>
      <point x="568" y="380" type="curve"/>
      <point x="568" y="408"/>
      <point x="559" y="433"/>
      <point x="541" y="456" type="curve"/>
      <point x="510" y="444" type="line"/>
      <point x="507" y="437"/>
      <point x="506" y="427"/>
      <point x="506" y="416" type="curve" smooth="yes"/>
      <point x="506" y="397"/>
      <point x="511" y="383"/>
      <point x="520" y="372" type="curve"/>
      <point x="518" y="348"/>
      <point x="494" y="319"/>
      <point x="446" y="319" type="curve" smooth="yes"/>
      <point x="407" y="319"/>
      <point x="384" y="343"/>
      <point x="380" y="380" type="curve"/>
      <point x="352" y="366"/>
      <point x="338" y="350"/>
      <point x="338" y="331" type="curve" smooth="yes"/>
      <point x="338" y="302"/>
      <point x="374" y="278"/>
      <point x="442" y="278" type="curve" smooth="yes"/>
      <point x="498" y="278"/>
      <point x="540" y="304"/>
      <point x="556" y="343" type="curve"/>
      <point x="563" y="333"/>
      <point x="590" y="323"/>
      <point x="622" y="323" type="curve" smooth="yes"/>
      <point x="667" y="323"/>
      <point x="697" y="341"/>
      <point x="714" y="377" type="curve"/>
      <point x="728" y="365"/>
      <point x="763" y="355"/>
      <point x="790" y="355" type="curve" smooth="yes"/>
      <point x="829" y="355"/>
      <point x="870" y="379"/>
      <point x="880" y="418" type="curve"/>
      <point x="893" y="408"/>
      <point x="916" y="403"/>
      <point x="950" y="403" type="curve" smooth="yes"/>
      <point x="1032" y="403"/>
      <point x="1101" y="483"/>
      <point x="1117" y="574" type="curve"/>
      <point x="1108" y="577" type="line"/>
      <point x="1073" y="499"/>
      <point x="1008" y="439"/>
      <point x="952" y="439" type="curve" smooth="yes"/>
      <point x="907" y="439"/>
      <point x="880" y="468"/>
      <point x="872" y="526" type="curve"/>
      <point x="850" y="518" type="line"/>
      <point x="842" y="511"/>
      <point x="838" y="500"/>
      <point x="838" y="484" type="curve" smooth="yes"/>
      <point x="838" y="469"/>
      <point x="843" y="456"/>
      <point x="854" y="444" type="curve"/>
      <point x="845" y="413"/>
      <point x="823" y="397"/>
      <point x="790" y="397" type="curve" smooth="yes"/>
      <point x="761" y="397"/>
      <point x="734" y="408"/>
      <point x="725" y="418" type="curve"/>
      <point x="725" y="425" type="line" smooth="yes"/>
      <point x="725" y="449"/>
      <point x="719" y="470"/>
    </contour>
    <contour>
      <point x="103" y="252" type="curve"/>
      <point x="118" y="228" type="line"/>
      <point x="140" y="226"/>
      <point x="151" y="225"/>
      <point x="168" y="225" type="curve" smooth="yes"/>
      <point x="254" y="225"/>
      <point x="301" y="262"/>
      <point x="301" y="329" type="curve" smooth="yes"/>
      <point x="301" y="372"/>
      <point x="268" y="391"/>
      <point x="239" y="391" type="curve" smooth="yes"/>
      <point x="208" y="391"/>
      <point x="180" y="377"/>
      <point x="180" y="353" type="curve" smooth="yes"/>
      <point x="180" y="335"/>
      <point x="192" y="328"/>
      <point x="205" y="323" type="curve" smooth="yes"/>
      <point x="218" y="318"/>
      <point x="232" y="320"/>
      <point x="232" y="308" type="curve" smooth="yes"/>
      <point x="232" y="271"/>
      <point x="189" y="252"/>
    </contour>
    <contour>
      <point x="103" y="460" type="line"/>
      <point x="118" y="434" type="line"/>
      <point x="133" y="433"/>
      <point x="149" y="432"/>
      <point x="164" y="432" type="curve" smooth="yes"/>
      <point x="255" y="432"/>
      <point x="301" y="466"/>
      <point x="301" y="535" type="curve" smooth="yes"/>
      <point x="301" y="577"/>
      <point x="269" y="599"/>
      <point x="239" y="599" type="curve" smooth="yes"/>
      <point x="208" y="599"/>
      <point x="180" y="584"/>
      <point x="180" y="560" type="curve" smooth="yes"/>
      <point x="180" y="540"/>
      <point x="193" y="534"/>
      <point x="207" y="529" type="curve" smooth="yes"/>
      <point x="220" y="524"/>
      <point x="232" y="526"/>
      <point x="232" y="516" type="curve" smooth="yes"/>
      <point x="232" y="479"/>
      <point x="190" y="460"/>
      <point x="117" y="460" type="curve" smooth="yes"/>
    </contour>
  </outline>
</glyph>
<glyph name="u1D044" format="2">
  <advance width="847"/>
  <unicode hex="1D044"/>
  <note>
u1D044
</note>
  <outline>
    <contour>
      <point x="365" y="401" type="curve"/>
      <point x="365" y="396" type="line" smooth="yes"/>
      <point x="365" y="359"/>
      <point x="398" y="331"/>
      <point x="434" y="331" type="curve" smooth="yes"/>
      <point x="469" y="331"/>
      <point x="493" y="353"/>
      <point x="506" y="396" type="curve"/>
      <point x="517" y="349"/>
      <point x="541" y="334"/>
      <point x="584" y="334" type="curve" smooth="yes"/>
      <point x="620" y="334"/>
      <point x="643" y="348"/>
      <point x="654" y="377" type="curve"/>
      <point x="656" y="345"/>
      <point x="684" y="322"/>
      <point x="715" y="322" type="curve" smooth="yes"/>
      <point x="734" y="322"/>
      <point x="743" y="329"/>
      <point x="743" y="343" type="curve" smooth="yes"/>
      <point x="743" y="346"/>
      <point x="740" y="353"/>
      <point x="734" y="364" type="curve" smooth="yes"/>
      <point x="728" y="376"/>
      <point x="723" y="388"/>
      <point x="718" y="404" type="curve" smooth="yes"/>
      <point x="692" y="490" type="line"/>
      <point x="680" y="489"/>
      <point x="668" y="486"/>
      <point x="658" y="483" type="curve" smooth="yes"/>
      <point x="653" y="481"/>
      <point x="646" y="478"/>
      <point x="642" y="476" type="curve"/>
      <point x="647" y="439" type="line"/>
      <point x="647" y="404"/>
      <point x="626" y="370"/>
      <point x="595" y="370" type="curve" smooth="yes"/>
      <point x="574" y="370"/>
      <point x="563" y="383"/>
      <point x="562" y="411" type="curve" smooth="yes"/>
      <point x="561" y="431" type="line" smooth="yes"/>
      <point x="560" y="454"/>
      <point x="551" y="467"/>
      <point x="538" y="467" type="curve" smooth="yes"/>
      <point x="533" y="467"/>
      <point x="519" y="464"/>
      <point x="498" y="458" type="curve"/>
      <point x="498" y="417"/>
      <point x="477" y="380"/>
      <point x="444" y="380" type="curve" smooth="yes"/>
      <point x="425" y="380"/>
      <point x="416" y="388"/>
      <point x="416" y="404" type="curve" smooth="yes"/>
      <point x="416" y="415"/>
      <point x="418" y="426"/>
      <point x="423" y="437" type="curve" smooth="yes"/>
      <point x="428" y="448"/>
      <point x="430" y="458"/>
      <point x="430" y="466" type="curve" smooth="yes"/>
      <point x="430" y="476"/>
      <point x="425" y="481"/>
      <point x="416" y="481" type="curve" smooth="yes"/>
      <point x="414" y="481"/>
      <point x="411" y="480"/>
      <point x="407" y="478" type="curve" smooth="yes"/>
      <point x="402" y="475"/>
      <point x="380" y="454"/>
      <point x="338" y="417" type="curve" smooth="yes"/>
      <point x="274" y="360" type="line" smooth="yes"/>
      <point x="209" y="303"/>
      <point x="157" y="254"/>
      <point x="103" y="209" type="curve"/>
      <point x="111" y="204" type="line" smooth="yes"/>
      <point x="116" y="201"/>
      <point x="125" y="199"/>
      <point x="136" y="199" type="curve" smooth="yes"/>
      <point x="176" y="199"/>
      <point x="297" y="312"/>
    </contour>
  </outline>
</glyph>
<glyph name="u1D045" format="2">
  <advance width="1070"/>
  <unicode hex="1D045"/>
  <note>
u1D045
</note>
  <outline>
    <contour>
      <point x="707" y="510" type="line"/>
      <point x="702" y="550"/>
      <point x="693" y="583"/>
      <point x="681" y="606" type="curve" smooth="yes"/>
      <point x="669" y="629"/>
      <point x="655" y="641"/>
      <point x="640" y="641" type="curve" smooth="yes"/>
      <point x="611" y="641"/>
      <point x="581" y="588"/>
      <point x="570" y="516" type="curve"/>
      <point x="510" y="521" type="line"/>
      <point x="484" y="531" type="line" smooth="yes"/>
      <point x="479" y="533"/>
      <point x="474" y="535"/>
      <point x="469" y="535" type="curve" smooth="yes"/>
      <point x="460" y="535"/>
      <point x="455" y="527"/>
      <point x="455" y="511" type="curve" smooth="yes"/>
      <point x="455" y="498"/>
      <point x="462" y="491"/>
      <point x="476" y="491" type="curve" smooth="yes"/>
      <point x="568" y="490" type="line"/>
      <point x="568" y="460" type="line"/>
      <point x="380" y="468" type="line"/>
      <point x="366" y="480"/>
      <point x="343" y="495"/>
      <point x="312" y="511" type="curve"/>
      <point x="372" y="595" type="line"/>
      <point x="325" y="584" type="line"/>
      <point x="283" y="526" type="line"/>
      <point x="260" y="530"/>
      <point x="240" y="533"/>
      <point x="228" y="533" type="curve"/>
      <point x="290" y="624" type="line"/>
      <point x="245" y="613" type="line"/>
      <point x="115" y="430" type="line"/>
      <point x="139" y="411"/>
      <point x="206" y="389"/>
      <point x="226" y="386" type="curve"/>
      <point x="290" y="478" type="line"/>
      <point x="360" y="439"/>
      <point x="395" y="397"/>
      <point x="395" y="353" type="curve" smooth="yes"/>
      <point x="395" y="289"/>
      <point x="326" y="242"/>
      <point x="230" y="242" type="curve" smooth="yes"/>
      <point x="194" y="242"/>
      <point x="170" y="246"/>
      <point x="157" y="254" type="curve" smooth="yes"/>
      <point x="144" y="262"/>
      <point x="138" y="271"/>
      <point x="138" y="280" type="curve" smooth="yes"/>
      <point x="138" y="299"/>
      <point x="150" y="311"/>
      <point x="174" y="314" type="curve"/>
      <point x="174" y="295"/>
      <point x="187" y="274"/>
      <point x="206" y="274" type="curve" smooth="yes"/>
      <point x="218" y="274"/>
      <point x="235" y="282"/>
      <point x="235" y="300" type="curve" smooth="yes"/>
      <point x="235" y="319"/>
      <point x="218" y="340"/>
      <point x="179" y="340" type="curve" smooth="yes"/>
      <point x="134" y="340"/>
      <point x="103" y="315"/>
      <point x="103" y="280" type="curve" smooth="yes"/>
      <point x="103" y="235"/>
      <point x="158" y="210"/>
      <point x="230" y="210" type="curve" smooth="yes"/>
      <point x="350" y="210"/>
      <point x="442" y="269"/>
      <point x="442" y="355" type="curve" smooth="yes"/>
      <point x="442" y="386"/>
      <point x="432" y="414"/>
      <point x="412" y="438" type="curve"/>
      <point x="568" y="434" type="line"/>
      <point x="568" y="345"/>
      <point x="592" y="301"/>
      <point x="640" y="301" type="curve" smooth="yes"/>
      <point x="684" y="301"/>
      <point x="708" y="345"/>
      <point x="712" y="432" type="curve"/>
      <point x="749" y="432" type="line"/>
      <point x="753" y="343"/>
      <point x="774" y="301"/>
      <point x="821" y="301" type="curve" smooth="yes"/>
      <point x="867" y="301"/>
      <point x="891" y="344"/>
      <point x="893" y="430" type="curve"/>
      <point x="956" y="430" type="line"/>
      <point x="966" y="449" type="line"/>
      <point x="893" y="449" type="line"/>
      <point x="893" y="456"/>
      <point x="893" y="462"/>
      <point x="893" y="469" type="curve" smooth="yes"/>
      <point x="893" y="473"/>
      <point x="893" y="477"/>
      <point x="892" y="481" type="curve"/>
      <point x="956" y="481" type="line"/>
      <point x="966" y="502" type="line"/>
      <point x="890" y="504" type="line"/>
      <point x="882" y="581"/>
      <point x="854" y="641"/>
      <point x="821" y="641" type="curve" smooth="yes"/>
      <point x="792" y="641"/>
      <point x="762" y="579"/>
      <point x="754" y="509" type="curve"/>
    </contour>
    <contour>
      <point x="164" y="442" type="curve"/>
      <point x="209" y="506" type="line"/>
      <point x="224" y="504"/>
      <point x="241" y="499"/>
      <point x="260" y="491" type="curve"/>
      <point x="210" y="422" type="line"/>
      <point x="197" y="424"/>
      <point x="181" y="431"/>
    </contour>
    <contour>
      <point x="786" y="509" type="line"/>
      <point x="790" y="531"/>
      <point x="794" y="550"/>
      <point x="802" y="566" type="curve" smooth="yes"/>
      <point x="809" y="581"/>
      <point x="815" y="589"/>
      <point x="821" y="589" type="curve" smooth="yes"/>
      <point x="835" y="589"/>
      <point x="846" y="561"/>
      <point x="854" y="506" type="curve"/>
    </contour>
    <contour>
      <point x="674" y="433" type="line"/>
      <point x="672" y="388"/>
      <point x="661" y="365"/>
      <point x="640" y="365" type="curve" smooth="yes"/>
      <point x="617" y="365"/>
      <point x="604" y="388"/>
      <point x="602" y="433" type="curve"/>
    </contour>
    <contour>
      <point x="857" y="430" type="line"/>
      <point x="853" y="387"/>
      <point x="841" y="365"/>
      <point x="821" y="365" type="curve" smooth="yes"/>
      <point x="813" y="365"/>
      <point x="805" y="369"/>
      <point x="798" y="378" type="curve" smooth="yes"/>
      <point x="791" y="387"/>
      <point x="786" y="405"/>
      <point x="785" y="432" type="curve"/>
    </contour>
    <contour>
      <point x="605" y="511" type="line"/>
      <point x="608" y="534"/>
      <point x="613" y="553"/>
      <point x="620" y="567" type="curve" smooth="yes"/>
      <point x="627" y="581"/>
      <point x="633" y="589"/>
      <point x="640" y="589" type="curve" smooth="yes"/>
      <point x="646" y="589"/>
      <point x="651" y="582"/>
      <point x="658" y="567" type="curve" smooth="yes"/>
      <point x="664" y="553"/>
      <point x="668" y="534"/>
      <point x="672" y="510" type="curve"/>
    </contour>
    <contour>
      <point x="785" y="452" type="line"/>
      <point x="785" y="484" type="line"/>
      <point x="858" y="484" type="line"/>
      <point x="858" y="452" type="line"/>
    </contour>
    <contour>
      <point x="602" y="458" type="line"/>
      <point x="602" y="487" type="line"/>
      <point x="674" y="487" type="line"/>
      <point x="675" y="483"/>
      <point x="676" y="476"/>
      <point x="676" y="471" type="curve" smooth="yes"/>
      <point x="676" y="456" type="line"/>
    </contour>
    <contour>
      <point x="749" y="455" type="line"/>
      <point x="712" y="455" type="line"/>
      <point x="712" y="468"/>
      <point x="711" y="475"/>
      <point x="710" y="485" type="curve"/>
      <point x="749" y="485" type="line"/>
    </contour>
  </outline>
</glyph>
<glyph name="u1D046" format="2">
  <advance width="698"/>
  <unicode hex="1D046"/>
  <note>
u1D046
</note>
  <outline>
    <contour>
      <point x="595" y="330" type="curve"/>
      <point x="595" y="338" type="line"/>
      <point x="551" y="366"/>
      <point x="527" y="380"/>
      <point x="467" y="380" type="curve" smooth="yes"/>
      <point x="445" y="380"/>
      <point x="394" y="376"/>
      <point x="285" y="364" type="curve" smooth="yes"/>
      <point x="271" y="362"/>
      <point x="256" y="361"/>
      <point x="242" y="361" type="curve" smooth="yes"/>
      <point x="208" y="361"/>
      <point x="174" y="375"/>
      <point x="174" y="391" type="curve" smooth="yes"/>
      <point x="174" y="402"/>
      <point x="184" y="408"/>
      <point x="204" y="408" type="curve" smooth="yes"/>
      <point x="224" y="408"/>
      <point x="243" y="406"/>
      <point x="260" y="401" type="curve"/>
      <point x="235" y="428"/>
      <point x="201" y="442"/>
      <point x="156" y="442" type="curve" smooth="yes"/>
      <point x="121" y="442"/>
      <point x="103" y="434"/>
      <point x="103" y="418" type="curve" smooth="yes"/>
      <point x="103" y="397"/>
      <point x="128" y="378"/>
      <point x="179" y="361" type="curve" smooth="yes"/>
      <point x="229" y="344"/>
      <point x="287" y="336"/>
      <point x="353" y="336" type="curve" smooth="yes"/>
      <point x="375" y="336"/>
      <point x="396" y="337"/>
      <point x="417" y="340" type="curve" smooth="yes"/>
      <point x="440" y="343"/>
      <point x="462" y="344"/>
      <point x="484" y="344" type="curve" smooth="yes"/>
      <point x="522" y="344"/>
      <point x="560" y="339"/>
    </contour>
  </outline>
</glyph>
<glyph name="u1D047" format="2">
  <advance width="694"/>
  <unicode hex="1D047"/>
  <note>
u1D047
</note>
  <outline>
    <contour>
      <point x="103" y="396" type="curve"/>
      <point x="103" y="388" type="line"/>
      <point x="133" y="358"/>
      <point x="170" y="342"/>
      <point x="215" y="343" type="curve" smooth="yes"/>
      <point x="476" y="348" type="line" smooth="yes"/>
      <point x="509" y="349"/>
      <point x="546" y="345"/>
      <point x="590" y="338" type="curve"/>
      <point x="590" y="346" type="line"/>
      <point x="549" y="374"/>
      <point x="512" y="389"/>
      <point x="478" y="388" type="curve" smooth="yes"/>
      <point x="238" y="382" type="line" smooth="yes"/>
      <point x="182" y="381"/>
      <point x="123" y="387"/>
    </contour>
  </outline>
</glyph>
<glyph name="u1D048" format="2">
  <advance width="698"/>
  <unicode hex="1D048"/>
  <note>
u1D048
</note>
  <outline>
    <contour>
      <point x="103" y="370" type="curve"/>
      <point x="103" y="361" type="line"/>
      <point x="128" y="342"/>
      <point x="156" y="333"/>
      <point x="187" y="333" type="curve" smooth="yes"/>
      <point x="227" y="333"/>
      <point x="289" y="343"/>
      <point x="373" y="364" type="curve" smooth="yes"/>
      <point x="458" y="385"/>
      <point x="531" y="395"/>
      <point x="595" y="395" type="curve"/>
      <point x="595" y="403" type="line"/>
      <point x="562" y="417"/>
      <point x="530" y="425"/>
      <point x="499" y="425" type="curve" smooth="yes"/>
      <point x="472" y="425"/>
      <point x="416" y="415"/>
      <point x="331" y="396" type="curve" smooth="yes"/>
      <point x="245" y="377"/>
      <point x="181" y="368"/>
      <point x="137" y="367" type="curve" smooth="yes"/>
      <point x="126" y="367"/>
      <point x="114" y="368"/>
    </contour>
  </outline>
</glyph>
<glyph name="u1D049" format="2">
  <advance width="719"/>
  <unicode hex="1D049"/>
  <note>
u1D049
</note>
  <outline>
    <contour>
      <point x="487" y="418" type="curve"/>
      <point x="510" y="413"/>
      <point x="539" y="396"/>
      <point x="539" y="372" type="curve" smooth="yes"/>
      <point x="539" y="337"/>
      <point x="503" y="318"/>
      <point x="446" y="318" type="curve" smooth="yes"/>
      <point x="335" y="318"/>
      <point x="215" y="361"/>
      <point x="215" y="401" type="curve" smooth="yes"/>
      <point x="215" y="407"/>
      <point x="220" y="410"/>
      <point x="231" y="410" type="curve" smooth="yes"/>
      <point x="237" y="410"/>
      <point x="244" y="409"/>
      <point x="250" y="408" type="curve"/>
      <point x="250" y="416" type="line"/>
      <point x="225" y="427"/>
      <point x="197" y="432"/>
      <point x="164" y="432" type="curve" smooth="yes"/>
      <point x="124" y="432"/>
      <point x="103" y="426"/>
      <point x="103" y="415" type="curve" smooth="yes"/>
      <point x="103" y="393"/>
      <point x="140" y="367"/>
      <point x="214" y="339" type="curve" smooth="yes"/>
      <point x="288" y="311"/>
      <point x="365" y="296"/>
      <point x="446" y="296" type="curve" smooth="yes"/>
      <point x="555" y="296"/>
      <point x="614" y="320"/>
      <point x="614" y="374" type="curve" smooth="yes"/>
      <point x="614" y="412"/>
      <point x="589" y="430"/>
      <point x="541" y="430" type="curve" smooth="yes"/>
      <point x="520" y="430"/>
      <point x="501" y="426"/>
    </contour>
  </outline>
</glyph>
<glyph name="u1D04A" format="2">
  <advance width="718"/>
  <unicode hex="1D04A"/>
  <note>
u1D04A
</note>
  <outline>
    <contour>
      <point x="257" y="413" type="curve"/>
      <point x="232" y="437"/>
      <point x="201" y="449"/>
      <point x="163" y="449" type="curve" smooth="yes"/>
      <point x="123" y="449"/>
      <point x="103" y="441"/>
      <point x="103" y="424" type="curve" smooth="yes"/>
      <point x="103" y="403"/>
      <point x="122" y="385"/>
      <point x="159" y="369" type="curve" smooth="yes"/>
      <point x="197" y="353"/>
      <point x="242" y="344"/>
      <point x="296" y="344" type="curve" smooth="yes"/>
      <point x="343" y="344"/>
      <point x="388" y="348"/>
      <point x="430" y="354" type="curve"/>
      <point x="467" y="377" type="line"/>
      <point x="468" y="366"/>
      <point x="476" y="355"/>
      <point x="490" y="346" type="curve"/>
      <point x="467" y="318" type="line"/>
      <point x="498" y="293" type="line"/>
      <point x="521" y="323" type="line"/>
      <point x="557" y="304"/>
      <point x="580" y="294"/>
      <point x="590" y="294" type="curve" smooth="yes"/>
      <point x="603" y="294"/>
      <point x="611" y="296"/>
      <point x="613" y="301" type="curve"/>
      <point x="613" y="304" type="line"/>
      <point x="578" y="317"/>
      <point x="553" y="331"/>
      <point x="539" y="343" type="curve"/>
      <point x="550" y="355" type="line"/>
      <point x="559" y="373" type="line"/>
      <point x="559" y="383"/>
      <point x="549" y="391"/>
      <point x="539" y="391" type="curve" smooth="yes"/>
      <point x="534" y="391"/>
      <point x="527" y="389"/>
      <point x="521" y="382" type="curve" smooth="yes"/>
      <point x="510" y="370" type="line"/>
      <point x="484" y="404" type="line"/>
      <point x="432" y="384"/>
      <point x="339" y="365"/>
      <point x="278" y="365" type="curve" smooth="yes"/>
      <point x="241" y="365"/>
      <point x="215" y="369"/>
      <point x="201" y="376" type="curve" smooth="yes"/>
      <point x="187" y="383"/>
      <point x="179" y="390"/>
      <point x="179" y="397" type="curve" smooth="yes"/>
      <point x="179" y="409"/>
      <point x="192" y="417"/>
      <point x="214" y="417" type="curve" smooth="yes"/>
      <point x="224" y="417"/>
      <point x="245" y="415"/>
    </contour>
  </outline>
</glyph>
<glyph name="u1D04B" format="2">
  <advance width="916"/>
  <unicode hex="1D04B"/>
  <note>
u1D04B
</note>
  <outline>
    <contour>
      <point x="737" y="377" type="curve"/>
      <point x="722" y="370" type="line"/>
      <point x="708" y="354" type="line"/>
      <point x="695" y="369"/>
      <point x="687" y="380"/>
      <point x="683" y="388" type="curve"/>
      <point x="634" y="388" type="line"/>
      <point x="622" y="376" type="line" smooth="yes"/>
      <point x="602" y="355"/>
      <point x="578" y="344"/>
      <point x="547" y="344" type="curve" smooth="yes"/>
      <point x="521" y="344"/>
      <point x="500" y="349"/>
      <point x="487" y="359" type="curve" smooth="yes"/>
      <point x="474" y="369"/>
      <point x="467" y="376"/>
      <point x="467" y="383" type="curve" smooth="yes"/>
      <point x="467" y="396"/>
      <point x="475" y="405"/>
      <point x="490" y="412" type="curve"/>
      <point x="490" y="416" type="line"/>
      <point x="413" y="416" type="line"/>
      <point x="360" y="377"/>
      <point x="312" y="353"/>
      <point x="247" y="353" type="curve" smooth="yes"/>
      <point x="203" y="353"/>
      <point x="180" y="360"/>
      <point x="180" y="374" type="curve" smooth="yes"/>
      <point x="180" y="392"/>
      <point x="206" y="401"/>
      <point x="257" y="401" type="curve"/>
      <point x="234" y="417"/>
      <point x="208" y="425"/>
      <point x="179" y="425" type="curve" smooth="yes"/>
      <point x="155" y="425"/>
      <point x="136" y="421"/>
      <point x="123" y="415" type="curve" smooth="yes"/>
      <point x="110" y="409"/>
      <point x="103" y="398"/>
      <point x="103" y="388" type="curve" smooth="yes"/>
      <point x="103" y="372"/>
      <point x="116" y="358"/>
      <point x="143" y="347" type="curve" smooth="yes"/>
      <point x="168" y="337"/>
      <point x="204" y="330"/>
      <point x="247" y="330" type="curve" smooth="yes"/>
      <point x="296" y="330"/>
      <point x="384" y="352"/>
      <point x="413" y="372" type="curve"/>
      <point x="451" y="338"/>
      <point x="495" y="322"/>
      <point x="547" y="322" type="curve" smooth="yes"/>
      <point x="591" y="322"/>
      <point x="629" y="335"/>
      <point x="662" y="362" type="curve"/>
      <point x="664" y="357"/>
      <point x="672" y="347"/>
      <point x="689" y="330" type="curve"/>
      <point x="665" y="302" type="line"/>
      <point x="697" y="278" type="line"/>
      <point x="722" y="310" type="line"/>
      <point x="750" y="290"/>
      <point x="773" y="280"/>
      <point x="790" y="280" type="curve" smooth="yes"/>
      <point x="803" y="280"/>
      <point x="810" y="282"/>
      <point x="812" y="287" type="curve"/>
      <point x="812" y="290" type="line"/>
      <point x="781" y="300"/>
      <point x="756" y="313"/>
      <point x="737" y="329" type="curve"/>
      <point x="750" y="344"/>
      <point x="757" y="354"/>
      <point x="757" y="360" type="curve" smooth="yes"/>
      <point x="757" y="371"/>
      <point x="750" y="377"/>
    </contour>
  </outline>
</glyph>
<glyph name="u1D04C" format="2">
  <advance width="919"/>
  <unicode hex="1D04C"/>
  <note>
u1D04C
</note>
  <outline>
    <contour>
      <point x="758" y="360" type="curve" smooth="yes"/>
      <point x="758" y="371"/>
      <point x="752" y="377"/>
      <point x="740" y="377" type="curve" smooth="yes"/>
      <point x="735" y="377"/>
      <point x="729" y="375"/>
      <point x="725" y="370" type="curve" smooth="yes"/>
      <point x="712" y="354" type="line"/>
      <point x="700" y="364"/>
      <point x="690" y="375"/>
      <point x="684" y="388" type="curve"/>
      <point x="636" y="388" type="line"/>
      <point x="599" y="351"/>
      <point x="578" y="344"/>
      <point x="550" y="344" type="curve" smooth="yes"/>
      <point x="522" y="344"/>
      <point x="502" y="349"/>
      <point x="488" y="359" type="curve" smooth="yes"/>
      <point x="475" y="369"/>
      <point x="468" y="376"/>
      <point x="468" y="383" type="curve" smooth="yes"/>
      <point x="468" y="396"/>
      <point x="476" y="405"/>
      <point x="491" y="412" type="curve"/>
      <point x="491" y="416" type="line"/>
      <point x="412" y="416" type="line"/>
      <point x="343" y="370"/>
      <point x="281" y="346"/>
      <point x="228" y="346" type="curve" smooth="yes"/>
      <point x="201" y="346"/>
      <point x="182" y="364"/>
      <point x="182" y="395" type="curve" smooth="yes"/>
      <point x="182" y="405"/>
      <point x="184" y="414"/>
      <point x="187" y="422" type="curve"/>
      <point x="146" y="424" type="line"/>
      <point x="140" y="412"/>
      <point x="137" y="400"/>
      <point x="137" y="388" type="curve" smooth="yes"/>
      <point x="137" y="377"/>
      <point x="140" y="368"/>
      <point x="144" y="361" type="curve"/>
      <point x="110" y="315" type="line" smooth="yes"/>
      <point x="106" y="310"/>
      <point x="104" y="303"/>
      <point x="104" y="299" type="curve" smooth="yes"/>
      <point x="104" y="296"/>
      <point x="105" y="294"/>
      <point x="107" y="293" type="curve" smooth="yes"/>
      <point x="122" y="288" type="line" smooth="yes"/>
      <point x="124" y="287"/>
      <point x="127" y="286"/>
      <point x="128" y="286" type="curve" smooth="yes"/>
      <point x="131" y="286"/>
      <point x="134" y="288"/>
      <point x="138" y="292" type="curve" smooth="yes"/>
      <point x="143" y="297"/>
      <point x="154" y="311"/>
      <point x="173" y="336" type="curve"/>
      <point x="176" y="333"/>
      <point x="187" y="329"/>
      <point x="204" y="325" type="curve"/>
      <point x="172" y="283" type="line" smooth="yes"/>
      <point x="168" y="277"/>
      <point x="165" y="272"/>
      <point x="165" y="268" type="curve" smooth="yes"/>
      <point x="165" y="265"/>
      <point x="167" y="262"/>
      <point x="170" y="261" type="curve" smooth="yes"/>
      <point x="186" y="256" type="line" smooth="yes"/>
      <point x="188" y="255"/>
      <point x="189" y="255"/>
      <point x="191" y="255" type="curve" smooth="yes"/>
      <point x="196" y="255"/>
      <point x="202" y="260"/>
      <point x="209" y="270" type="curve" smooth="yes"/>
      <point x="250" y="323" type="line"/>
      <point x="311" y="333"/>
      <point x="392" y="357"/>
      <point x="413" y="373" type="curve"/>
      <point x="456" y="339"/>
      <point x="501" y="322"/>
      <point x="550" y="322" type="curve" smooth="yes"/>
      <point x="596" y="322"/>
      <point x="634" y="335"/>
      <point x="664" y="362" type="curve"/>
      <point x="666" y="355"/>
      <point x="675" y="345"/>
      <point x="691" y="330" type="curve"/>
      <point x="667" y="302" type="line"/>
      <point x="698" y="278" type="line"/>
      <point x="725" y="310" type="line"/>
      <point x="753" y="290"/>
      <point x="775" y="280"/>
      <point x="792" y="280" type="curve" smooth="yes"/>
      <point x="805" y="280"/>
      <point x="813" y="282"/>
      <point x="815" y="287" type="curve"/>
      <point x="815" y="290" type="line"/>
      <point x="780" y="301"/>
      <point x="755" y="314"/>
      <point x="740" y="329" type="curve"/>
      <point x="751" y="345"/>
      <point x="757" y="354"/>
      <point x="757" y="355" type="curve" smooth="yes"/>
      <point x="758" y="357"/>
      <point x="758" y="358"/>
    </contour>
  </outline>
</glyph>
<glyph name="u1D04D" format="2">
  <advance width="646"/>
  <unicode hex="1D04D"/>
  <note>
u1D04D
</note>
  <outline>
    <contour>
      <point x="446" y="360" type="curve"/>
      <point x="365" y="260" type="line"/>
      <point x="403" y="260" type="line" smooth="yes"/>
      <point x="419" y="260"/>
      <point x="434" y="270"/>
      <point x="448" y="287" type="curve" smooth="yes"/>
      <point x="535" y="391" type="line"/>
      <point x="540" y="406" type="line"/>
      <point x="540" y="410"/>
      <point x="536" y="412"/>
      <point x="530" y="412" type="curve" smooth="yes"/>
      <point x="509" y="412" type="line"/>
      <point x="462" y="388"/>
      <point x="359" y="365"/>
      <point x="259" y="365" type="curve" smooth="yes"/>
      <point x="231" y="365"/>
      <point x="211" y="369"/>
      <point x="198" y="376" type="curve" smooth="yes"/>
      <point x="186" y="383"/>
      <point x="179" y="390"/>
      <point x="179" y="397" type="curve" smooth="yes"/>
      <point x="179" y="409"/>
      <point x="191" y="417"/>
      <point x="213" y="417" type="curve" smooth="yes"/>
      <point x="229" y="417"/>
      <point x="242" y="416"/>
      <point x="257" y="413" type="curve"/>
      <point x="232" y="437"/>
      <point x="201" y="449"/>
      <point x="163" y="449" type="curve" smooth="yes"/>
      <point x="123" y="449"/>
      <point x="103" y="441"/>
      <point x="103" y="424" type="curve" smooth="yes"/>
      <point x="103" y="393"/>
      <point x="198" y="344"/>
      <point x="258" y="344" type="curve" smooth="yes"/>
      <point x="292" y="344"/>
      <point x="388" y="351"/>
    </contour>
  </outline>
</glyph>
<glyph name="u1D04E" format="2">
  <advance width="455"/>
  <unicode hex="1D04E"/>
  <note>
u1D04E
</note>
  <outline>
    <contour>
      <point x="103" y="401" type="line"/>
      <point x="109" y="401" type="line" smooth="yes"/>
      <point x="122" y="401"/>
      <point x="127" y="392"/>
      <point x="131" y="374" type="curve" smooth="yes"/>
      <point x="137" y="344" type="line" smooth="yes"/>
      <point x="144" y="310"/>
      <point x="169" y="293"/>
      <point x="210" y="293" type="curve" smooth="yes"/>
      <point x="219" y="293"/>
      <point x="229" y="295"/>
      <point x="240" y="301" type="curve"/>
      <point x="240" y="310" type="line"/>
      <point x="233" y="310" type="line" smooth="yes"/>
      <point x="214" y="310"/>
      <point x="210" y="332"/>
      <point x="206" y="357" type="curve" smooth="yes"/>
      <point x="201" y="386"/>
      <point x="189" y="412"/>
      <point x="142" y="412" type="curve" smooth="yes"/>
      <point x="129" y="412"/>
      <point x="116" y="410"/>
      <point x="103" y="406" type="curve"/>
    </contour>
    <contour>
      <point x="215" y="401" type="line"/>
      <point x="222" y="401" type="line" smooth="yes"/>
      <point x="234" y="401"/>
      <point x="241" y="386"/>
      <point x="243" y="367" type="curve" smooth="yes"/>
      <point x="245" y="349"/>
      <point x="251" y="328"/>
      <point x="264" y="313" type="curve" smooth="yes"/>
      <point x="276" y="300"/>
      <point x="294" y="293"/>
      <point x="322" y="293" type="curve" smooth="yes"/>
      <point x="331" y="293"/>
      <point x="341" y="295"/>
      <point x="352" y="301" type="curve"/>
      <point x="352" y="310" type="line"/>
      <point x="344" y="310" type="line" smooth="yes"/>
      <point x="338" y="310"/>
      <point x="333" y="312"/>
      <point x="331" y="314" type="curve" smooth="yes"/>
      <point x="328" y="317"/>
      <point x="322" y="338"/>
      <point x="315" y="364" type="curve" smooth="yes"/>
      <point x="310" y="384"/>
      <point x="303" y="412"/>
      <point x="251" y="412" type="curve" smooth="yes"/>
      <point x="239" y="412"/>
      <point x="227" y="410"/>
      <point x="215" y="406" type="curve"/>
    </contour>
  </outline>
</glyph>
<glyph name="u1D04F" format="2">
  <advance width="344"/>
  <unicode hex="1D04F"/>
  <note>
u1D04F
</note>
  <outline>
    <contour>
      <point x="103" y="541" type="line"/>
      <point x="110" y="541" type="line" smooth="yes"/>
      <point x="114" y="541"/>
      <point x="118" y="541"/>
      <point x="123" y="537" type="curve" smooth="yes"/>
      <point x="127" y="532"/>
      <point x="131" y="515"/>
      <point x="134" y="495" type="curve" smooth="yes"/>
      <point x="137" y="478"/>
      <point x="147" y="460"/>
      <point x="154" y="453" type="curve" smooth="yes"/>
      <point x="166" y="441"/>
      <point x="184" y="433"/>
      <point x="210" y="433" type="curve" smooth="yes"/>
      <point x="222" y="433"/>
      <point x="232" y="436"/>
      <point x="240" y="442" type="curve"/>
      <point x="240" y="449" type="line"/>
      <point x="237" y="449" type="line" smooth="yes"/>
      <point x="231" y="449"/>
      <point x="224" y="452"/>
      <point x="218" y="456" type="curve" smooth="yes"/>
      <point x="213" y="460"/>
      <point x="209" y="479"/>
      <point x="205" y="508" type="curve" smooth="yes"/>
      <point x="201" y="537"/>
      <point x="179" y="552"/>
      <point x="142" y="552" type="curve" smooth="yes"/>
      <point x="129" y="552"/>
      <point x="116" y="550"/>
      <point x="103" y="547" type="curve"/>
    </contour>
  </outline>
</glyph>
<glyph name="u1D050" format="2">
  <advance width="590"/>
  <unicode hex="1D050"/>
  <note>
u1D050
</note>
  <outline>
    <contour>
      <point x="103" y="487" type="curve"/>
      <point x="103" y="474" type="line"/>
      <point x="170" y="474"/>
      <point x="231" y="463"/>
      <point x="288" y="442" type="curve"/>
      <point x="290" y="448" type="line"/>
      <point x="274" y="469"/>
      <point x="238" y="485"/>
      <point x="197" y="485" type="curve"/>
      <point x="326" y="495"/>
      <point x="428" y="566"/>
      <point x="455" y="665" type="curve"/>
      <point x="457" y="672"/>
      <point x="475" y="683"/>
      <point x="487" y="685" type="curve"/>
      <point x="475" y="693"/>
      <point x="467" y="697"/>
      <point x="448" y="697" type="curve" smooth="yes"/>
      <point x="429" y="697"/>
      <point x="410" y="690"/>
      <point x="391" y="676" type="curve"/>
      <point x="341" y="548"/>
      <point x="291" y="516"/>
    </contour>
  </outline>
</glyph>
<glyph name="u1D051" format="2">
  <advance width="535"/>
  <unicode hex="1D051"/>
  <note>
u1D051
</note>
  <outline>
    <contour>
      <point x="413" y="290" type="curve"/>
      <point x="426" y="294"/>
      <point x="432" y="305"/>
      <point x="432" y="322" type="curve" smooth="yes"/>
      <point x="432" y="376"/>
      <point x="308" y="418"/>
      <point x="185" y="418" type="curve" smooth="yes"/>
      <point x="164" y="418"/>
      <point x="136" y="416"/>
      <point x="103" y="412" type="curve"/>
      <point x="103" y="406" type="line"/>
      <point x="167" y="404"/>
      <point x="224" y="396"/>
      <point x="273" y="381" type="curve" smooth="yes"/>
      <point x="322" y="366"/>
      <point x="346" y="349"/>
      <point x="346" y="331" type="curve" smooth="yes"/>
      <point x="346" y="320"/>
      <point x="338" y="312"/>
      <point x="323" y="308" type="curve"/>
      <point x="339" y="300"/>
      <point x="385" y="290"/>
    </contour>
  </outline>
</glyph>
<glyph name="u1D052" format="2">
  <advance width="619"/>
  <unicode hex="1D052"/>
  <note>
u1D052
</note>
  <outline>
    <contour>
      <point x="365" y="290" type="curve"/>
      <point x="376" y="294"/>
      <point x="382" y="306"/>
      <point x="382" y="323" type="curve" smooth="yes"/>
      <point x="382" y="374"/>
      <point x="258" y="416"/>
      <point x="164" y="416" type="curve" smooth="yes"/>
      <point x="144" y="416"/>
      <point x="125" y="415"/>
      <point x="103" y="413" type="curve"/>
      <point x="103" y="408" type="line"/>
      <point x="164" y="405"/>
      <point x="212" y="396"/>
      <point x="248" y="382" type="curve" smooth="yes"/>
      <point x="283" y="368"/>
      <point x="301" y="351"/>
      <point x="301" y="331" type="curve" smooth="yes"/>
      <point x="301" y="320"/>
      <point x="293" y="312"/>
      <point x="278" y="308" type="curve"/>
      <point x="293" y="300"/>
      <point x="335" y="290"/>
    </contour>
    <contour>
      <point x="498" y="268" type="curve"/>
      <point x="511" y="272"/>
      <point x="516" y="282"/>
      <point x="516" y="300" type="curve" smooth="yes"/>
      <point x="516" y="369"/>
      <point x="379" y="417"/>
      <point x="296" y="418" type="curve" smooth="yes"/>
      <point x="284" y="418"/>
      <point x="271" y="417"/>
      <point x="259" y="416" type="curve"/>
      <point x="259" y="413" type="line"/>
      <point x="375" y="401"/>
      <point x="433" y="363"/>
      <point x="433" y="310" type="curve" smooth="yes"/>
      <point x="433" y="299"/>
      <point x="422" y="287"/>
      <point x="412" y="283" type="curve"/>
      <point x="439" y="273"/>
      <point x="467" y="268"/>
    </contour>
  </outline>
</glyph>
